<?xml version="1.0" encoding="UTF-8"?>
<svg width="32px" height="16px" viewBox="0 0 32 16" version="1.1" xmlns="http://www.w3.org/2000/svg" xmlns:xlink="http://www.w3.org/1999/xlink">
    <!-- Generator: Sketch 51.2 (57519) - http://www.bohemiancoding.com/sketch -->
    <title>ico_vip@2x</title>
    <desc>Created with Sketch.</desc>
    <defs></defs>
    <g id="ico_vip" stroke="none" stroke-width="1" fill="none" fill-rule="evenodd">
        <rect id="Rectangle-4" fill-rule="nonzero" x="0" y="0" width="32" height="16"></rect>
        <path d="M2.82742887,3 L28.1791482,3 C29.1847769,3.00000001 30,3.8208113 30,4.83333334 L30,12.1666667 C30,13.1791887 29.1847769,14 28.1791482,14 L5.23277407,14 C4.2271454,14 3.41192229,13.1791887 3.41192229,12.1666667 L3.41192229,6.45858334 C3.41204031,6.01330776 3.25120371,5.58320793 2.95944062,5.24858334 L2.20560798,4.38416666 C1.99128764,4.1381031 1.93968106,3.78858376 2.07364159,3.49038906 C2.20760211,3.19219436 2.50237704,3.00042354 2.82742887,3 Z M9.71571116,5.222 C8.87083594,6.18266666 7.80745849,6.982 6.53286224,7.62733334 L6.904316,8.302 C7.35588724,8.05266666 7.77832486,7.78866666 8.17162884,7.51 L8.17162884,8.08933334 L11.7914822,8.08933334 L11.7914822,7.53933334 C12.1702194,7.818 12.5708067,8.06733334 13.0078112,8.29466666 L13.3865484,7.62 C12.1908595,7.03058506 11.1179741,6.21667169 10.2255497,5.222 L9.71571116,5.222 Z M8.28087995,7.42933334 C8.90951181,6.97678175 9.47745991,6.44437782 9.97063041,5.84533334 C10.4586187,6.432 11.019441,6.96 11.645814,7.42933334 L8.28087995,7.42933334 Z M7.02813393,8.90333334 L7.02813393,9.578 L8.7324512,9.578 C8.44964969,10.0988864 8.1127249,10.5880721 7.72734101,11.0373333 C7.65450694,11.118 7.53797243,11.184 7.37045406,11.228 L7.55982264,11.8293333 C9.26413991,11.7266667 10.6844043,11.5873333 11.8133324,11.4113333 C11.9517172,11.6093333 12.0828185,11.8073333 12.2066364,11.998 L12.7820256,11.5873333 C12.4178552,11.052 11.9080167,10.4213333 11.2452267,9.69533334 L10.7062545,10.04 C10.9575535,10.3190152 11.1980842,10.6076737 11.4273118,10.9053333 C10.4203743,11.0255849 9.40989982,11.1136292 8.39741447,11.1693333 C8.84438981,10.6918227 9.2264611,10.1567086 9.53362598,9.578 L12.9276937,9.578 L12.9276937,8.90333334 L7.02813393,8.90333334 Z M19.766813,7.862 L14.7485455,7.862 L14.7485455,10.7513333 L15.4331858,10.7513333 L15.4331858,8.5 L19.0821727,8.5 L19.0821727,10.6413333 L19.766813,10.6413333 L19.766813,7.862 Z M15.1782665,5.45666666 L15.1782665,7.41466666 L19.337092,7.41466666 L19.337092,5.45666666 L15.1782665,5.45666666 Z M18.6670185,6.81333334 L15.84834,6.81333334 L15.84834,6.07266666 L18.6670185,6.07266666 L18.6670185,6.81333334 Z M16.9699847,8.88133334 C16.9117174,9.76133334 16.7223488,10.3773333 16.3945955,10.7366667 C16.0158583,11.118 15.2365338,11.338 14.0639052,11.3966667 L14.3333913,12.0346667 C15.7390888,11.9026667 16.6276645,11.602 16.9918349,11.1473333 C17.3414384,10.7806667 17.567224,10.0473333 17.6691917,8.94733334 L16.9699847,8.88133334 Z M17.8294267,10.5386667 L17.4871066,11.0593333 C18.3611154,11.294 19.213274,11.624 20.0435825,12.042 L20.4223196,11.4626667 C19.5844429,11.0841178 18.7172635,10.7750908 17.8294267,10.5386667 Z M22.0319526,8.04533334 L22.0319526,11.9686667 L22.7311597,11.9686667 L22.7311597,6.88666666 C22.9496619,6.44666666 23.1317471,5.992 23.2774152,5.51533334 L22.629192,5.20733334 C22.3087221,6.322 21.806167,7.29733334 21.1288101,8.13333334 L21.3618792,8.88133334 C21.5949482,8.61733334 21.8207338,8.33866667 22.0319526,8.04533334 Z M25.9431422,7.82533334 L25.9431422,11.9393333 L26.6132157,11.9393333 L26.6132157,7.82533334 L25.9431422,7.82533334 Z M24.1077236,7.84733334 L24.1077236,8.93266666 C24.0931568,10.15 23.7872537,11.03 23.1900143,11.58 L23.7071362,12.0346667 C24.4063433,11.382 24.7632303,10.348 24.7777971,8.93266666 L24.7777971,7.84733334 L24.1077236,7.84733334 Z M25.0254329,5.27333334 C24.5330144,6.30884577 23.7796438,7.19633143 22.8404108,7.84733334 L23.2264314,8.44133334 C24.07859,7.85466667 24.7850805,7.01866667 25.3386194,5.94066666 C25.8266077,6.90133333 26.5695153,7.708 27.5600586,8.368 L27.9460792,7.774 C26.8681349,7.05533334 26.1033772,6.22666666 25.6590894,5.27333334 L25.0254329,5.27333334 Z" id="Shape" fill="#FF5000" fill-rule="nonzero"></path>
    </g>
</svg>