<?xml version="1.0" encoding="UTF-8"?>
<svg width="60px" height="60px" viewBox="0 0 60 60" version="1.1" xmlns="http://www.w3.org/2000/svg" xmlns:xlink="http://www.w3.org/1999/xlink">
    <!-- Generator: Sketch 51.2 (57519) - http://www.bohemiancoding.com/sketch -->
    <title>ico_service_fangzu@2x</title>
    <desc>Created with Sketch.</desc>
    <defs></defs>
    <g id="ico_service_fangzu" stroke="none" stroke-width="1" fill="none" fill-rule="evenodd">
        <rect id="Rectangle-8" fill-rule="nonzero" x="0" y="0" width="60" height="60"></rect>
        <g id="wuyefei" transform="translate(17.000000, 17.000000)" fill="#FF6A2E" fill-rule="nonzero">
            <path d="M26.3913501,11.2725406 C25.9214232,10.8186486 17.1386518,2.39227768 15.6046376,0.902444034 C14.9888713,0.304374615 14.2974846,0 13.5520833,0 C12.3205508,0 11.4455145,0.838365167 11.3590912,0.923803656 L1.8903345,10.0550421 C1.39340032,10.5302937 0.577780091,11.30458 0.507561131,11.3686589 C0.167269247,11.6623537 -0.210832846,12.3832409 0.140261955,13.1628671 C0.464349463,13.8997741 1.19894781,14.1026905 1.59325428,14.1080304 L2.48449493,14.1080304 C2.50069931,14.1080304 2.51690368,14.1080304 2.52230514,14.1133703 C2.5277066,14.12939 2.53310806,14.1507496 2.53850952,14.1721093 L2.53850952,20.3236804 C2.53850952,22.9669337 4.20756018,24.3980283 4.4398229,24.584925 C5.50931167,25.5140686 6.79485879,26 8.15602632,26 L18.8725199,25.9893202 C20.2228845,25.9893202 21.5516433,25.5033888 22.6103292,24.6223044 C24.4846353,23.0683919 24.5332484,20.8149517 24.5386499,20.7081536 L24.5386499,14.1240501 C24.5494528,14.1187102 24.5602557,14.1133703 24.5710586,14.1133703 L25.3974818,14.1133703 C26.0618611,14.1133703 26.6182114,13.7288971 26.8882843,13.0827685 C27.2177733,12.2711029 26.7478464,11.5769152 26.3913501,11.2725406 Z M17.0900386,17.4508113 C17.5383597,17.4508113 17.8894545,17.8299445 17.8894545,18.2197577 C17.8894545,18.5828712 17.5221553,18.9566646 17.0900386,18.9566646 L14.2650759,18.9566646 L14.2650759,20.3984391 C14.2650759,20.7775724 13.9571927,21.0659273 13.4926673,21.0659273 C13.0551492,21.0659273 12.7418646,20.7668926 12.7418646,20.3984391 L12.7418646,18.9566646 L9.89529595,18.9566646 C9.46858073,18.9566646 9.11748593,18.5721914 9.11748593,18.1877182 C9.11748593,17.8139248 9.45777781,17.4508113 9.89529595,17.4508113 L12.7418646,17.4508113 L12.7418646,16.6978846 L9.89529595,16.6978846 C9.44157344,16.6978846 9.11748593,16.3240912 9.11748593,15.9235983 C9.11748593,15.5658246 9.46858073,15.1920312 9.89529595,15.1920312 L12.0720837,15.1920312 L9.66303324,11.4487574 C9.56040553,11.3152598 9.52799677,11.0696242 9.57120844,10.9040871 C9.62522303,10.7065106 9.79266824,10.5409735 10.0357339,10.4448552 C10.4084345,10.3113576 10.8567556,10.4341754 11.0566095,10.7011707 L13.5196746,14.4337646 L15.9557324,10.6904909 C16.1609878,10.3861162 16.6633234,10.2632984 17.0090168,10.4448552 C17.1332503,10.4822345 17.2250751,10.5623331 17.306097,10.6637913 L17.3168999,10.5836928 L17.3168999,10.7438899 C17.3168999,10.7705894 17.3871188,10.8186486 17.3979218,10.850688 C17.4573378,11.021565 17.4735422,11.2298213 17.365513,11.3846786 L17.1116445,11.8065311 L14.9510611,15.1920312 L17.0900386,15.1920312 C17.5329582,15.1920312 17.8894545,15.5765044 17.8894545,15.9556377 C17.8894545,16.3294311 17.5383597,16.7032245 17.0900386,16.7032245 L14.2650759,16.7032245 L14.2650759,17.4561512 L17.0900386,17.4561512 L17.0900386,17.4508113 Z" id="Shape"></path>
        </g>
    </g>
</svg>