<?xml version="1.0" encoding="UTF-8"?>
<svg width="12px" height="16px" viewBox="0 0 12 16" version="1.1" xmlns="http://www.w3.org/2000/svg" xmlns:xlink="http://www.w3.org/1999/xlink">
    <!-- Generator: Sketch 51.2 (57519) - http://www.bohemiancoding.com/sketch -->
    <title>ico_price@2x</title>
    <desc>Created with Sketch.</desc>
    <defs></defs>
    <g id="ico_price" stroke="none" stroke-width="1" fill="none" fill-rule="evenodd">
        <rect id="Rectangle-3" fill-rule="nonzero" x="0" y="0" width="12" height="16"></rect>
        <g id="jiagepaixu-moren" transform="translate(3.000000, 4.000000)" fill="#C8C7CD" fill-rule="nonzero">
            <path d="M2.35043029,7.68958205 C2.70973457,8.1019825 3.28916208,8.10496012 3.65044056,7.68958205 L5.80527914,5.21319428 C6.16458342,4.80079383 6.01257007,4.46630779 5.4652233,4.46630779 L0.535647549,4.46630779 C-0.0112056684,4.46630779 -0.165686767,4.79781621 0.195098163,5.21319428 L2.35043029,7.68958205 Z M2.35043029,0.310045747 C2.70973457,-0.101858432 3.28916208,-0.104836052 3.65044056,0.310045747 L5.80527914,2.78643352 C6.16458342,3.19933024 6.01257007,3.53381628 5.4652233,3.53381628 L0.535647549,3.53381628 C-0.0112056684,3.53381628 -0.165686767,3.20181159 0.195098163,2.78692979 L2.35043029,0.310542017 L2.35043029,0.310045747 Z" id="Shape"></path>
        </g>
    </g>
</svg>