<?xml version="1.0" encoding="UTF-8"?>
<svg width="20px" height="20px" viewBox="0 0 20 20" version="1.1" xmlns="http://www.w3.org/2000/svg" xmlns:xlink="http://www.w3.org/1999/xlink">
    <!-- Generator: Sketch 51.2 (57519) - http://www.bohemiancoding.com/sketch -->
    <title>ico_home_my@2x</title>
    <desc>Created with Sketch.</desc>
    <defs></defs>
    <g id="Page-1" stroke="none" stroke-width="1" fill="none" fill-rule="evenodd">
        <g id="home" transform="translate(-330.000000, -81.000000)" fill-rule="nonzero">
            <g id="ico_home_my" transform="translate(316.000000, 77.000000)">
                <rect x="0" y="0" width="44" height="44"></rect>
                <g id="my_boy" transform="translate(14.000000, 4.000000)" fill="#3276FC">
                    <path d="M18.6408098,18.8130514 L1.21726372,18.8130514 C0.857087057,18.8130514 0.496910395,18.6329631 0.271799981,18.3628306 C0.0466895673,18.047676 -0.0433545982,17.6874993 0.0466895673,17.3273227 C0.947131223,12.7350702 4.68396409,9.31339193 9.18617237,8.95321526 C10.6944121,8.95321526 12.3264626,9.14455912 13.9585131,9.80863484 C14.431245,9.99997869 14.5888223,10.1237894 14.8589548,10.2588557 C17.4702356,11.7445844 19.2711189,14.3108431 19.856406,17.3273227 C19.9464502,17.6874993 19.856406,18.047676 19.5862735,18.3628306 C19.3611631,18.6329631 19.0009864,18.8130514 18.6408098,18.8130514 Z" id="Shape"></path>
                    <path d="M1.23977476,18.0814425 C1.09345299,18.0814425 0.958386744,18.0251649 0.879598099,17.9238653 C0.868342578,17.9126097 0.868342578,17.9013542 0.857087057,17.8900987 C0.74453185,17.7775435 0.73327633,17.5861996 0.755787371,17.4736444 C1.5886959,13.1965466 5.08916284,9.98872317 9.27621654,9.68482411 L9.61388216,9.68482411 C11.6286204,9.68482411 13.5645699,10.3151333 14.5100337,10.9116759 C16.9862482,12.3974046 18.6408098,14.7272974 19.1585637,17.4736444 C19.1810747,17.6312217 19.1473082,17.7775435 19.034753,17.9238653 C18.9559643,18.0251649 18.8208981,18.0814425 18.6745763,18.0814425 L1.23977476,18.0814425 Z" id="Shape"></path>
                    <path d="M9.61388216,10.9549566 C11.5723428,10.9549566 13.4520147,11.5627547 14.3637119,12.1367863 L14.3749674,12.1367863 C16.7836488,13.5662374 18.3819328,15.8285971 18.8771757,18.507411 C18.8884312,18.5636886 18.8884312,18.6424772 18.798387,18.7437769 C18.7871315,18.766288 18.7308539,18.788799 18.6633208,18.788799 L1.23977476,18.788799 C1.17224164,18.788799 1.11596403,18.766288 1.10470851,18.7437769 C1.09345299,18.7212659 1.07094195,18.6987548 1.04843091,18.6874993 C1.02591987,18.6649883 1.00340883,18.5974552 1.02591987,18.5186665 C1.83631736,14.3653794 5.22422909,11.2588557 9.28747206,10.9549566 C9.38877174,10.9662121 9.50132695,10.9549566 9.61388216,10.9549566 Z M9.61388216,10.3921806 C9.50132695,10.3921806 9.37751622,10.3921806 9.26496102,10.4034361 C4.94284107,10.7185907 1.34107445,14.0052027 0.485654874,18.4173668 C0.440632792,18.6424772 0.485654874,18.9126097 0.665743206,19.0926981 C0.800809454,19.2727864 1.02591987,19.3628306 1.25103028,19.3628306 L18.6745763,19.3628306 C18.8996867,19.3628306 19.1247971,19.2727864 19.2598634,19.0926981 C19.3949296,18.9126097 19.4849738,18.6874993 19.4399517,18.4173668 C18.8996867,15.5359535 17.1888476,13.1722942 14.667611,11.6640544 C13.7108917,11.0675118 11.7524311,10.3921806 9.61388216,10.3921806 Z M9.95154778,10.358414 C7.11515656,10.358414 4.77400826,8.0172657 4.77400826,5.18087449 C4.77400826,2.34448327 7.11515656,0.00333496909 9.95154778,0.00333496909 C12.787939,0.00333496909 15.1290873,2.34448327 15.1290873,5.18087449 C15.1290873,8.0172657 12.787939,10.358414 9.95154778,10.358414 Z" id="Shape"></path>
                    <path d="M9.95154778,9.62680516 C7.49784427,9.62680516 5.5056171,7.634578 5.5056171,5.18087449 C5.5056171,2.72717098 7.49784427,0.734943814 9.95154778,0.734943814 C12.4052513,0.734943814 14.3974785,2.72717098 14.3974785,5.18087449 C14.3974785,7.634578 12.4052513,9.62680516 9.95154778,9.62680516 Z" id="Shape"></path>
                    <path d="M9.95154778,1.01633183 C12.247674,1.01633183 14.1160904,2.88474827 14.1160904,5.18087449 C14.1160904,7.47700071 12.247674,9.34541715 9.95154778,9.34541715 C7.65542156,9.34541715 5.78700512,7.47700071 5.78700512,5.18087449 C5.78700512,2.88474827 7.65542156,1.01633183 9.95154778,1.01633183 Z M9.95154778,0.453555797 C7.34026698,0.453555797 5.22422909,2.56959369 5.22422909,5.18087449 C5.22422909,7.79215529 7.34026698,9.90819318 9.95154778,9.90819318 C12.5628286,9.90819318 14.6788665,7.79215529 14.6788665,5.18087449 C14.6788665,2.56959369 12.5628286,0.453555797 9.95154778,0.453555797 Z" id="Shape"></path>
                </g>
            </g>
        </g>
    </g>
</svg>