<?xml version="1.0" encoding="UTF-8"?>
<svg width="24px" height="24px" viewBox="0 0 24 24" version="1.1" xmlns="http://www.w3.org/2000/svg" xmlns:xlink="http://www.w3.org/1999/xlink">
    <!-- Generator: Sketch 51.2 (57519) - http://www.bohemiancoding.com/sketch -->
    <title>ico_my_luck@2x</title>
    <desc>Created with Sketch.</desc>
    <defs></defs>
    <g id="ico_my_luck" stroke="none" stroke-width="1" fill="none" fill-rule="evenodd">
        <rect id="Rectangle-3" x="0" y="0" width="24" height="24"></rect>
        <g id="dazhuanpan" transform="translate(4.000000, 4.000000)" fill="#000000" fill-rule="nonzero">
            <path d="M8.5,17 C3.81225,17 0,13.18775 0,8.5 C0,3.81225 3.81225,0 8.5,0 C9.4849375,0 10.45075,0.167875 11.3719375,0.4983125 C11.7385,0.629 11.9286875,1.0359375 11.7969375,1.4014375 C11.664125,1.7669375 11.2614375,1.95925 10.8938125,1.8264375 C10.1266875,1.5501875 9.32025,1.408875 8.4989375,1.408875 C4.587875,1.408875 1.4078125,4.59 1.4078125,8.5 C1.4078125,12.412125 4.587875,15.591125 8.4989375,15.591125 C12.4068125,15.591125 15.5900625,12.412125 15.5900625,8.5 C15.5900625,8.432 15.5879375,8.3565625 15.582625,8.2651875 C15.5709375,7.87525 15.878,7.5511875 16.266875,7.5363125 C16.653625,7.5235625 16.9819375,7.830625 16.993625,8.2195 C16.997875,8.327875 17,8.41925 17,8.5 C17,13.18775 13.18775,17 8.5,17 Z M8.055875,7.8115 L11.7629375,5.9935625 C11.94675,5.9064375 12.1666875,5.9808125 12.257,6.1614375 C12.3303125,6.3186875 12.2856875,6.5035625 12.155,6.6098125 L8.942,9.203375 C8.585,9.4913125 8.06225,9.4339375 7.77325,9.0790625 C7.486375,8.7220625 7.541625,8.1993125 7.8996875,7.9103125 C7.945375,7.873125 8.00275,7.8359375 8.055875,7.8115 Z M16.632375,0.6895625 L15.317,2.7465625 L16.3550625,2.7465625 L16.3550625,3.2013125 L15.144875,3.2013125 L15.144875,3.8260625 L16.3550625,3.8260625 L16.3550625,4.2893125 L15.144875,4.2893125 L15.144875,5.202 L14.5233125,5.202 L14.5233125,4.2893125 L13.2695625,4.2893125 L13.2695625,3.8260625 L14.5233125,3.8260625 L14.5233125,3.2013125 L13.2695625,3.2013125 L13.2695625,2.7465625 L14.3384375,2.7465625 L13.032625,0.6895625 L13.736,0.6895625 C14.34375,1.710625 14.7145625,2.3576875 14.84525,2.6318125 L14.8590625,2.6318125 C14.9036875,2.52025 15.0248125,2.2939375 15.2235,1.95075 L15.9683125,0.6885 L16.632375,0.6885 L16.632375,0.6895625 Z" id="Shape"></path>
        </g>
    </g>
</svg>