<?xml version="1.0" encoding="UTF-8"?>
<svg width="24px" height="24px" viewBox="0 0 24 24" version="1.1" xmlns="http://www.w3.org/2000/svg" xmlns:xlink="http://www.w3.org/1999/xlink">
    <!-- Generator: Sketch 51.2 (57519) - http://www.bohemiancoding.com/sketch -->
    <title>ico_my_com@2x</title>
    <desc>Created with Sketch.</desc>
    <defs></defs>
    <g id="ico_my_com" stroke="none" stroke-width="1" fill="none" fill-rule="evenodd">
        <rect id="Rectangle-3" x="0" y="0" width="24" height="24"></rect>
        <path d="M10.8019883,17.6169665 L8.60624833,18.7713353 C7.87298145,19.1568365 6.96604072,18.8749167 6.58053951,18.1416498 C6.4270309,17.8496591 6.37405889,17.515207 6.42982416,17.1900706 L6.84917318,14.7450782 C6.93263008,14.2584871 6.77130736,13.7619868 6.41777823,13.417381 L4.64138727,11.6858278 C4.0481619,11.107576 4.03602345,10.1579061 4.61427526,9.56468072 C4.84453817,9.32845527 5.14625179,9.1747245 5.47270733,9.12728773 L7.92761926,8.77056815 C8.4161845,8.69957546 8.83853288,8.3927214 9.0570259,7.95000619 L10.1548959,5.72547863 C10.5215293,4.98259814 11.4209681,4.67758964 12.1638486,5.04422308 C12.4596675,5.19021844 12.6991088,5.42965972 12.8451041,5.72547863 L13.9429741,7.95000619 C14.1614671,8.3927214 14.5838155,8.69957546 15.0723807,8.77056815 L17.5272927,9.12728773 C18.34711,9.24641416 18.9151321,10.0075784 18.7960057,10.8273957 C18.7485689,11.1538513 18.5948382,11.4555649 18.3586127,11.6858278 L16.5822218,13.417381 C16.2286926,13.7619868 16.0673699,14.2584871 16.1508268,14.7450782 L16.5701758,17.1900706 C16.7102174,18.0065752 16.1618356,18.7820091 15.3453309,18.9220506 C15.0201945,18.9778159 14.6857424,18.9248439 14.3937517,18.7713353 L12.1980117,17.6169665 C11.7610257,17.3872293 11.2389743,17.3872293 10.8019883,17.6169665 Z" id="Star" stroke="#000000" stroke-width="1.5" fill-rule="nonzero"></path>
    </g>
</svg>