<?xml version="1.0" encoding="UTF-8"?>
<svg width="24px" height="24px" viewBox="0 0 24 24" version="1.1" xmlns="http://www.w3.org/2000/svg" xmlns:xlink="http://www.w3.org/1999/xlink">
    <!-- Generator: Sketch 51.2 (57519) - http://www.bohemiancoding.com/sketch -->
    <title>ico_my_renzheng copy@2x</title>
    <desc>Created with Sketch.</desc>
    <defs></defs>
    <g id="ico_my_renzheng-copy" stroke="none" stroke-width="1" fill="none" fill-rule="evenodd">
        <g id="renzheng-copy" transform="translate(5.000000, 3.000000)" fill="#000000" fill-rule="nonzero">
            <path d="M6.99940243,17 C4.55180264,17 1.71175629e-08,13.206168 1.71175629e-08,9.61857506 L0,2.47204483 L0.695956526,2.46034046 C0.710696305,2.46034046 2.26434852,2.42684173 3.86739891,1.76776431 C5.51148165,1.09092852 6.57194888,0.314000145 6.5819082,0.306735362 L6.99741058,0 L7.41649831,0.306735362 C7.42645761,0.314403749 8.48692484,1.09092852 10.1310076,1.76776431 C11.734058,2.42684173 13.2877102,2.46034046 13.3040435,2.46034046 L13.996813,2.47204483 L14,9.61857506 C14.0003983,13.2057643 9.44859572,17 6.99940243,17 Z M1.41342516,3.84186037 L1.41342516,9.61817148 C1.41342516,12.3921085 5.37842529,15.5676266 6.99940243,15.5676266 C8.62077795,15.5676266 12.5853797,12.3921085 12.5853797,9.61817148 L12.5853797,3.84186037 C11.8926102,3.76598373 10.768005,3.57427414 9.59997721,3.09399113 C8.40286827,2.60079296 7.49378253,2.06481328 6.99900406,1.74556635 C6.50581908,2.06481328 5.59553823,2.60079296 4.3996244,3.09399113 C3.23079988,3.57467772 2.10579632,3.76598373 1.41342516,3.84186037 Z M6.62493241,12.3037202 L3.65307459,9.73884762 L4.56694078,8.6495335 L6.47355092,10.2937965 L10.0919671,6.0705349 L11.1604018,7.00971013 L6.62493241,12.3037202 Z" id="Shape"></path>
        </g>
    </g>
</svg>