<?xml version="1.0" encoding="UTF-8"?>
<svg width="36px" height="36px" viewBox="0 0 36 36" version="1.1" xmlns="http://www.w3.org/2000/svg" xmlns:xlink="http://www.w3.org/1999/xlink">
    <!-- Generator: Sketch 51.2 (57519) - http://www.bohemiancoding.com/sketch -->
    <title>ico_my_vipji@2x</title>
    <desc>Created with Sketch.</desc>
    <defs>
        <linearGradient x1="72.8358482%" y1="107.407902%" x2="-1.11022302e-14%" y2="0%" id="linearGradient-1">
            <stop stop-color="#D3A269" offset="0%"></stop>
            <stop stop-color="#F3D18D" offset="100%"></stop>
        </linearGradient>
    </defs>
    <g id="ico_my_vipji" stroke="none" stroke-width="1" fill="none" fill-rule="evenodd">
        <circle id="Oval-3-Copy" fill="#F8F8F8" fill-rule="nonzero" cx="18" cy="18" r="18"></circle>
        <g id="huiyuanshengji-2-copy" transform="translate(9.000000, 10.000000)" fill="url(#linearGradient-1)" fill-rule="nonzero">
            <path d="M13.0000069,0 L4.99999313,0 L0,5.99999742 L9,16 L18,5.99999742 L13.0000069,0 Z M13.9963046,6.70832073 L13.8256013,6.70832073 C13.5707211,6.70832073 13.5880098,6.75709601 13.4644952,6.90352487 C12.5717033,8.09531477 9.00980862,12.8013147 9.00980862,12.8013147 C9.00750071,12.7957098 9.00628494,12.7877969 9.00401823,12.7808938 L9.00401823,12.8013147 C9.00401823,12.8013147 5.43750772,8.09640692 4.54591099,6.90352487 C4.42130422,6.75602448 4.4409009,6.70832073 4.18371271,6.70832073 L4.01181432,6.70832073 C3.91261522,6.70832073 3.83299218,6.62090852 3.83299218,6.51303418 L3.83299218,5.54031057 C3.83299218,5.43251866 3.91381039,5.34502402 4.01181432,5.34502402 L5.79511079,5.34502402 C5.89311471,5.34502402 6.03379446,5.35862422 6.15160111,5.54031057 L9.0052134,9.49030408 L9.0052134,9.50509946 C9.00752131,9.50050424 9.00869589,9.49370414 9.0110038,9.49149925 L11.8600003,5.53919782 C11.9776833,5.358583 12.1195788,5.34391127 12.2176858,5.34391127 L13.9985713,5.34391127 C14.0965752,5.34391127 14.1761777,5.43130288 14.1739728,5.54031055 L14.1739728,6.51301356 C14.1739934,6.61979576 14.0944115,6.70832073 13.9963046,6.70832073 Z" id="Shape"></path>
        </g>
    </g>
</svg>