<?xml version="1.0" encoding="UTF-8"?>
<svg width="60px" height="60px" viewBox="0 0 60 60" version="1.1" xmlns="http://www.w3.org/2000/svg" xmlns:xlink="http://www.w3.org/1999/xlink">
    <!-- Generator: Sketch 51.2 (57519) - http://www.bohemiancoding.com/sketch -->
    <title>ico_service_wuyefei@2x</title>
    <desc>Created with Sketch.</desc>
    <defs></defs>
    <g id="ico_service_wuyefei" stroke="none" stroke-width="1" fill="none" fill-rule="evenodd">
        <rect id="Rectangle-8" fill-rule="nonzero" x="0" y="0" width="60" height="60"></rect>
        <g id="zhufangzujin" transform="translate(18.000000, 17.000000)" fill="#13C9BC" fill-rule="nonzero">
            <path d="M8.85067025,7.2 L15.2558045,7.2 C17.2380756,7.2 18.75,2.55674703 18.75,2.55674703 C18.75,1.16643003 18.6210555,0.114071293 16.4203136,0.0399023853 C14.2202399,-0.0349662125 13.6931041,1.70170556 12.1116967,1.70170556 C10.490871,1.70170556 9.68045817,0.336577988 7.68616112,0.0399023853 C5.69253218,-0.258172626 5.35714286,1.16643 5.35714286,2.55674703 C5.35714286,2.55674703 6.86839911,7.2 8.85067025,7.2 Z M15.8263158,8.1 L9.1743421,8.1 C1.80921051,8.1 0,23.0609337 0,23.0609337 C0,25.0268397 1.54013156,27 3.44078946,27 L21.5598684,27 C23.4598684,27 25,25.0268397 25,23.0609337 C25,23.0615932 23.1907895,8.1 15.8263158,8.1 Z M17.0485141,19.7024275 C17.4955447,19.7024275 17.8571429,20.0688584 17.8571429,20.5202493 C17.8571429,20.9716403 17.4955447,21.3380712 17.0485141,21.3380712 L13.7656536,21.3380712 L13.7656536,23.4821782 C13.7656536,23.9335691 13.4033932,24.3 12.9576871,24.3 C12.5106565,24.3 12.1490584,23.9335691 12.1490584,23.4821782 L12.1490584,21.3380712 L8.84434302,21.3380712 C8.39797465,21.3380712 8.03571429,20.9716403 8.03571429,20.5202493 C8.03571429,20.0688584 8.39797468,19.7024275 8.84434302,19.7024275 L12.1490584,19.7024275 L12.1490584,18.6653957 L8.84434302,18.6653957 C8.39797465,18.6653957 8.03571429,18.2996134 8.03571429,17.8482225 C8.03571429,17.3974801 8.39797468,17.0304006 8.84434302,17.0304006 L11.0781717,17.0304006 L8.79136162,12.9250778 C8.56772922,12.5355723 8.69847232,12.0426231 9.08739526,11.8089228 C9.27333061,11.7009589 9.49612923,11.6717551 9.70451321,11.7280328 C9.91289718,11.7843105 10.0889158,11.9212217 10.1920576,12.1072559 L12.945104,17.0304006 L13.0848425,17.0304006 L15.8378889,12.1072559 C15.940899,11.9212642 16.1167986,11.7843621 16.3250765,11.7280793 C16.5333543,11.6717966 16.7560552,11.7009852 16.941889,11.8089228 C17.3293156,12.0346183 17.4617691,12.5333534 17.2385849,12.9250778 L14.9517749,17.0304006 L17.0485141,17.0304006 C17.4955447,17.0304006 17.8571429,17.3974801 17.8571429,17.8482225 C17.8571429,18.2996134 17.4955447,18.6653957 17.0485141,18.6653957 L13.7656536,18.6653957 L13.7656536,19.7024275 L17.0485141,19.7024275 Z" id="Shape"></path>
        </g>
    </g>
</svg>