<?xml version="1.0" encoding="UTF-8"?>
<svg width="40px" height="40px" viewBox="0 0 40 40" version="1.1" xmlns="http://www.w3.org/2000/svg" xmlns:xlink="http://www.w3.org/1999/xlink">
    <!-- Generator: Sketch 51.2 (57519) - http://www.bohemiancoding.com/sketch -->
    <title>ico_tuofeng_shuiguo02@2x</title>
    <desc>Created with Sketch.</desc>
    <defs>
        <linearGradient x1="50%" y1="12.1484367%" x2="50%" y2="92.252159%" id="linearGradient-1">
            <stop stop-color="#0CB4F3" offset="0%"></stop>
            <stop stop-color="#0088FE" offset="100%"></stop>
        </linearGradient>
        <linearGradient x1="50%" y1="100%" x2="50%" y2="1.83119581%" id="linearGradient-2">
            <stop stop-color="#FFFFFF" offset="0%"></stop>
            <stop stop-color="#FFFFFF" stop-opacity="0.697831748" offset="99.4309971%"></stop>
        </linearGradient>
        <path d="M11.0266312,7 L12.4647137,7 C12.4047936,6.70526316 12.4047936,6.41052632 12.4047936,6.11578947 C12.4047936,3.97894737 13.6031957,2.13684211 15.2210386,1.76842105 C15.2210386,1.76842105 15.2210386,1.76842105 15.2809587,1.76842105 C15.7003995,1.76842105 16,1.4 16,0.884210526 C16,0.368421053 15.7003995,0 15.2809587,0 C12.8841545,0.442105263 11.0266312,3.02105263 11.0266312,6.18947368 C10.9667111,6.41052632 11.0266312,6.70526316 11.0266312,7 Z" id="path-3"></path>
        <filter x="-130.0%" y="-78.6%" width="360.0%" height="285.7%" filterUnits="objectBoundingBox" id="filter-4">
            <feOffset dx="0" dy="1" in="SourceAlpha" result="shadowOffsetOuter1"></feOffset>
            <feGaussianBlur stdDeviation="2" in="shadowOffsetOuter1" result="shadowBlurOuter1"></feGaussianBlur>
            <feColorMatrix values="0 0 0 0 0.280943554   0 0 0 0 0.65396873   0 0 0 0 0.793340774  0 0 0 1 0" type="matrix" in="shadowBlurOuter1"></feColorMatrix>
        </filter>
        <path d="M6.5,1 C8.45762712,1 10,2.14864865 10,3.5 C10,4.85135135 8.45762712,6 6.5,6 C4.54237288,6 3,4.85135135 3,3.5 C3,2.14864865 4.54237288,1 6.5,1 Z" id="path-5"></path>
        <filter x="-92.9%" y="-110.0%" width="285.7%" height="360.0%" filterUnits="objectBoundingBox" id="filter-6">
            <feOffset dx="0" dy="1" in="SourceAlpha" result="shadowOffsetOuter1"></feOffset>
            <feGaussianBlur stdDeviation="2" in="shadowOffsetOuter1" result="shadowBlurOuter1"></feGaussianBlur>
            <feColorMatrix values="0 0 0 0 0.280943554   0 0 0 0 0.65396873   0 0 0 0 0.793340774  0 0 0 1 0" type="matrix" in="shadowBlurOuter1"></feColorMatrix>
        </filter>
        <path d="M14.944926,7 C13.872927,7 11.4766942,8.16723549 10.5308128,8.62116041 C9.58493141,8.16723549 7.1256398,7 6.05364089,7 C1.89176278,7 0,10.5665529 0,14.9112628 C0,15.4948805 0.0630587593,16.0784983 0.189176278,16.662116 C1.00894015,21.9146758 5.29693578,26 10.467754,26 C15.6385723,26 19.9265679,21.9795222 20.7463318,16.7269625 C20.8724493,16.1433447 20.9985668,15.559727 20.9985668,14.9112628 C21.0616256,10.5665529 19.0437453,7 14.944926,7 Z M7.50399236,10.7610922 C6.05364089,11.5392491 4.98164198,12.9658703 4.66634819,14.7167235 C4.66634819,15.1706485 4.35105439,15.4948805 3.90964308,15.4948805 C3.46823176,15.4948805 3.15293796,15.1706485 3.15293796,14.7167235 C3.15293796,14.6518771 3.15293796,14.5870307 3.15293796,14.5221843 C3.53129052,12.1877133 4.98164198,10.3071672 6.93646352,9.33447099 C7.06258104,9.26962457 7.1256398,9.26962457 7.25175732,9.26962457 C7.69316863,9.26962457 8.00846243,9.59385666 8.00846243,10.0477816 C8.07152119,10.3720137 7.81928615,10.6313993 7.50399236,10.7610922 Z" id="path-7"></path>
        <filter x="-31.0%" y="-28.9%" width="161.9%" height="168.4%" filterUnits="objectBoundingBox" id="filter-8">
            <feOffset dx="0" dy="1" in="SourceAlpha" result="shadowOffsetOuter1"></feOffset>
            <feGaussianBlur stdDeviation="2" in="shadowOffsetOuter1" result="shadowBlurOuter1"></feGaussianBlur>
            <feColorMatrix values="0 0 0 0 0.0476475468   0 0 0 0 0.471106656   0 0 0 0 0.835406037  0 0 0 1 0" type="matrix" in="shadowBlurOuter1"></feColorMatrix>
        </filter>
    </defs>
    <g id="ico_tuofeng_shuiguo02" stroke="none" stroke-width="1" fill="none" fill-rule="evenodd">
        <rect id="Rectangle-2" fill-rule="nonzero" x="0" y="0" width="40" height="40"></rect>
        <rect id="Rectangle" fill="url(#linearGradient-1)" fill-rule="nonzero" x="0" y="1" width="40" height="38" rx="6"></rect>
        <g id="shuiguo-copy" transform="translate(10.000000, 7.000000)" fill-rule="nonzero">
            <g id="Shape">
                <use fill="black" fill-opacity="1" filter="url(#filter-4)" xlink:href="#path-3"></use>
                <use fill="url(#linearGradient-2)" xlink:href="#path-3"></use>
            </g>
            <g id="Shape">
                <use fill="black" fill-opacity="1" filter="url(#filter-6)" xlink:href="#path-5"></use>
                <use fill="url(#linearGradient-2)" xlink:href="#path-5"></use>
            </g>
            <g id="Shape">
                <use fill="black" fill-opacity="1" filter="url(#filter-8)" xlink:href="#path-7"></use>
                <use fill="url(#linearGradient-2)" xlink:href="#path-7"></use>
            </g>
        </g>
    </g>
</svg>