<?xml version="1.0" encoding="UTF-8"?>
<svg width="36px" height="36px" viewBox="0 0 36 36" version="1.1" xmlns="http://www.w3.org/2000/svg" xmlns:xlink="http://www.w3.org/1999/xlink">
    <!-- Generator: Sketch 51.2 (57519) - http://www.bohemiancoding.com/sketch -->
    <title>ico_my_editor@2x</title>
    <desc>Created with Sketch.</desc>
    <defs></defs>
    <g id="ico_my_editor" stroke="none" stroke-width="1" fill="none" fill-rule="evenodd">
        <circle id="Oval-3" fill="#F8F8F8" fill-rule="nonzero" cx="18" cy="18" r="18"></circle>
        <g id="bianji1" transform="translate(11.000000, 11.000000)" fill="#0099FF" fill-rule="nonzero">
            <path d="M6.42857143,13.5714286 L7.85714286,13.5714286 L7.85714286,15 L6.42857143,15 L6.42857143,13.5714286 Z M10,13.5714286 L11.4285714,13.5714286 L11.4285714,15 L10,15 L10,13.5714286 Z M13.5714286,13.5714286 L15,13.5714286 L15,15 L13.5714286,15 L13.5714286,13.5714286 Z M1.55940154,10.0184862 C1.37078586,10.2071319 1.25219083,10.4376182 1.19526076,10.6795259 L1.19516791,10.6794144 L0.0193743792,14.2873406 L0.0242021089,14.2922805 C-0.0328208045,14.4802947 0.0104430797,14.6922471 0.159062877,14.8408905 C0.304377537,14.9862468 0.510261635,15.0308175 0.695089404,14.9794869 L0.697651815,14.9821054 L4.3243351,13.8090595 L4.3218284,13.8065524 C4.56369765,13.7496505 4.79414746,13.6310181 4.98274458,13.4423724 L12.8571429,5.56672477 L9.43379982,2.14285714 L1.55940154,10.0184862 Z M14.6724259,3.50656914 C15.1738769,3.00587083 15.1046025,1.79019167 14.4301463,1.07540014 L14.1777316,0.806832663 L13.9170605,0.563084103 C13.2384503,-0.114530699 11.9960265,-0.167318217 11.4945754,0.333380086 L10.7142857,1.11252523 L13.8921534,4.28571429 L14.6724259,3.50656914 Z" id="Shape"></path>
        </g>
    </g>
</svg>