<?xml version="1.0" encoding="UTF-8"?>
<svg width="24px" height="24px" viewBox="0 0 24 24" version="1.1" xmlns="http://www.w3.org/2000/svg" xmlns:xlink="http://www.w3.org/1999/xlink">
    <!-- Generator: Sketch 51.2 (57519) - http://www.bohemiancoding.com/sketch -->
    <title>ico_my_password copy@2x</title>
    <desc>Created with Sketch.</desc>
    <defs></defs>
    <g id="ico_my_password-copy" stroke="none" stroke-width="1" fill="none" fill-rule="evenodd">
        <g id="mima-2" transform="translate(6.000000, 5.000000)" fill="#000000" fill-rule="nonzero">
            <path d="M11.1633054,6.53568227 L2.66698268,6.52160682 C2.66354406,5.40053302 2.35555193,3.66312274 3.33348598,2.60854378 C3.92838399,1.96600506 4.93082772,1.30451922 6.00048378,1.30451922 C7.58067782,1.30451922 8.76212722,2.47021772 9.3339849,3.91304803 C9.5007357,4.32897062 9.64738489,4.55317338 10.0009881,4.56531514 C10.8872001,4.59151735 10.8332575,3.6767035 10.6674914,3.26079591 C9.84109938,1.17784024 8.29082293,0 6.00048378,0 C4.44382996,0 3.58606616,0.312537782 2.66698267,1.30451923 C1.26040152,2.82014012 1.33005271,5.27046636 1.33349134,6.52160683 L0.837662207,6.53568228 C0.37420466,6.53568228 0,6.89819615 0,7.34420329 L0,14.19001 C0,14.6384305 0.375189294,15 0.837662207,15 L11.1623358,15 C11.6252935,15 11.9999981,14.6379508 11.9999981,14.19001 L11.9999981,7.34420327 C12.0009827,6.89771646 11.6257934,6.53568227 11.1633054,6.53568227 Z M10.6880777,13.0378773 C10.6880777,13.2184147 10.6233497,13.3732146 10.4918941,13.4998936 C10.361923,13.6275169 10.2045034,13.6915834 10.0200899,13.6915834 L2.00391802,13.6915834 C1.81950449,13.6915834 1.66208495,13.6284913 1.53261373,13.4998936 C1.4021579,13.3722552 1.33594535,13.2184147 1.33594535,13.0378773 L1.33594535,8.46430274 C1.33594535,8.10469691 1.63512126,7.81205062 2.00391802,7.81205062 L10.020105,7.81205062 C10.3884322,7.81205062 10.6880777,8.10469691 10.6880777,8.46430274 L10.6880777,13.0378773 Z" id="Shape"></path>
        </g>
    </g>
</svg>