<?xml version="1.0" encoding="UTF-8"?>
<svg width="44px" height="44px" viewBox="0 0 44 44" version="1.1" xmlns="http://www.w3.org/2000/svg" xmlns:xlink="http://www.w3.org/1999/xlink">
    <!-- Generator: Sketch 51.2 (57519) - http://www.bohemiancoding.com/sketch -->
    <title>ico_id@2x</title>
    <desc>Created with Sketch.</desc>
    <defs></defs>
    <g id="ico_id" stroke="none" stroke-width="1" fill="none" fill-rule="evenodd">
        <rect id="Rectangle-18" x="0" y="0" width="44" height="44"></rect>
        <g id="shenfenyanzheng" transform="translate(6.000000, 10.000000)" fill="#0099FF" fill-rule="nonzero">
            <path d="M2.38825731e-16,3.11545316 C0.00336117336,1.39702138 1.47219393,0.00636456212 3.28386637,0 L29.7161336,0 C31.5311672,0.00318228106 33,1.39702138 33,3.11545316 L33,21.8845468 C32.9966388,23.6029786 31.5278061,24.9936354 29.7161336,25 L3.28386637,25 C1.46883276,24.9968177 0,23.6029786 0,21.8845468 L2.38825731e-16,3.11545316 Z M18.1503361,7.8125 L18.1503361,9.375 L26.4020167,9.375 L26.4020167,7.8125 L18.1503361,7.8125 Z M19.8006722,12.5 L19.8006722,14.0625 L26.4020167,14.0625 L26.4020167,12.5 L19.8006722,12.5 Z M23.1013445,17.1875 L23.1013445,18.75 L26.4020167,18.75 L26.4020167,17.1875 L23.1013445,17.1875 Z M11.5489916,12.5 C13.3707476,12.5 14.8496639,11.0997963 14.8496639,9.375 C14.8496639,7.65020367 13.3707476,6.25 11.5489916,6.25 C9.72723569,6.25 8.24831941,7.65020367 8.24831941,9.375 C8.24831941,11.0997963 9.72723569,12.5 11.5489916,12.5 Z M11.5489916,14.0625 C8.53738032,14.0625 5.90894276,15.9909623 5.15603993,18.75 L17.9419434,18.75 C17.1890405,15.9909623 14.560603,14.0625 11.5489916,14.0625 Z" id="Shape"></path>
        </g>
    </g>
</svg>