<?xml version="1.0" encoding="UTF-8"?>
<svg width="40px" height="40px" viewBox="0 0 40 40" version="1.1" xmlns="http://www.w3.org/2000/svg" xmlns:xlink="http://www.w3.org/1999/xlink">
    <!-- Generator: Sketch 51.2 (57519) - http://www.bohemiancoding.com/sketch -->
    <title>ico_tuofeng_跑腿@2x</title>
    <desc>Created with Sketch.</desc>
    <defs>
        <linearGradient x1="50%" y1="0%" x2="50%" y2="99.4874458%" id="linearGradient-1">
            <stop stop-color="#FFE148" offset="0%"></stop>
            <stop stop-color="#FFA50C" offset="100%"></stop>
        </linearGradient>
        <linearGradient x1="50%" y1="100%" x2="50%" y2="1.83119581%" id="linearGradient-2">
            <stop stop-color="#FFFFFF" offset="0%"></stop>
            <stop stop-color="#FFFFFF" stop-opacity="0.697831748" offset="99.4309971%"></stop>
        </linearGradient>
        <path d="M11,21.9780523 C12.2910798,22.3988135 14.2535211,23.0600098 16.8356808,23.9015323 C17.4037559,24.0818585 18.0234742,24.0217498 18.5399061,23.6610972 C19.056338,23.3004448 19.4178404,22.6993573 19.57277,22.038161 C20.4507042,18.1310923 21.5868545,13.9835887 22,12 L11,21.9780523 Z" id="path-3"></path>
        <filter x="-59.1%" y="-45.8%" width="218.2%" height="208.3%" filterUnits="objectBoundingBox" id="filter-4">
            <feOffset dx="0" dy="1" in="SourceAlpha" result="shadowOffsetOuter1"></feOffset>
            <feGaussianBlur stdDeviation="2" in="shadowOffsetOuter1" result="shadowBlurOuter1"></feGaussianBlur>
            <feColorMatrix values="0 0 0 0 0.91703869   0 0 0 0 0.426435451   0 0 0 0 0  0 0 0 1 0" type="matrix" in="shadowBlurOuter1"></feColorMatrix>
        </filter>
        <path d="M22.6498173,12.128266 L12.7326431,22.0166271 C12.1163216,22.6175772 11.2758831,23 10.3794154,23 C9.48294764,23 8.64250915,22.672209 8.02618758,22.0166271 L0.966504269,14.9144893 C-0.32216809,13.6579572 -0.32216809,11.5819478 0.966504269,10.2707839 L10.8836784,0.382422794 C11.1077954,0.163895487 11.4439708,0 11.7801462,0 L21.6973204,0 C22.0334958,0 22.3696712,0.109263667 22.5937881,0.382422794 C22.817905,0.600950102 22.9859927,0.928741076 22.9859927,1.3111639 L22.9859927,11.2541568 C23.0420219,11.5819478 22.9299635,11.8551069 22.6498173,12.128266 Z M16.8227771,2.78622328 C15.9823386,2.78622328 15.1979294,3.11401425 14.637637,3.66033253 C13.4610232,4.80760094 13.4610232,6.71971497 14.637637,7.9216152 C15.1979294,8.46793348 15.9823386,8.79572445 16.8227771,8.79572448 C17.6632156,8.7957245 18.4476249,8.4679335 19.0079172,7.9216152 C20.1845311,6.77434679 20.1845311,4.86223276 19.0079172,3.66033253 C18.4476249,3.11401425 17.6632156,2.78622328 16.8227771,2.78622328 Z" id="path-5"></path>
        <filter x="-28.3%" y="-23.9%" width="156.5%" height="156.5%" filterUnits="objectBoundingBox" id="filter-6">
            <feOffset dx="0" dy="1" in="SourceAlpha" result="shadowOffsetOuter1"></feOffset>
            <feGaussianBlur stdDeviation="2" in="shadowOffsetOuter1" result="shadowBlurOuter1"></feGaussianBlur>
            <feColorMatrix values="0 0 0 0 0.91703869   0 0 0 0 0.426435451   0 0 0 0 0  0 0 0 1 0" type="matrix" in="shadowBlurOuter1"></feColorMatrix>
        </filter>
        <path d="M15.4411765,4.42857142 C14.8529412,5.04081631 14.8529412,6.02040817 15.4411765,6.57142858 C15.7352941,6.87755104 16.0882353,7 16.5,7 C16.9117647,7 17.2647059,6.81632653 17.5588235,6.57142858 C18.1470588,5.95918369 18.1470588,4.97959183 17.5588235,4.42857142 C17.2647059,4.12244896 16.9117647,4 16.5,4 C16.0882353,4 15.7352941,4.18367347 15.4411765,4.42857142 Z" id="path-7"></path>
        <filter x="-216.7%" y="-183.3%" width="533.3%" height="533.3%" filterUnits="objectBoundingBox" id="filter-8">
            <feOffset dx="0" dy="1" in="SourceAlpha" result="shadowOffsetOuter1"></feOffset>
            <feGaussianBlur stdDeviation="2" in="shadowOffsetOuter1" result="shadowBlurOuter1"></feGaussianBlur>
            <feColorMatrix values="0 0 0 0 0.91703869   0 0 0 0 0.426435451   0 0 0 0 0  0 0 0 1 0" type="matrix" in="shadowBlurOuter1"></feColorMatrix>
        </filter>
    </defs>
    <g id="ico_tuofeng_跑腿" stroke="none" stroke-width="1" fill="none" fill-rule="evenodd">
        <rect id="Rectangle-2" fill-rule="nonzero" x="0" y="0" width="40" height="40"></rect>
        <rect id="Rectangle" fill="url(#linearGradient-1)" fill-rule="nonzero" x="0" y="1" width="40" height="38" rx="6"></rect>
        <g id="chengweidaimai" transform="translate(7.000000, 8.000000)" fill-rule="nonzero">
            <g id="Shape">
                <use fill="black" fill-opacity="1" filter="url(#filter-4)" xlink:href="#path-3"></use>
                <use fill="url(#linearGradient-2)" xlink:href="#path-3"></use>
            </g>
            <g id="Shape">
                <use fill="black" fill-opacity="1" filter="url(#filter-6)" xlink:href="#path-5"></use>
                <use fill="url(#linearGradient-2)" xlink:href="#path-5"></use>
            </g>
            <g id="Shape">
                <use fill="black" fill-opacity="1" filter="url(#filter-8)" xlink:href="#path-7"></use>
                <use fill="url(#linearGradient-2)" xlink:href="#path-7"></use>
            </g>
        </g>
    </g>
</svg>