<?xml version="1.0" encoding="UTF-8"?>
<svg width="24px" height="24px" viewBox="0 0 24 24" version="1.1" xmlns="http://www.w3.org/2000/svg" xmlns:xlink="http://www.w3.org/1999/xlink">
    <!-- Generator: Sketch 51.2 (57519) - http://www.bohemiancoding.com/sketch -->
    <title>ico_question@2x</title>
    <desc>Created with Sketch.</desc>
    <defs></defs>
    <g id="ico_question" stroke="none" stroke-width="1" fill="none" fill-rule="evenodd">
        <rect id="Rectangle-4" fill-rule="nonzero" x="0" y="0" width="24" height="24"></rect>
        <g id="wenti" transform="translate(4.000000, 4.000000)" fill="#0099FF" fill-rule="nonzero">
            <path d="M7.92264135,9.55594406 C7.72374742,9.55594406 7.56905214,9.62937063 7.43645618,9.75174825 C7.30386023,9.8986014 7.23756225,10.0699301 7.23756225,10.2657343 C7.23756225,10.486014 7.30386023,10.6573427 7.43645618,10.7797203 C7.56905214,10.9265734 7.72374742,11 7.92264135,11 C8.12153528,11 8.27623057,10.9265734 8.40882652,10.8041958 C8.54142248,10.6573427 8.60772045,10.486014 8.60772045,10.2657343 C8.60772045,10.0454545 8.54142248,9.87412587 8.40882652,9.75174825 C8.27623057,9.6048951 8.12153528,9.55594406 7.92264135,9.55594406 Z M9.44749484,4.51398601 C9.09390562,4.17132867 8.62981978,4 8.07733663,4 C7.43645618,4 6.92817169,4.1958042 6.55248315,4.61188811 C6.17679461,5.0034965 6,5.56643357 6,6.27622378 L6.99446966,6.27622378 C6.99446966,5.86013986 7.06076764,5.56643357 7.21546292,5.32167832 C7.3701582,5.05244755 7.65744944,4.93006993 8.03313798,4.93006993 C8.32042922,4.93006993 8.5635218,5.02797203 8.71821708,5.1993007 C8.87291236,5.37062937 8.96130967,5.63986014 8.96130967,5.95804196 C8.96130967,6.2027972 8.87291236,6.42307692 8.71821708,6.64335664 L8.60772045,6.79020979 C8.03313798,7.35314685 7.70164809,7.74475524 7.59115146,8.01398601 C7.45855551,8.28321678 7.41435686,8.6013986 7.41435686,8.96853147 L7.41435686,9.11538462 L8.43092585,9.11538462 L8.43092585,8.96853147 C8.43092585,8.74825175 8.4751245,8.52797203 8.5635218,8.33216783 C8.6519191,8.16083916 8.76241573,7.98951049 8.91711102,7.84265734 C9.33699821,7.42657343 9.58009079,7.18181818 9.6684881,7.08391608 C9.88602216,6.73969639 10.0018362,6.32924253 9.99997798,5.90909091 C9.97787866,5.2972028 9.80108405,4.85664336 9.44749484,4.51398601 Z" id="Shape"></path>
            <path d="M15,0 L1,0 C0.45,0 0,0.45 0,1 L0,15 C0,15.55 0.45,16 1,16 L15,16 C15.55,16 16,15.55 16,15 L16,1 C16,0.45 15.55,0 15,0 Z M8,13.5 C4.95,13.5 2.5,11.05 2.5,8 C2.5,4.95 4.95,2.5 8,2.5 C11.05,2.5 13.5,4.95 13.5,8 C13.5,11.05 11.05,13.5 8,13.5 Z" id="Shape"></path>
        </g>
    </g>
</svg>