<?xml version="1.0" encoding="UTF-8"?>
<svg width="24px" height="24px" viewBox="0 0 24 24" version="1.1" xmlns="http://www.w3.org/2000/svg" xmlns:xlink="http://www.w3.org/1999/xlink">
    <!-- Generator: Sketch 51.2 (57519) - http://www.bohemiancoding.com/sketch -->
    <title>ico_my_service@2x</title>
    <desc>Created with Sketch.</desc>
    <defs></defs>
    <g id="ico_my_service" stroke="none" stroke-width="1" fill="none" fill-rule="evenodd">
        <rect id="Rectangle-3" x="0" y="0" width="24" height="24"></rect>
        <g id="fuwu" transform="translate(4.000000, 4.000000)" fill="#000000" fill-rule="nonzero">
            <path d="M8.00014835,16 C7.78514914,16 7.67772948,15.883872 7.46273027,15.7677268 L7.247811,15.6516851 C4.88325139,13.0973531 1.87385403,9.84639128 1.44391957,9.2658377 C0.369147371,7.87252641 -0.168286707,6.01487591 0.0467285042,4.27328431 C0.369147371,2.53167542 1.44391959,1.13845051 2.94862625,0.441768949 C3.80847919,0.0934540891 4.66833214,-0.138715525 5.52810513,0.0934540891 C5.95802361,0.209582083 6.17302282,0.557896943 6.0655232,0.906194534 C5.95802359,1.25449213 5.74310434,1.60289336 5.42068547,1.60289336 C4.77575179,1.48676536 4.13089806,1.60289336 3.59347998,1.83506297 C2.41119219,2.29948856 1.65883884,3.34441589 1.44391959,4.62158192 C1.22900033,5.89874795 1.65883885,7.29205924 2.51869178,8.22092768 C2.94862625,8.68526689 4.88325139,10.7751734 8.00014836,14.2583911 C9.28993577,12.8650799 12.9441868,8.91752288 13.4816369,8.22092768 C14.3414099,7.29205924 14.7713284,5.89873068 14.5564091,4.62158192 C14.3414099,3.34441589 13.5890566,2.29948856 12.5142844,1.83506297 C11.1170773,1.25449213 9.61237062,1.60289336 8.53759841,2.76393141 C7.78516512,3.46054388 5.95803959,5.31828074 5.31318586,6.13100392 C4.99076699,6.3631908 4.56084851,6.24706281 4.34583331,5.89874795 C4.13091405,5.66657833 4.13091405,5.31828074 4.34583331,5.0860075 L7.57024587,1.60289338 C9.07495253,0.0934367873 11.2245769,-0.370988781 13.0517024,0.441751664 C14.5564091,1.13843322 15.6311813,2.53165814 15.9536002,4.27326702 C16.1686154,6.01485864 15.6311813,7.87250914 14.4489095,9.14969244 C13.8040558,9.96241562 8.64501807,15.5355399 8.4300988,15.7677095 C8.3225992,15.883872 8.2150996,16 8.00014835,16 Z" id="Shape"></path>
        </g>
    </g>
</svg>