<?xml version="1.0" encoding="UTF-8"?>
<svg width="24px" height="24px" viewBox="0 0 24 24" version="1.1" xmlns="http://www.w3.org/2000/svg" xmlns:xlink="http://www.w3.org/1999/xlink">
    <!-- Generator: Sketch 51.2 (57519) - http://www.bohemiancoding.com/sketch -->
    <title>ico_clean@2x</title>
    <desc>Created with Sketch.</desc>
    <defs></defs>
    <g id="ico_clean" stroke="none" stroke-width="1" fill="none" fill-rule="evenodd">
        <rect id="Rectangle-3" fill-rule="nonzero" x="0" y="0" width="24" height="24"></rect>
        <g id="qingkong" transform="translate(6.000000, 5.000000)" fill="#8F8E93" fill-rule="nonzero">
            <path d="M11.5,2.5 L9,2.5 L9,1.5 C9,0.671572874 8.32842712,5.07265313e-17 7.5,0 L4.5,0 C3.67157288,-5.07265313e-17 3,0.671572874 3,1.5 L3,2.5 L0.500000002,2.5 C0.223857626,2.5 0,2.72385763 0,3 C0,3.27614238 0.223857626,3.5 0.500000002,3.5 L0.999999997,3.5 L0.999999997,11 C0.999999997,12.1045695 1.8954305,13 3,13 L9,13 C10.1045695,13 11,12.1045695 11,11 L11,3.5 L11.5,3.5 C11.7761424,3.5 12,3.27614238 12,3 C12,2.72385763 11.7761424,2.5 11.5,2.5 Z M3.99999999,1.5 C3.99999999,1.36739175 4.05267842,1.2402148 4.14644661,1.14644661 C4.2402148,1.05267842 4.36739176,1 4.5,1 L7.5,1 C7.63260824,1 7.7597852,1.05267842 7.85355339,1.14644661 C7.94732158,1.2402148 8.00000001,1.36739175 8.00000001,1.5 L8.00000001,2.5 L3.99999999,2.5 L3.99999999,1.5 Z M10,11 C10,11.5522847 9.55228475,12 9,12 L3,12 C2.44771525,12 2,11.5522847 2,11 L2,3.5 L10,3.5 L10,11 Z" id="Shape"></path>
            <path d="M4.50000001,5 C4.36739176,5 4.2402148,5.05267842 4.14644661,5.14644661 C4.05267842,5.2402148 4,5.36739176 4,5.50000001 L4,10.5 C4,10.7761424 4.22385763,11 4.5,11 C4.77614237,11 5,10.7761424 5,10.5 L5,5.50000001 C5,5.36739176 4.94732159,5.2402148 4.8535534,5.14644661 C4.75978521,5.05267842 4.63260825,5 4.50000001,5 Z M7.49999999,5 C7.36739175,5 7.24021479,5.05267842 7.1464466,5.14644661 C7.05267841,5.2402148 7,5.36739176 7,5.50000001 L7,10.5 C7,10.7761424 7.22385763,11 7.5,11 C7.77614237,11 8,10.7761424 8,10.5 L8,5.50000001 C8,5.36739176 7.94732158,5.2402148 7.85355339,5.14644661 C7.7597852,5.05267842 7.63260824,5 7.49999999,5 Z" id="Shape"></path>
        </g>
    </g>
</svg>