<?xml version="1.0" encoding="UTF-8"?>
<svg width="60px" height="60px" viewBox="0 0 60 60" version="1.1" xmlns="http://www.w3.org/2000/svg" xmlns:xlink="http://www.w3.org/1999/xlink">
    <!-- Generator: Sketch 51.2 (57519) - http://www.bohemiancoding.com/sketch -->
    <title>ico_service_shuifei@2x</title>
    <desc>Created with Sketch.</desc>
    <defs></defs>
    <g id="ico_service_shuifei" stroke="none" stroke-width="1" fill="none" fill-rule="evenodd">
        <rect id="Rectangle-8" fill-rule="nonzero" x="0" y="0" width="60" height="60"></rect>
        <g id="shuifei-2" transform="translate(21.000000, 17.000000)" fill="#34A1F0" fill-rule="nonzero">
            <path d="M19.9561403,15.5257477 L19.9122807,15.2742189 C19.9122807,15.2322974 19.9122807,15.1903759 19.8684211,15.106533 C19.8684211,14.9388471 19.8245614,14.8130827 19.8245614,14.6453968 C19.8245614,14.5196324 19.7807017,14.4357895 19.7368421,14.3100251 L19.6929824,14.1423392 C19.0789474,11.459365 17.4122807,8.31525477 14.6491228,4.83577274 C12.6315789,2.32048451 10.7894737,0.475939825 10.7017544,0.392096868 C10.7017544,0.392096868 10.6140351,0.308253935 10.4824561,0.224411003 C10.1754386,0.0148036589 9.86842105,-0.152882231 9.42982455,0.224411003 C9.34210526,0.308253935 9.21052632,0.392096892 9.16666666,0.434018346 C8.94736842,0.64362569 7.14912279,2.40432745 5.21929824,4.87769422 C2.54385963,8.35717625 0.833333316,11.4593651 0.263157895,14.1423392 L0.219298237,14.3100251 C0.175438579,14.4357895 0.175438579,14.5615539 0.131578947,14.6453968 C0.0877192897,14.8130827 0.0877192897,14.9388471 0.0877192897,15.106533 L0.0877192897,15.2742189 L0.0438596577,15.5676692 C0.0438596577,15.7772765 0,15.9868839 0,16.1964912 L0,16.7833918 C0,16.9091562 0.0438596577,17.0349206 0.0438596577,17.2026065 L0.0877192897,17.4122139 C0.131578947,17.5798997 0.131578947,17.7056642 0.175438605,17.87335 L0.219298237,18.0410359 C0.263157895,18.2087218 0.307017527,18.3344862 0.350877184,18.5021721 C0.350877184,18.5440936 0.394736842,18.6279365 0.394736842,18.669858 C0.4385965,18.7956224 0.482456132,18.9633083 0.526315789,19.0890727 C0.570175447,19.1729156 0.570175447,19.2148371 0.614035079,19.29868 C0.657894737,19.4244444 0.701754369,19.5502088 0.789473684,19.6759733 L0.921052632,19.9275021 L1.00877192,20.0532665 C1.05263158,20.095188 1.05263158,20.1790309 1.09649124,20.2209524 C1.18421053,20.3886383 1.31578947,20.5563241 1.40350876,20.72401 L1.44736842,20.7659315 C1.62280703,21.0174603 1.79824561,21.2270676 1.97368421,21.4785965 L2.0614035,21.5624394 C2.23684211,21.7720468 2.41228068,21.9816541 2.67543861,22.1912615 C2.89473684,22.4008688 3.1140351,22.5685547 3.33333334,22.7781621 L3.42105263,22.862005 C3.59649124,22.9877694 3.77192982,23.1554553 4.03508771,23.2812197 L4.16666666,23.3650627 C4.3859649,23.4908271 4.5614035,23.6165915 4.82456139,23.7423559 L4.91228071,23.7842773 C5,23.8261988 5.04385966,23.8681203 5.13157895,23.9100418 L5.30701755,23.9938847 C5.4385965,24.0777276 5.6140351,24.1196491 5.74561403,24.2034921 C5.87719297,24.2454135 6.05263158,24.3292565 6.18421053,24.3711779 L6.40350876,24.4550209 C6.49122805,24.4969424 6.57894737,24.4969424 6.66666666,24.5388638 C6.8859649,24.6227067 7.10526316,24.6646282 7.28070176,24.7065497 L7.41228071,24.7484712 C7.45614037,24.7484712 7.54385966,24.7903927 7.58771929,24.7903926 C7.80701753,24.8323141 8.02631579,24.8742356 8.20175439,24.916157 L8.28947368,24.916157 C8.37719297,24.916157 8.42105263,24.9580785 8.50877192,24.9580785 C8.68421053,25 8.90350876,25 9.07894737,25 L10.877193,25 C11.0526316,25 11.2719298,24.9580785 11.4473684,24.9580785 C11.5350877,24.9580785 11.5789474,24.916157 11.6666667,24.916157 L11.754386,24.916157 C11.9298246,24.8742356 12.1491228,24.8323141 12.4122807,24.7903926 C12.5,24.7903926 12.5438597,24.7484712 12.6315789,24.7484712 L12.7192982,24.7065497 C12.9385965,24.6646282 13.1578947,24.6227068 13.3333333,24.5388638 C13.4210526,24.4969423 13.5087719,24.4969423 13.5964912,24.4550209 L13.8157895,24.3711779 C13.9473684,24.3292565 14.122807,24.287335 14.254386,24.2034921 C14.4298246,24.1196491 14.5614035,24.0777276 14.6929824,23.9938847 L14.8684211,23.9100418 C14.9561403,23.8681203 15,23.8681203 15.0877193,23.8261988 L15.2631579,23.7423559 C15.4824561,23.6165915 15.7017544,23.4908271 15.877193,23.3650627 C15.9649123,23.3231412 16.0087719,23.2812197 16.0526316,23.2392982 C16.2280702,23.1135338 16.4473684,22.9877694 16.622807,22.8200835 L16.6666667,22.7781621 L16.754386,22.7362406 C16.9736842,22.5685547 17.1929825,22.3589474 17.4122807,22.14934 L17.4561403,22.1074185 C17.6315789,21.9397327 17.8508772,21.7301253 18.0263158,21.5205179 L18.1140351,21.436675 C18.3333333,21.1851462 18.5087719,20.9755388 18.6403509,20.72401 L18.6842105,20.6820885 C18.8157895,20.5144027 18.9035088,20.3467168 18.9912281,20.1790309 C19.0350877,20.095188 19.0789474,20.0532665 19.0789474,19.9694236 L19.122807,19.8436591 L19.254386,19.5921303 C19.2982456,19.4663659 19.3859649,19.3406015 19.4298246,19.2148371 L19.5175439,19.0052297 C19.5614035,18.8794653 19.6052632,18.7117794 19.6491228,18.586015 L19.6929824,18.4183291 C19.7368421,18.2506433 19.7807017,18.1248788 19.8245614,17.957193 L19.8684211,17.7895071 C19.9122807,17.6218212 19.9122807,17.4960568 19.9561403,17.3283709 L19.9561403,17.0768421 C19.9561403,16.9510777 20,16.8253133 20,16.6995489 L20,16.2384127 L20,16.0707268 C20,15.9868839 20,15.7772765 19.9561403,15.5257477 Z M16.8421053,16.0288053 L16.8421053,16.2384127 C16.8421053,16.3222556 16.8421053,16.4060986 16.7982456,16.44802 L16.754386,16.6576274 C16.754386,16.7833918 16.7105263,16.8672347 16.7105263,16.9510777 L16.6666667,17.0349206 C16.622807,17.160685 16.622807,17.244528 16.5789474,17.3283709 L16.5350877,17.4541353 C16.4912281,17.5379783 16.4912281,17.6637427 16.4473684,17.7475856 L16.4035088,17.87335 C16.3596491,17.9991144 16.3157895,18.0829574 16.2719298,18.1668003 C16.2280702,18.2087218 16.2280702,18.2925647 16.1842105,18.3344862 C16.1403509,18.4183291 16.0964912,18.5021721 16.0964912,18.5440936 C16.0087719,18.669858 15.9649123,18.7956224 15.877193,18.8794653 L15.4824561,19.382523 L15.4385965,19.4244444 C15.3070176,19.5921303 15.1754386,19.7178947 15.0438597,19.8436591 C14.8684211,20.011345 14.7368421,20.1371094 14.5614035,20.2628738 L14.4736842,20.3047953 C14.3421053,20.3886382 14.2105263,20.4724812 14.0789474,20.5982456 L13.9473684,20.6820885 C13.8157895,20.7659315 13.6403509,20.8497744 13.5087719,20.9336174 L13.5087719,21.0593818 C13.4210526,21.1013033 13.377193,21.1432247 13.3333333,21.1432247 L13.2017544,21.1851462 C13.1140351,21.2270677 12.9824562,21.2689891 12.8947368,21.3109106 C12.8070176,21.3528321 12.6754386,21.3947535 12.5877193,21.436675 C12.4561403,21.4785965 12.4122807,21.4785965 12.3245614,21.4785965 C12.0614035,21.4785965 11.8421053,21.3109106 11.754386,21.1013033 C11.7105263,20.9755388 11.7105263,20.807853 11.754386,20.6820885 C11.8421053,20.5563241 11.9298246,20.4305597 12.1052632,20.3886382 L12.1929824,20.3467168 C12.2807017,20.3047953 12.3684211,20.3047953 12.4561403,20.2628738 C12.5438596,20.2209524 12.5877193,20.1790309 12.6754386,20.1790309 L13.0263158,20.011345 C13.1578947,19.9275021 13.2894737,19.8855806 13.377193,19.8017377 L13.5087719,19.7178947 C13.6403509,19.6340518 13.7280702,19.5502088 13.8157895,19.5082874 L13.9035088,19.4663659 C14.0350877,19.382523 14.1666667,19.2567586 14.254386,19.1309941 C14.3859649,19.0052297 14.4736842,18.8794653 14.6052632,18.7537009 L14.6491228,18.7117794 C14.7807018,18.586015 14.8684211,18.4602506 14.9561403,18.2925647 C15.0438596,18.1668003 15.0877193,18.0829574 15.1315789,17.9991144 L15.1754386,17.87335 C15.2192983,17.7895071 15.2631579,17.7056641 15.2631579,17.6637427 C15.3070176,17.5798997 15.3070176,17.5379783 15.3508772,17.4541353 L15.3947368,17.3283709 C15.4385965,17.244528 15.4385965,17.160685 15.4824561,17.0768421 L15.5263158,16.9929991 C15.5263158,16.9091562 15.5701754,16.8253133 15.5701754,16.7414703 L15.5701754,16.6576274 C15.5701754,16.5737845 15.6140351,16.4899415 15.6140351,16.4060986 L15.6140351,16.2803342 L15.6140351,16.0707268 L15.6140351,15.735355 L15.6140351,15.3999833 L15.5701754,15.1484545 C15.5701754,15.02269 15.5701754,14.8550042 15.7017544,14.7292397 C15.7894737,14.6034753 15.9210526,14.5196324 16.0964912,14.5196324 C16.2280702,14.5196324 16.4035088,14.5196324 16.5350877,14.6453968 C16.6666667,14.7292397 16.7543859,14.8550042 16.754386,15.02269 L16.7982456,15.3161403 L16.7982456,15.7772765 L16.8421053,16.0288053 Z" id="Shape"></path>
        </g>
    </g>
</svg>