<?xml version="1.0" encoding="UTF-8"?>
<svg width="24px" height="24px" viewBox="0 0 24 24" version="1.1" xmlns="http://www.w3.org/2000/svg" xmlns:xlink="http://www.w3.org/1999/xlink">
    <!-- Generator: Sketch 51.2 (57519) - http://www.bohemiancoding.com/sketch -->
    <title>Material/Icons black/close Copy@2x</title>
    <desc>Created with Sketch.</desc>
    <defs></defs>
    <g id="Material/Icons-black/close-Copy" stroke="none" stroke-width="1" fill="none" fill-rule="evenodd">
        <g id="xie" transform="translate(4.000000, 4.000000)" fill="#8A8A8A" fill-rule="nonzero">
            <path d="M15.2604583,6.96747531 C14.8519948,6.96747531 14.5208804,7.29819939 14.5208804,7.7061634 L14.5208804,14.5225877 L1.47913766,14.5225877 L1.47913766,1.47737619 L8.27820219,1.47737619 C8.6866657,1.47737619 9.01776198,1.14665211 9.01776198,0.738688094 C9.01776198,0.330724079 8.6866657,0 8.27820219,0 L0.965879692,0 C0.433288954,0 0,0.4327602 0,0.964723186 L0,15.0352949 C0,15.5672398 0.433288954,16 0.965879692,16 L15.0341203,16 C15.5667291,16 16,15.5672218 16,15.0352949 L16,7.7061634 C16,7.29819939 15.6688856,6.96747531 15.2604402,6.96747531 L15.2604583,6.96747531 Z" id="Shape"></path>
            <path d="M4.07681513,8.85460418 C4.0616918,9.10136953 4.04730663,9.43624736 4.03412772,9.85000152 C4.01187482,10.5478437 4.00024426,11.2439395 4.00010023,11.2509071 C3.99680956,11.4505491 4.07466788,11.6429816 4.2158569,11.7841655 C4.35704593,11.9253495 4.54947986,12.0031995 4.74911922,11.9998992 C4.75606875,11.9997912 5.45215608,11.9881785 6.1500078,11.9658893 C6.56373893,11.9526922 6.8986307,11.9383429 7.14541106,11.9232194 C7.60062333,11.8953129 7.87539986,11.878461 8.10291597,11.6509241 L15.1972167,4.55655526 C15.2006914,4.55313447 15.2040762,4.54964165 15.2074789,4.54613084 C15.2129341,4.5408016 15.2183893,4.53541835 15.2238085,4.52999909 C16.2587305,3.49506456 16.2587305,1.81109718 15.2238085,0.776126644 C14.1888686,-0.258789884 12.5049036,-0.258807888 11.4694775,0.776666769 C11.4642564,0.781887983 11.4591073,0.7871272 11.4539401,0.792402426 C11.4504113,0.795787213 11.4468826,0.799244016 11.4434258,0.802718824 L4.34914311,7.89705163 C4.12157299,8.12458852 4.10473928,8.39936838 4.07681513,8.85460418 Z M5.55927968,8.77129882 L12.4668072,1.86368741 C12.4767675,1.85442139 12.4864635,1.84487535 12.4958836,1.83506075 C12.5014649,1.82929941 12.5069921,1.82350207 12.5121592,1.81831686 C12.9724126,1.35805789 13.7213056,1.35805789 14.181595,1.81831686 C14.6418303,2.27859384 14.6418303,3.02749589 14.181595,3.48779087 C14.1760677,3.49331815 14.1704325,3.49866539 14.1648513,3.50404865 C14.1550712,3.51345571 14.1455554,3.52313372 14.136315,3.53307139 L7.22869741,10.4407368 C6.90268159,10.4664828 6.21077118,10.4922468 5.48974836,10.510269 C5.50778833,9.7892554 5.53355201,9.09733659 5.55927968,8.77129882 Z" id="Shape"></path>
        </g>
    </g>
</svg>