<?xml version="1.0" encoding="UTF-8"?>
<svg width="44px" height="44px" viewBox="0 0 44 44" version="1.1" xmlns="http://www.w3.org/2000/svg" xmlns:xlink="http://www.w3.org/1999/xlink">
    <!-- Generator: Sketch 51.2 (57519) - http://www.bohemiancoding.com/sketch -->
    <title>ico_message_default@2x</title>
    <desc>Created with Sketch.</desc>
    <defs></defs>
    <g id="ico_message_default" stroke="none" stroke-width="1" fill="none" fill-rule="evenodd">
        <rect id="Rectangle-18" x="0" y="0" width="44" height="44"></rect>
        <g id="duanxin" transform="translate(6.000000, 8.000000)" fill="#C8C7CD" fill-rule="nonzero">
            <path d="M29.0181216,5.20086746e-16 L3.98602588,5.20086746e-16 C1.30661635,5.20086746e-16 0,1.31748604 0,3.95619111 L0,19.7739288 C0,22.4090839 1.22223445,23.657034 3.83550385,23.657034 L7.6710077,23.657034 L7.19741938,27.6827244 C7.19795785,28.1688668 7.46757773,28.6150084 7.89838735,28.8426201 C8.0910922,28.9466282 8.30689812,29.0007386 8.52602126,28.9999909 C8.7876305,29.0009688 9.04345671,28.923269 9.26009601,28.7770368 L16.8760481,23.653301 L29.1644961,23.653301 C31.8219201,23.653301 32.9999999,22.4087179 32.9999999,19.7700128 L32.9999999,3.95619111 C33.000367,1.31748604 31.6717651,0 29.0180849,0 M8.83466299,13.7424931 C7.77759535,13.7424931 6.9187646,12.8861766 6.9187646,11.8357451 C6.9187646,10.7853135 7.77759535,9.92537384 8.83466299,9.92537384 C9.89173063,9.92537384 10.7505247,10.781727 10.7505247,11.8357451 C10.7505247,12.8897632 9.88817036,13.7424931 8.83466299,13.7424931 M16.4983666,13.7424931 C15.4375185,13.7424931 14.5751642,12.8861766 14.5751642,11.8357451 C14.5751642,10.7853135 15.4376653,9.92537384 16.4983299,9.92537384 C17.5589945,9.92537384 18.4215324,10.781727 18.4215324,11.8357451 C18.4215324,12.8897632 17.5553976,13.7424931 16.4983299,13.7424931 M24.1730814,13.7424931 C23.1120865,13.7424931 22.253476,12.8861766 22.253476,11.8357451 C22.253476,10.7853135 23.1120498,9.92537384 24.1730814,9.92537384 C25.2339295,9.92537384 26.0962839,10.781727 26.0962839,11.8357451 C26.0962839,12.8897632 25.2339295,13.7424931 24.1730814,13.7424931" id="Shape"></path>
        </g>
    </g>
</svg>