<?xml version="1.0" encoding="UTF-8"?>
<svg width="24px" height="24px" viewBox="0 0 24 24" version="1.1" xmlns="http://www.w3.org/2000/svg" xmlns:xlink="http://www.w3.org/1999/xlink">
    <!-- Generator: Sketch 51.2 (57519) - http://www.bohemiancoding.com/sketch -->
    <title>ico_tuikuang@2x</title>
    <desc>Created with Sketch.</desc>
    <defs></defs>
    <g id="ico_tuikuang" stroke="none" stroke-width="1" fill="none" fill-rule="evenodd">
        <rect id="Rectangle-3" fill-rule="nonzero" x="0" y="0" width="24" height="24"></rect>
        <g id="tuikuan" transform="translate(2.000000, 3.000000)" fill="#FF0004" fill-rule="nonzero">
            <path d="M12.7980249,5.20795778 C12.6684885,5.0743024 12.4923362,4.99942714 12.3087891,5.0000033 C12.1243721,5.0000033 11.9505691,5.07398055 11.8198851,5.20795778 L9.99992811,7.07545709 L8.18030285,5.20863959 C8.05082656,5.07510041 7.87482374,5.00023793 7.69139878,5.00068513 C7.41198618,5.0000719 7.15980351,5.17273882 7.05270845,5.43798994 C6.94561338,5.70324106 7.00475551,6.00869343 7.20249474,6.21159378 L8.33022457,7.36897971 L7.22969292,7.36897971 C7.15586949,7.36897972 7.09602378,7.43048967 7.09602378,7.50636603 L7.09602378,8.65045651 C7.09602378,8.7261383 7.15572712,8.78784283 7.22969292,8.78784283 L9.30869606,8.78784283 L9.30869606,9.73727429 L7.22969292,9.73727429 C7.15586949,9.7372743 7.09602378,9.79878425 7.09602378,9.87466061 L7.09602378,11.0187511 C7.09602378,11.0947738 7.15572712,11.1561374 7.22969292,11.1561374 L9.30869606,11.1561374 L9.30869606,13.2892048 C9.30869606,13.6817662 9.61831969,14 10.0002598,14 C10.3821999,14 10.6918235,13.6817662 10.6918235,13.2892048 L10.6918235,11.1561374 L12.7708267,11.1561374 C12.8444608,11.1561374 12.9044958,11.0947738 12.9044958,11.0187511 L12.9044958,9.87466061 C12.9044958,9.79878425 12.8446501,9.7372743 12.7708267,9.73727429 L10.6918235,9.73727429 L10.6918235,8.78750192 L12.7708267,8.78750192 C12.8444608,8.78750192 12.9044958,8.7261383 12.9044958,8.6501156 L12.9044958,7.50602512 C12.9044958,7.43014875 12.8446501,7.36863881 12.7708267,7.3686388 L11.6696316,7.3686388 L12.7976932,6.21091195 C12.9272213,6.07791181 13,5.8974469 13,5.7092644 C13,5.5210819 12.9272213,5.340617 12.7976932,5.20761686 L12.7980249,5.20795778 Z" id="Shape"></path>
            <path d="M18.3101239,5.49662562 C17.8695368,4.4269651 17.2309574,3.45544022 16.4298655,2.63602932 C15.6304223,1.81385717 14.6833728,1.15886337 13.6411961,0.707343316 C12.5605066,0.238217596 11.3989212,-0.00234407662 10.2257739,1.72160664e-05 C9.04173127,1.72160664e-05 7.89257873,0.237965638 6.8106689,0.707343316 C5.76848838,1.15885607 4.82143757,1.81385077 4.02199953,2.63602932 C2.88717698,3.79677891 2.08493596,5.25597268 1.70307758,6.85390946 L1.26599996,5.84376954 C1.15669547,5.59344754 0.911818912,5.43505194 0.644921162,5.44203182 C0.378023413,5.4490117 0.14130341,5.62000197 0.0445297885,5.8757133 C-0.0189067243,6.04488484 -0.0144661742,6.2290504 0.0572170985,6.39463641 L1.4128555,9.52447298 C1.4424756,9.5951333 1.48379256,9.65998115 1.53497081,9.71613554 L1.53719107,9.71874319 L1.54924403,9.73178147 L1.56224851,9.74481972 L1.5641516,9.74644952 C1.59465676,9.77639831 1.62790364,9.80325127 1.66342976,9.82663488 C1.6761523,9.83504483 1.6891652,9.84298158 1.70244322,9.8504297 L1.70656658,9.85271141 C1.73352711,9.86770542 1.76143916,9.88041774 1.78966843,9.89117431 L1.79157152,9.89215218 C1.80362445,9.89671557 1.81631176,9.90095301 1.82995062,9.90519044 L1.83407398,9.90616831 L1.837563,9.90747214 L1.87340463,9.91692488 L1.87372182,9.91692488 L1.87911392,9.91822871 L1.88165137,9.91888062 C1.89928932,9.92264497 1.91706549,9.92568963 1.93493805,9.92800741 L1.93747552,9.92800741 L1.96126422,9.93126699 L1.96411886,9.93126699 C1.97784004,9.9324226 1.99158999,9.93318346 2.00535258,9.93354867 L2.00693851,9.93354867 C2.02979881,9.93402716 2.05266776,9.93326554 2.07544995,9.93126699 L2.07925614,9.93126699 C2.11960918,9.92745611 2.15953277,9.91981792 2.19851678,9.90845001 L2.19946833,9.90845001 L2.23943334,9.89541173 L2.24165362,9.89443386 L2.25370656,9.88987048 L2.28827947,9.87552839 L2.2895482,9.87487646 C2.2966559,9.87179959 2.30363962,9.86842862 2.31048225,9.86477181 C2.32701479,9.85644547 2.34320495,9.84741961 2.35901119,9.83771739 L2.3605971,9.83673952 C2.39675591,9.81457447 2.43037727,9.78914985 2.46050961,9.76144352 L4.97227858,7.50419315 C5.17976997,7.31807005 5.25292119,7.01907066 5.15575904,6.75423234 C5.05859688,6.48939403 4.81156802,6.31444895 4.53615252,6.31542892 C4.37597531,6.31542892 4.22150739,6.37540497 4.10066081,6.4836226 L2.90805426,7.55536834 C3.57572362,3.99689868 6.66032435,1.35632319 10.2260911,1.35632319 C14.3348744,1.35632319 17.6776618,4.78538802 17.6776618,9.00000859 C17.6776618,13.2146292 14.3348744,16.643694 10.2260911,16.643694 C8.4487577,16.6438249 6.72976181,15.9919025 5.37858948,14.805298 C5.101197,14.5614788 4.68413146,14.59428 4.44607265,14.8786383 C4.33200805,15.0152167 4.27546899,15.1927995 4.28891519,15.3722522 C4.30236139,15.5517048 4.38468926,15.7182988 4.51775593,15.8353213 C6.10891173,17.2325571 8.13316094,18.0001801 10.2260911,18 C11.4104509,18 12.5596034,17.7620515 13.6415133,17.2926739 C14.6836938,16.8411611 15.6307446,16.1861664 16.4301826,15.3639879 C18.0772536,13.6789739 19.0022129,11.388371 18.999996,9.00000859 C18.999996,7.7854938 18.7678184,6.6065083 18.3104411,5.49662562 L18.3101239,5.49662562 Z" id="Shape"></path>
        </g>
    </g>
</svg>