<?xml version="1.0" encoding="UTF-8"?>
<svg width="40px" height="40px" viewBox="0 0 40 40" version="1.1" xmlns="http://www.w3.org/2000/svg" xmlns:xlink="http://www.w3.org/1999/xlink">
    <!-- Generator: Sketch 51.2 (57519) - http://www.bohemiancoding.com/sketch -->
    <title>ico_tuofeng_food@2x</title>
    <desc>Created with Sketch.</desc>
    <defs>
        <linearGradient x1="50%" y1="0%" x2="50%" y2="99.4874458%" id="linearGradient-1">
            <stop stop-color="#FFE148" offset="0%"></stop>
            <stop stop-color="#FFA50C" offset="100%"></stop>
        </linearGradient>
        <linearGradient x1="50%" y1="100%" x2="50%" y2="1.83119581%" id="linearGradient-2">
            <stop stop-color="#FFFFFF" offset="0%"></stop>
            <stop stop-color="#FFFFFF" stop-opacity="0.697831748" offset="99.4309971%"></stop>
        </linearGradient>
        <path d="M1.59541142,15.9287501 L23.8956615,15.9287501 C24.7758011,15.9287501 25.4885365,15.2160146 25.4885365,14.3358751 C25.4885365,13.4557355 24.7758011,12.7430001 23.8956615,12.7430001 L23.7688403,12.7430001 C23.1448797,8.39049446 20.0174674,4.85471776 15.8856308,3.64230653 C15.9084587,3.49265745 15.9312865,3.34300836 15.9312865,3.18575 C15.9312865,1.42547095 14.5032791,0 12.7455365,0 C10.9877938,0 9.55978646,1.42547095 9.55978646,3.18575002 C9.55978646,3.34300838 9.58515071,3.49265747 9.60544212,3.64230655 C5.47360552,4.85471779 2.34619328,8.39049448 1.72223269,12.7430001 L1.59541142,12.7430001 C0.715271886,12.7430001 0.00253641079,13.4557356 0.00253641079,14.3358751 C0.00253643101,15.2160146 0.715271906,15.9287501 1.59541142,15.9287501 Z M12.7455365,1.59287501 C13.625676,1.59287501 14.3384115,2.30561049 14.3384115,3.18575002 C14.3384115,3.22886925 14.3181201,3.26691563 14.3130473,3.30749843 C13.8006894,3.23394209 13.2781858,3.18575002 12.7455365,3.18575002 C12.2128872,3.18575002 11.6903836,3.23647852 11.1780257,3.30749843 C11.1754893,3.2643792 11.1526615,3.22886925 11.1526615,3.18575002 C11.1526615,2.30561049 11.865397,1.59287501 12.7455365,1.59287501 Z M6.02908263,10.1254093 C7.05887125,8.47166007 8.66189195,7.21612961 10.5794294,6.6707982 C10.6200122,6.65557965 10.660595,6.64543395 10.7011778,6.63782468 C10.7037142,6.63782468 10.7062506,6.63528825 10.7113235,6.63528825 C10.7595156,6.62514254 10.8102441,6.62260611 10.8609726,6.62260611 C11.3099198,6.62260611 11.6751651,6.98531492 11.6751651,7.42918931 C11.6751651,7.82487164 11.3860126,8.1546069 11.0080852,8.2230904 L11.0080852,8.22816324 C9.50652153,8.65428268 8.2433818,9.61305137 7.4165072,10.8939461 C7.29475879,11.1754893 7.0132156,11.3733304 6.68601675,11.3733304 C6.24721519,11.3733304 5.88957925,11.0156945 5.88957925,10.576893 C5.88704282,10.4094889 5.94030775,10.254767 6.02908263,10.1254093 Z M23.8931251,17.5216251 L1.59287501,17.5216251 C0.712735475,17.5216251 0,18.2343605 0,19.1145001 C0,19.9946396 0.712735475,20.7073751 1.59287501,20.7073751 L23.8931251,20.7073751 C24.7732647,20.7073751 25.4860001,19.9946396 25.4860001,19.1145001 C25.4860001,18.2343605 24.7732646,17.5216251 23.8931251,17.5216251 Z" id="path-3"></path>
        <filter x="-25.5%" y="-26.6%" width="151.0%" height="162.8%" filterUnits="objectBoundingBox" id="filter-4">
            <feOffset dx="0" dy="1" in="SourceAlpha" result="shadowOffsetOuter1"></feOffset>
            <feGaussianBlur stdDeviation="2" in="shadowOffsetOuter1" result="shadowBlurOuter1"></feGaussianBlur>
            <feColorMatrix values="0 0 0 0 0.91703869   0 0 0 0 0.426435451   0 0 0 0 0  0 0 0 1 0" type="matrix" in="shadowBlurOuter1"></feColorMatrix>
        </filter>
    </defs>
    <g id="ico_tuofeng_food" stroke="none" stroke-width="1" fill="none" fill-rule="evenodd">
        <rect id="Rectangle-2" fill-rule="nonzero" x="0" y="0" width="40" height="40"></rect>
        <rect id="Rectangle" fill="url(#linearGradient-1)" fill-rule="nonzero" x="0" y="1" width="40" height="38" rx="6"></rect>
        <g id="meishi-2" transform="translate(7.000000, 7.000000)" fill-rule="nonzero">
            <g id="Shape">
                <use fill="black" fill-opacity="1" filter="url(#filter-4)" xlink:href="#path-3"></use>
                <use fill="url(#linearGradient-2)" xlink:href="#path-3"></use>
            </g>
        </g>
    </g>
</svg>