<?xml version="1.0" encoding="UTF-8"?>
<svg width="24px" height="24px" viewBox="0 0 24 24" version="1.1" xmlns="http://www.w3.org/2000/svg" xmlns:xlink="http://www.w3.org/1999/xlink">
    <!-- Generator: Sketch 51.2 (57519) - http://www.bohemiancoding.com/sketch -->
    <title>ico_my_card copy@2x</title>
    <desc>Created with Sketch.</desc>
    <defs></defs>
    <g id="ico_my_card-copy" stroke="none" stroke-width="1" fill="none" fill-rule="evenodd">
        <g id="yinhangqia" transform="translate(4.000000, 6.000000)" fill="#000000" fill-rule="nonzero">
            <path d="M0,1.59941606 L0,10.4005839 C0,11.2810511 0.652780175,12 1.45468853,12 L14.5453115,12 C15.3476133,12 16,11.2807007 16,10.4005839 L16,1.59941606 C16,0.71719708 15.3476133,0 14.5453115,0 L1.45468853,0 C0.652780159,2.06744597e-16 0,0.71719708 0,1.59941606 Z M1,11 L1,5 L14.9987377,5 L15,10.9995622 L1,10.9995622 L1,11 Z M15,3 L1,3 L1,1 L15,1 L15,3 Z" id="Shape"></path>
            <rect id="Rectangle" stroke="#000000" stroke-width="0.5" x="2.75" y="6.25" width="7.5" height="1.5" rx="0.75"></rect>
        </g>
    </g>
</svg>