<?xml version="1.0" encoding="UTF-8"?>
<svg width="24px" height="24px" viewBox="0 0 24 24" version="1.1" xmlns="http://www.w3.org/2000/svg" xmlns:xlink="http://www.w3.org/1999/xlink">
    <!-- Generator: Sketch 51.2 (57519) - http://www.bohemiancoding.com/sketch -->
    <title>ico_my_管家@2x</title>
    <desc>Created with Sketch.</desc>
    <defs></defs>
    <g id="ico_my_管家" stroke="none" stroke-width="1" fill="none" fill-rule="evenodd">
        <rect id="Rectangle-3" x="0" y="-1" width="24" height="24"></rect>
        <g id="iconbianhua-copy" transform="translate(5.000000, 5.000000)" fill="#081329" fill-rule="nonzero">
            <path d="M3.49991343,0 C1.56697683,0 0,1.56698846 0,3.4999394 C0,5.43297692 1.56697683,7 3.49991343,7 L7,7 L7,3.4999394 C7,1.56698846 5.43295392,0 3.49991343,0 Z M5.5,5.5 L3.49996427,5.5 C2.3971379,5.5 1.5,4.60288428 1.5,3.49997856 C1.5,2.39714431 2.3971379,1.5 3.49996427,1.5 C4.6028621,1.5 5.5,2.39714431 5.5,3.49997856 L5.5,5.5 Z M15,3.4999394 C15,1.56698846 13.4329172,0 11.4999913,0 C9.56697889,0 8,1.56698846 8,3.4999394 L8,7 L11.4999913,7 C13.4329172,7.00001731 15,5.43297692 15,3.4999394 Z M9.5,3.49997856 C9.5,2.39714431 10.3971615,1.5 11.5000357,1.5 C12.6029099,1.5 13.5,2.39714431 13.5,3.49997856 C13.5,4.60288428 12.6029099,5.5 11.5000357,5.5 L9.5,5.5 L9.5,3.49997856 Z M0,11.4999567 C0,13.4329979 1.56697683,15 3.49991343,15 C5.4329366,15 7,13.4329805 7,11.4999567 L7,8 L3.49991343,8 C1.56697683,8 0,9.56700215 0,11.4999567 Z M5.5,11.4999643 C5.5,12.6028385 4.6028621,13.5 3.49996427,13.5 C2.3971379,13.5 1.5,12.6028385 1.5,11.4999643 C1.5,10.3971615 2.3971379,9.5 3.49996427,9.5 L5.5,9.5 L5.5,11.4999643 Z M11.4999913,8 L8,8 L8,11.4999654 C8,13.4330017 9.56699621,15 11.4999913,15 C13.4329172,15 15,13.4329844 15,11.4999654 C15,9.56699827 13.4329172,8 11.4999913,8 Z M11.5000357,13.5 C10.3971615,13.5 9.5,12.6028385 9.5,11.4999643 L9.5,9.5 L11.5000357,9.5 C12.6029099,9.5 13.5,10.3971615 13.5,11.4999643 C13.5,12.6028385 12.6029099,13.5 11.5000357,13.5 Z" id="Shape"></path>
        </g>
    </g>
</svg>