<?xml version="1.0" encoding="UTF-8"?>
<svg width="44px" height="44px" viewBox="0 0 44 44" version="1.1" xmlns="http://www.w3.org/2000/svg" xmlns:xlink="http://www.w3.org/1999/xlink">
    <!-- Generator: Sketch 51.2 (57519) - http://www.bohemiancoding.com/sketch -->
    <title>ico_add@2x</title>
    <desc>Created with Sketch.</desc>
    <defs></defs>
    <g id="ico_add" stroke="none" stroke-width="1" fill="none" fill-rule="evenodd">
        <rect id="Rectangle-2" fill-rule="nonzero" x="0" y="0" width="44" height="44"></rect>
        <path d="M21.5331517,30.5359557 C16.5626047,30.5359557 12.5331731,26.505712 12.5331731,21.534524 C12.5331731,16.563336 16.5626047,12.5333915 21.5331517,12.5333915 C26.5037414,12.5333915 30.5331731,16.563336 30.5331731,21.534524 C30.5331731,26.505712 26.5037414,30.5359557 21.5331517,30.5359557 Z M21.5331517,13.6584903 C17.183875,13.6584903 13.6581864,17.1846918 13.6581864,21.534524 C13.6581864,25.8843563 17.183875,29.4106005 21.5331517,29.4106005 C25.8824284,29.4106005 29.408117,25.8843563 29.408117,21.534524 C29.408117,17.1846917 25.8824284,13.6584903 21.5331517,13.6584903 Z M24.908149,22.0972016 L22.0957011,22.0972016 L22.0957011,24.9100769 C22.0957011,25.2206052 21.8438509,25.4725409 21.5331944,25.4725409 C21.2225379,25.4725409 20.9707305,25.2206052 20.9707305,24.9100769 L20.9707305,22.0972016 L18.1581971,22.0972016 C17.8475406,22.0972016 17.5956904,21.8453087 17.5956904,21.534524 C17.5956904,21.223953 17.8475833,20.9720601 18.1581971,20.9720601 L20.9707305,20.9720601 L20.9707305,18.1590565 C20.9707305,17.8485282 21.2225806,17.5967208 21.5331944,17.5967208 C21.8438937,17.5967208 22.0957011,17.8484855 22.0957011,18.1590565 L22.0957011,20.9720601 L24.908149,20.9720601 C25.2188483,20.9720601 25.4706557,21.2239529 25.4706557,21.534524 C25.4706557,21.8453087 25.2188482,22.0972016 24.908149,22.0972016 Z" id="Shape" fill="#0099FF" fill-rule="nonzero"></path>
    </g>
</svg>