<?xml version="1.0" encoding="UTF-8"?>
<svg width="24px" height="24px" viewBox="0 0 24 24" version="1.1" xmlns="http://www.w3.org/2000/svg" xmlns:xlink="http://www.w3.org/1999/xlink">
    <!-- Generator: Sketch 51.2 (57519) - http://www.bohemiancoding.com/sketch -->
    <title>ico_my_dizhi@2x</title>
    <desc>Created with Sketch.</desc>
    <defs></defs>
    <g id="ico_my_dizhi" stroke="none" stroke-width="1" fill="none" fill-rule="evenodd">
        <rect id="Rectangle-3" x="0" y="0" width="24" height="24"></rect>
        <g id="dizhi" transform="translate(3.000000, 3.000000)" fill="#000000" fill-rule="nonzero">
            <path d="M17.4305248,3.4557377 L15.7436998,2.95409836 C15.4063348,1.1704918 14.0006473,0 12.2013673,0 C10.4583149,0 8.99639988,1.1147541 8.65903488,2.78688525 L6.12879742,3.51147541 C6.01634242,3.56721311 5.96011492,3.56721311 5.90388742,3.56721311 C5.79143242,3.56721311 5.73520492,3.56721311 5.62274992,3.51147541 L1.18077748,2.2295082 L0.899639988,2.2295082 C0.393592495,2.2295082 0,2.61967213 0,3.12131148 L0,14.547541 C0,14.9377049 0.281137496,15.3278689 0.618502492,15.3836066 L5.56652242,16.9442623 C5.67897742,17 5.73520492,17 5.84765992,17 C5.96011492,17 6.01634242,17 6.07256992,16.9442623 L11.8640023,15.2721311 C11.9764573,15.2163934 12.0326848,15.2163934 12.0889123,15.2163934 C12.2013673,15.2163934 12.2575948,15.2163934 12.3700498,15.2721311 L16.8120223,16.6098361 C16.9244773,16.6655738 16.9807048,16.6655738 17.0931598,16.6655738 C17.5992073,16.6655738 17.9927998,16.2754098 17.9927998,15.7737705 L17.9927998,4.29180328 C18.0490273,3.90163934 17.7678898,3.51147541 17.4305248,3.4557377 Z M5.84765992,4.5147541 L5.84765992,16.1081967 L0.899639988,14.547541 L0.899639988,3.12131148 L5.34161243,4.40327869 C5.56652242,4.45901639 5.67897742,4.45901639 5.84765992,4.5147541 C5.84765992,4.45901639 5.84765992,4.45901639 5.84765992,4.5147541 C5.84765992,4.45901639 5.84765992,4.5147541 5.84765992,4.5147541 Z M12.2013673,0.891803279 C13.7195098,0.891803279 14.9002873,2.00655738 14.9002873,3.51147541 C14.9002873,4.12459016 14.6753773,4.73770492 14.2255573,5.35081967 C13.6632823,6.18688525 12.8198698,7.35737705 12.2013673,8.30491803 C11.5828648,7.41311475 10.7394524,6.13114754 10.1771774,5.35081967 C9.72735737,4.73770492 9.50244737,4.06885246 9.50244737,3.51147541 C9.50244737,2.00655738 10.6269974,0.891803279 12.2013673,0.891803279 Z M17.1493873,15.8295082 L12.7074148,14.4918033 L12.5949598,14.4918033 L12.5949598,10.9245902 C12.5949598,10.6459016 12.4262773,10.4786885 12.1451398,10.4786885 C11.8640023,10.4786885 11.6953198,10.6459016 11.6953198,10.9245902 L11.6953198,14.4918033 L11.5828648,14.4918033 L6.74729991,15.8295082 L6.74729991,4.5147541 C6.74729991,4.40327869 6.69107241,4.40327869 6.69107241,4.29180328 L8.60280738,3.73442623 C8.65903488,4.5704918 8.99639988,5.23934426 9.38999237,5.85245902 C9.95226736,6.63278689 10.7956799,7.85901639 11.4141823,8.80655738 C11.5828648,9.0852459 11.8640023,9.19672131 12.2013673,9.19672131 C12.5387323,9.19672131 12.7636423,9.0852459 12.9885523,8.80655738 C13.5508273,7.9147541 14.4504673,6.63278689 15.0127423,5.85245902 C15.4063348,5.23934426 15.7999273,4.5704918 15.7999273,3.84590164 L17.1493873,4.23606557 L17.1493873,15.8295082 Z M12.2013673,4.96065574 C12.9885523,4.96065574 13.5508273,4.34754098 13.5508273,3.62295082 C13.5508273,2.84262295 12.9885523,2.2852459 12.2013673,2.2852459 C11.4141823,2.2852459 10.8519074,2.89836066 10.8519074,3.62295082 C10.8519074,4.40327869 11.4141823,4.96065574 12.2013673,4.96065574 Z M12.2013673,3.17704918 C12.4825048,3.17704918 12.6511873,3.3442623 12.6511873,3.62295082 C12.6511873,3.90163934 12.4825048,4.06885246 12.2013673,4.06885246 C11.9202298,4.06885246 11.7515473,3.90163934 11.7515473,3.62295082 C11.7515473,3.3442623 11.9202298,3.17704918 12.2013673,3.17704918 Z" id="Shape"></path>
        </g>
    </g>
</svg>