<?xml version="1.0" encoding="UTF-8"?>
<svg width="24px" height="24px" viewBox="0 0 24 24" version="1.1" xmlns="http://www.w3.org/2000/svg" xmlns:xlink="http://www.w3.org/1999/xlink">
    <!-- Generator: Sketch 51.2 (57519) - http://www.bohemiancoding.com/sketch -->
    <title>ico_my_dizhi copy@2x</title>
    <desc>Created with Sketch.</desc>
    <defs></defs>
    <g id="ico_my_dizhi-copy" stroke="none" stroke-width="1" fill="none" fill-rule="evenodd">
        <g id="dizhi-2" transform="translate(4.000000, 3.000000)" fill="#000000" fill-rule="nonzero">
            <path d="M7.49999999,11.5356387 C5.24410293,11.5356387 3.40957826,9.70948881 3.40957828,7.46436129 C3.40957829,5.21923377 5.24410293,3.39308386 7.49999999,3.39308386 C9.75643315,3.39308386 11.5909578,5.21923377 11.5909578,7.46436129 C11.5909578,9.70948881 9.75643317,11.5356387 7.50053609,11.5356387 L7.49999999,11.5356387 Z M7.49999999,4.75 C5.99571122,4.75 4.77287347,5.96725694 4.77287349,7.46436129 C4.7728735,8.96146565 5.99571123,10.1781936 7.49999999,10.1781936 C9.00428877,10.1781936 10.2276626,8.96146565 10.2276626,7.46436129 C10.2276626,5.96725694 9.00428878,4.75052901 7.49999999,4.75052901 L7.49999999,4.75 Z M7.49999999,19 C7.33112937,19 7.16118654,18.9375766 7.02984275,18.8127297 C6.75752591,18.5528914 6.74725624,18.1253806 7.00679056,17.8531017 C8.85096497,15.9296136 13.6367048,10.3130917 13.6367048,7.46436129 C13.6367048,4.09719902 10.8838456,1.35744515 7.49999999,1.35744515 C4.11722658,1.35744515 1.3638313,4.09772802 1.36383131,7.46436129 C1.36383131,9.06779708 2.90939957,11.8340016 5.71586848,15.2556521 C5.95443174,15.5466088 5.91100786,15.9740506 5.61937098,16.210519 C5.47959183,16.3243164 5.29947329,16.3781782 5.11919225,16.3600902 C4.93891121,16.3420022 4.77346473,16.2534691 4.65975697,16.1142388 C1.56754824,12.3450273 0,9.43493151 0,7.46489029 C0,3.34864684 3.36454611,0 7.49999999,0 C11.6354539,0 15,3.34864684 15,7.46436129 C15,11.4372425 8.27948535,18.4910903 7.99320943,18.7889242 C7.85918511,18.9285834 7.68012866,18.999471 7.49999999,18.999471 L7.49999999,19 Z" id="Shape"></path>
        </g>
    </g>
</svg>