<?xml version="1.0" encoding="UTF-8"?>
<svg width="240px" height="240px" viewBox="0 0 240 240" version="1.1" xmlns="http://www.w3.org/2000/svg" xmlns:xlink="http://www.w3.org/1999/xlink">
    <!-- Generator: Sketch 51.2 (57519) - http://www.bohemiancoding.com/sketch -->
    <title>icon_dialog_yuyin@2x</title>
    <desc>Created with Sketch.</desc>
    <defs></defs>
    <g id="icon_dialog_yuyin" stroke="none" stroke-width="1" fill="none" fill-rule="evenodd">
        <rect id="Rectangle-2" stroke="#979797" opacity="0.155570652" x="0.5" y="0.5" width="239" height="239"></rect>
        <g id="yuyin" transform="translate(92.000000, 79.000000)" fill="#696969" fill-rule="nonzero">
            <path d="M28.6777778,52.5801527 C37.3906528,52.5801527 44.4666667,45.526302 44.4666667,36.8026992 L44.4666667,15.7774535 C44.4666667,7.07088894 37.4077034,0 28.6777778,0 C19.9649028,0 12.8888889,7.07088894 12.8888889,15.7774535 L12.8888889,36.8026992 C12.8888889,45.526302 19.9478522,52.5801527 28.6777778,52.5801527 Z M58,37.9606992 L58,37.9265706 C58,35.7423488 56.2227461,33.9847328 54.0524455,33.9847328 C51.865056,33.9847328 50.1048911,35.759413 50.104891,37.9265706 C50.104891,49.5643776 40.6546847,58.9838343 29,59.0008985 C17.3453153,59.0008985 7.91219804,49.5643777 7.89510903,37.9265706 C7.89510903,35.7423488 6.11785509,33.9847328 3.94755456,33.9847328 C1.76016501,33.9847328 9.01176707e-08,35.759413 0,37.9265706 L0,37.9606992 C0,52.6018111 10.9027696,64.6832882 25.0524455,66.5944823 L25.0524455,76.1163243 L11.8597525,76.1163243 C9.67236296,76.1163243 7.91219804,77.8910045 7.91219804,80.0581622 C7.91219804,82.2423841 9.68945197,84 11.8597525,84 L46.1402475,84 C48.327637,84 50.087802,82.2253198 50.0878021,80.0581622 C50.0878021,77.8739403 48.3105481,76.1163244 46.1402475,76.1163243 L32.9475545,76.1163243 L32.9475545,66.5944823 C47.0972304,64.6832881 58,52.6188753 58,37.9606992 Z" id="Shape"></path>
        </g>
    </g>
</svg>