<?xml version="1.0" encoding="UTF-8"?>
<svg width="240px" height="240px" viewBox="0 0 240 240" version="1.1" xmlns="http://www.w3.org/2000/svg" xmlns:xlink="http://www.w3.org/1999/xlink">
    <!-- Generator: Sketch 51.2 (57519) - http://www.bohemiancoding.com/sketch -->
    <title>icon_dialog_hongbao@2x</title>
    <desc>Created with Sketch.</desc>
    <defs></defs>
    <g id="icon_dialog_hongbao" stroke="none" stroke-width="1" fill="none" fill-rule="evenodd">
        <g id="hongbao" transform="translate(89.000000, 84.000000)" fill="#696969" fill-rule="nonzero">
            <path d="M48.5788404,28.2521697 C48.6741678,29.0012858 48.8076262,29.7504018 48.8076262,30.5279653 C48.8076262,40.5793957 40.6094702,48.7343298 30.5047664,48.7343298 C20.4000625,48.7343298 12.2019065,40.5793957 12.2019065,30.5279653 C12.2019065,29.7504018 12.3353649,29.0107682 12.4306923,28.2521697 C7.03516174,24.791064 2.68823254,19.8601736 0,14 L0,64.9114433 C0,69.3776921 3.64150649,73 8.13142679,73 L52.8685732,73 C57.3584935,73 61,69.3776921 61,64.9114433 L61,14.0094825 C58.3213002,19.8601736 53.9648383,24.8005464 48.5788404,28.2521697 Z" id="Shape"></path>
            <path d="M15.2364558,22 C18.3315274,16.19299 24.4063265,12.1852012 31.5,12.1852012 C38.5936735,12.1852012 44.6684726,16.19299 47.7635442,22 C54.1170919,17.3353527 58.4425026,10.1099091 59,1.8087408 C57.6158686,0.742535699 55.9529885,2.70565819e-15 54.0594198,2.70565819e-15 L8.94058022,0 C7.04701153,0 5.38413142,0.742535699 4,1.8087408 C4.55749738,10.1003894 8.88290807,17.3353527 15.2364558,22 Z" id="Shape"></path>
            <path d="M40.2912041,32.13432 C41.2830914,32.13432 42,31.4276273 42,30.4498743 C42,29.4721214 41.2830914,28.7654287 40.2912041,28.7654287 L33.5345858,28.7654287 L40.3010248,22.095411 C40.9786507,21.4274411 40.9786507,20.3916038 40.3010248,19.723634 C39.6233988,19.0556642 38.5725875,19.0556642 37.8949616,19.723634 L30.5098207,26.9938565 L23.1050384,19.5009774 C22.4274125,18.8330075 21.3766012,18.8330075 20.6989752,19.5009774 C20.3650726,19.8301219 20.1883006,20.2560737 20.1883006,20.6917062 C20.1981213,21.1370195 20.3748933,21.5532905 20.6989752,21.8630736 L27.4948762,28.7557479 L20.7087959,28.7557479 C19.7169086,28.7557479 19,29.4624407 19,30.4401936 C19,31.4179466 19.7169086,32.1246393 20.7087959,32.1246393 L28.7912041,32.1246393 L28.7912041,35.1837476 L20.7087959,35.1837476 C19.7169086,35.1837476 19,35.900121 19,36.877874 C19,37.8556269 19.7169086,38.5623197 20.7087959,38.5623197 L28.7912041,38.5623197 L28.7912041,43.3155543 C28.7912041,44.2933073 29.5081127,45 30.5,45 C31.4918873,45 32.2087959,44.2933073 32.2087959,43.3155543 L32.2087959,38.5623197 L40.2912041,38.5623197 C41.2830914,38.5623197 42,37.8556269 42,36.877874 C42,35.900121 41.2830914,35.1837476 40.2912041,35.1837476 L32.2087959,35.1837476 L32.2087959,32.13432 L40.2912041,32.13432 Z" id="Shape"></path>
        </g>
        <rect id="Rectangle-2" stroke="#979797" opacity="0.155570652" x="0.5" y="0.5" width="239" height="239"></rect>
    </g>
</svg>