<?xml version="1.0" encoding="UTF-8"?>
<svg width="24px" height="24px" viewBox="0 0 24 24" version="1.1" xmlns="http://www.w3.org/2000/svg" xmlns:xlink="http://www.w3.org/1999/xlink">
    <!-- Generator: Sketch 51.2 (57519) - http://www.bohemiancoding.com/sketch -->
    <title>icon_service_room_default@2x</title>
    <desc>Created with Sketch.</desc>
    <defs></defs>
    <g id="icon_service_room_default" stroke="none" stroke-width="1" fill="none" fill-rule="evenodd">
        <g id="dingfang" transform="translate(4.000000, 4.000000)" fill="#8F8E93" fill-rule="nonzero">
            <path d="M0,16 L8.00004883,16 L8.00004883,0 L0,0 L0,16 Z M4.93697868,1.9779907 L6.93703972,1.9779907 L6.93703972,3.97797361 L4.93697868,3.97797361 L4.93697868,1.9779907 Z M4.93697868,5.99998779 L6.93703972,5.99998779 L6.93703972,8.00006836 L4.93697868,8.00006836 L4.93697868,5.99998779 Z M4.93697868,9.97803952 L6.93703972,9.97803952 L6.93703972,11.9780029 L4.93697868,11.9780029 L4.93697868,9.97803952 Z M0.999981689,1.9779907 L3.00004272,1.9779907 L3.00004272,3.97797361 L0.999981689,3.97797361 L0.999981689,1.9779907 Z M0.999981689,5.99998779 L3.00004272,5.99998779 L3.00004272,8.00006836 L0.999981689,8.00006836 L0.999981689,5.99998779 Z M0.999981689,9.97803952 L3.00004272,9.97803952 L3.00004272,11.9780029 L0.999981689,11.9780029 L0.999981689,9.97803952 Z M9.00003052,5.06600228 L16,5.06600228 L16,5.98197996 L9.00003052,5.98197996 L9.00003052,5.06600228 Z M9.00003052,16 L10.9999939,16 L10.9999939,12.5010114 L14.0000366,12.5010114 L14.0000366,16 L16,16 L16,7.08397349 L9.00003052,7.08397349 L9.00003052,16 Z" id="Shape"></path>
        </g>
    </g>
</svg>