<?xml version="1.0" encoding="UTF-8"?>
<svg width="240px" height="240px" viewBox="0 0 240 240" version="1.1" xmlns="http://www.w3.org/2000/svg" xmlns:xlink="http://www.w3.org/1999/xlink">
    <!-- Generator: Sketch 51.2 (57519) - http://www.bohemiancoding.com/sketch -->
    <title>icon_dialog_photo@2x</title>
    <desc>Created with Sketch.</desc>
    <defs></defs>
    <g id="icon_dialog_photo" stroke="none" stroke-width="1" fill="none" fill-rule="evenodd">
        <rect id="Rectangle-2" stroke="#979797" opacity="0.155570652" x="0.5" y="0.5" width="239" height="239"></rect>
        <g id="tupian" transform="translate(79.000000, 89.000000)" fill="#696969" fill-rule="nonzero">
            <path d="M13.9046952,38.1745562 C14.4260687,37.6426775 16.5199719,35.6962278 19.2193413,35.6962278 C22.0953049,35.6962278 24.1850035,37.5408284 24.5550105,37.891642 L33.0693763,45.6434911 C33.4214962,45.9577168 33.866478,46.1749953 34.351787,46.2696745 C34.6548173,46.2331267 34.9327357,46.0990756 35.1338472,45.8924556 L49.1184302,27.1597633 C49.4632095,26.6882396 51.935529,23.4743343 55.9929923,23.4743343 C59.8906797,23.4743343 62.2452699,26.1148669 62.6867554,26.6580622 L84,50.8000739 L84,7.06531065 C83.9953761,3.16791092 80.4773284,0.00831226593 76.1331465,0 L7.86264892,0 C3.51818822,0.00624288974 -5.57279115e-06,3.16766244 0,7.06531065 L0,51 L13.9046952,38.1745562 Z M28.5914506,14.0325444 C33.0035362,14.0325444 36.5802383,17.2413911 36.5802383,21.1997042 C36.5802383,25.1580172 33.0035362,28.366864 28.5914506,28.366864 C24.179365,28.366864 20.6026629,25.1580172 20.6026629,21.1997042 C20.6026629,17.2413911 24.179365,14.0325444 28.5914506,14.0325444 Z" id="Shape"></path>
            <path d="M59.4323707,30.5111036 L59.4323707,30.4834855 C59.3228442,30.3493406 58.1686038,29 56.618383,29 C55.3546161,29 54.0908491,30.3256679 53.7706948,30.7991207 L53.7454195,30.8346297 L39.6038675,50.5894488 L39.5701669,50.6328486 C39.389027,50.8616841 37.7292798,52.8580769 34.9363549,52.8580769 C32.4720094,52.8580769 30.5974218,51.2128283 30.243567,50.8853568 L21.5951885,42.686732 C21.3424352,42.4460602 20.5083489,41.8068989 19.7500888,41.8068989 C19.3288332,41.8068989 18.4104959,42.4539511 18.0271532,42.8761132 L17.9766025,42.9313493 L17.9218393,42.98264 L1,59.2654717 C2.17371951,62.1174392 5.1001205,63.9990222 8.36354868,64 L76.762828,64 C79.9040806,63.9996125 82.746181,62.2549783 84,59.5574343 L59.4323707,30.5111036 Z" id="Shape"></path>
        </g>
    </g>
</svg>