<?xml version="1.0" encoding="UTF-8"?>
<svg width="24px" height="24px" viewBox="0 0 24 24" version="1.1" xmlns="http://www.w3.org/2000/svg" xmlns:xlink="http://www.w3.org/1999/xlink">
    <!-- Generator: Sketch 51.2 (57519) - http://www.bohemiancoding.com/sketch -->
    <title>icon_service_wifi_repair_default@2x</title>
    <desc>Created with Sketch.</desc>
    <defs></defs>
    <g id="icon_service_wifi_repair_default" stroke="none" stroke-width="1" fill="none" fill-rule="evenodd">
        <g id="baoxiu" transform="translate(4.000000, 4.000000)" fill="#8F8E93" fill-rule="nonzero">
            <path d="M2.41216728,4.86151355 L1.02272309,4.86151355 L0,1.14697617 L1.09824331,0.453220399 L3.75297134,2.13257017 L3.75297134,3.45864209 L7.43554247,7.24613903 L8.12418457,6.67078253 C7.29090204,4.68231464 7.53090277,2.88200561 8.84738674,1.33769501 C9.12194756,1.01577697 9.50914874,0.688098973 10.0941105,0.410340658 C11.0182733,-0.028056671 12.1177966,-0.143895969 13.4368406,0.20362191 C13.7114014,0.570979671 13.7114014,0.570979671 13.6384412,0.718818775 C13.6032411,0.791778332 13.6032411,0.791778332 13.575721,0.831458096 C13.5356838,0.887015695 13.492744,0.940422891 13.4470807,0.991457123 C13.3446803,1.10729642 13.1891599,1.2730554 12.9773192,1.49129407 C12.6054781,1.87401173 12.0582765,2.41928841 11.3350743,3.1284041 L12.915239,4.75399421 C13.4237609,4.20463646 13.9415975,3.66397476 14.4685237,3.13224408 C14.6797244,2.92232536 14.8422849,2.76936629 14.9587652,2.67080689 C15.0145846,2.62196446 15.0745438,2.57806619 15.1379658,2.53960769 C15.1877358,2.50907057 15.2429322,2.48842647 15.3005263,2.47880806 C15.4797133,2.44730988 15.6563086,2.5463094 15.7229275,2.71560662 C16.3469294,4.20999752 15.9680483,6.61894286 14.0621225,7.87397521 C12.8608389,8.67013037 11.2281939,8.99396839 9.90850996,8.3194125 C9.88098987,8.34501235 9.84898979,8.37701215 9.81314966,8.41285192 C9.67042922,8.56005102 9.48290866,8.77956968 9.25250797,9.07076792 L10.0589104,9.90020286 C10.660785,9.52870179 11.4382104,9.61417297 11.9449961,10.1075616 L14.1165227,12.2048288 C14.8763279,12.9452382 14.9092286,14.1557452 14.1907629,14.9363322 L13.884202,15.2524903 C13.5398239,15.6099697 13.0671814,15.8154719 12.5708696,15.8235195 C12.0745578,15.8315671 11.5955011,15.6414965 11.239714,15.29537 L8.98882718,13.1225832 C8.50730717,12.653273 8.39979924,11.9196037 8.72642637,11.3318741 L7.96930409,10.5523589 L3.63393098,15.4124893 C3.32364985,15.7642446 2.8842115,15.9754466 2.41570311,15.9979917 C1.94719472,16.0205368 1.48950694,15.8525054 1.14688347,15.5321686 C1.06391468,15.4550321 0.988480582,15.3701695 0.921602786,15.2787301 C0.240640736,14.3481758 0.401921221,13.0349038 1.2864039,12.3046682 L5.92641791,8.47557155 L2.41216728,4.86151355 Z M10.0243503,4.85895357 L9.48290866,5.40039027 L10.8973129,6.81478165 L11.4387546,6.27270495 L10.0243503,4.85831357 L10.0243503,4.85895357 Z" id="Shape"></path>
        </g>
    </g>
</svg>