<?xml version="1.0" encoding="UTF-8"?>
<svg width="24px" height="24px" viewBox="0 0 24 24" version="1.1" xmlns="http://www.w3.org/2000/svg" xmlns:xlink="http://www.w3.org/1999/xlink">
    <!-- Generator: Sketch 51.2 (57519) - http://www.bohemiancoding.com/sketch -->
    <title>icon_service_clean_default@2x</title>
    <desc>Created with Sketch.</desc>
    <defs></defs>
    <g id="icon_service_clean_default" stroke="none" stroke-width="1" fill="none" fill-rule="evenodd">
        <g id="dasao" transform="translate(3.000000, 3.000000)" fill="#8F8E93" fill-rule="nonzero">
            <path d="M17.8023649,17 L16.6165541,17 C16.6165541,17 16.6165541,15.007419 14.045397,12.6830234 C14.7371199,14.0949287 15.1323902,15.8369557 15.2312078,17 L11.9664274,17 C11.5711571,16.3363707 11.0770693,15.5880947 10.1858108,14.8415117 C10.4822635,15.505141 10.7787162,16.253417 10.9763514,17 L0.0988175676,17 C0,16.6681853 0,16.253417 0,15.9199094 C0,13.1807454 1.78061655,10.7733961 4.45059122,9.44444444 L13.5494088,9.44444444 C16.2193834,10.7733961 18,13.0977917 18,15.9199094 C18,16.253417 17.9011824,16.5852317 17.8023649,17 Z M11.9978227,8.5 L6.94767947,8.5 C6.26835496,8.5 5.68421053,8.01 5.68421053,7.43666667 L5.68421053,6.37333333 C5.68421053,5.80166667 6.26648868,5.31 6.94767947,5.31 L8.21114841,5.31 L8.21114841,1.06 C8.20928213,0.49 8.79342656,0 9.47275107,0 C10.1520756,0 10.73622,0.49 10.73622,1.06333333 L10.73622,5.31333333 L11.999689,5.31333333 C12.6790135,5.31333333 13.2631579,5.80333333 13.2631579,6.37666667 L13.2631579,7.44 C13.2612916,8.01 12.6771472,8.5 11.9978227,8.5 Z" id="Shape"></path>
        </g>
    </g>
</svg>