<?xml version="1.0" encoding="UTF-8"?>
<svg width="240px" height="240px" viewBox="0 0 240 240" version="1.1" xmlns="http://www.w3.org/2000/svg" xmlns:xlink="http://www.w3.org/1999/xlink">
    <!-- Generator: Sketch 51.2 (57519) - http://www.bohemiancoding.com/sketch -->
    <title>icon_dialog_putong@2x</title>
    <desc>Created with Sketch.</desc>
    <defs>
        <linearGradient x1="-3.78641499%" y1="3.11400883%" x2="76.6707177%" y2="90.95457%" id="linearGradient-1">
            <stop stop-color="#FF0000" offset="0%"></stop>
            <stop stop-color="#F24100" offset="100%"></stop>
        </linearGradient>
    </defs>
    <g id="icon_dialog_putong" stroke="none" stroke-width="1" fill="none" fill-rule="evenodd">
        <rect id="Rectangle-2" stroke="#979797" opacity="0.155570652" x="0.5" y="0.5" width="239" height="239"></rect>
        <g id="hongbao" transform="translate(90.000000, 63.000000)" fill="url(#linearGradient-1)" fill-rule="nonzero">
            <path d="M47.782466,28.4937319 C47.8762307,29.2555448 48.0075012,30.0173578 48.0075012,30.8081003 C48.0075012,41.0298939 39.9437412,49.3230473 30.0046882,49.3230473 C20.0656353,49.3230473 12.0018753,41.0298939 12.0018753,30.8081003 C12.0018753,30.0173578 12.1331458,29.265188 12.2269105,28.4937319 C6.91983122,24.9739634 2.64416315,19.9594986 0,14 L0,65.7743491 C0,70.316297 3.58180966,74 7.99812471,74 L52.0018753,74 C56.4181903,74 60,70.316297 60,65.7743491 L60,14.0096432 C57.3652133,19.9594986 53.0801688,24.9836066 47.782466,28.4937319 Z" id="Shape"></path>
            <path d="M14.0321566,22 C17.0709542,16.19299 23.0353023,12.1852012 30,12.1852012 C36.9646977,12.1852012 42.9290458,16.19299 45.9678434,22 C52.2058721,17.3353527 56.4526389,10.1099091 57,1.8087408 C55.6410346,0.742535699 54.0083887,2.70565819e-15 52.1492485,2.70565819e-15 L7.85075149,0 C5.99161132,0 4.3589654,0.742535699 3,1.8087408 C3.54736106,10.1003894 7.79412793,17.3353527 14.0321566,22 Z" id="Shape"></path>
            <path d="M39.3654996,32.13432 C40.3142613,32.13432 41,31.4276273 41,30.4498743 C41,29.4721214 40.3142613,28.7654287 39.3654996,28.7654287 L32.9026473,28.7654287 L39.3748933,22.095411 C40.0230572,21.4274411 40.0230572,20.3916038 39.3748933,19.723634 C38.7267293,19.0556642 37.7216055,19.0556642 37.0734415,19.723634 L30.0093937,26.9938565 L22.9265585,19.5009774 C22.2783945,18.8330075 21.2732707,18.8330075 20.6251067,19.5009774 C20.3057216,19.8301219 20.1366354,20.2560737 20.1366354,20.6917062 C20.146029,21.1370195 20.3151153,21.5532905 20.6251067,21.8630736 L27.1255337,28.7557479 L20.6345004,28.7557479 C19.6857387,28.7557479 19,29.4624407 19,30.4401936 C19,31.4179466 19.6857387,32.1246393 20.6345004,32.1246393 L28.3654996,32.1246393 L28.3654996,35.1837476 L20.6345004,35.1837476 C19.6857387,35.1837476 19,35.900121 19,36.877874 C19,37.8556269 19.6857387,38.5623197 20.6345004,38.5623197 L28.3654996,38.5623197 L28.3654996,43.3155543 C28.3654996,44.2933073 29.0512383,45 30,45 C30.9487617,45 31.6345004,44.2933073 31.6345004,43.3155543 L31.6345004,38.5623197 L39.3654996,38.5623197 C40.3142613,38.5623197 41,37.8556269 41,36.877874 C41,35.900121 40.3142613,35.1837476 39.3654996,35.1837476 L31.6345004,35.1837476 L31.6345004,32.13432 L39.3654996,32.13432 Z" id="Shape"></path>
        </g>
        <text id="普通红包" fill="url(#linearGradient-1)" fill-rule="nonzero" font-family="PingFangSC-Medium, PingFang SC" font-size="14" font-weight="400">
            <tspan x="92" y="168">普通红包</tspan>
        </text>
    </g>
</svg>