<?xml version="1.0" encoding="UTF-8"?>
<svg width="24px" height="24px" viewBox="0 0 24 24" version="1.1" xmlns="http://www.w3.org/2000/svg" xmlns:xlink="http://www.w3.org/1999/xlink">
    <!-- Generator: Sketch 51.2 (57519) - http://www.bohemiancoding.com/sketch -->
    <title>icon_service_complaint@2x</title>
    <desc>Created with Sketch.</desc>
    <defs></defs>
    <g id="icon_service_complaint" stroke="none" stroke-width="1" fill="none" fill-rule="evenodd">
        <g id="tousu" transform="translate(4.000000, 4.000000)" fill="#FFFFFF" fill-rule="nonzero">
            <path d="M10.1399055,2.59492383 C10.1930342,2.70117557 10.2603306,2.79826767 10.3417946,2.88253629 C10.4214876,2.96130912 10.5295159,3.00344343 10.6393152,2.99977958 L13,2.99977958 L13,2.7378141 C12.998229,2.6553774 12.9876033,2.57477264 12.9681228,2.4959998 C12.9327037,2.38058844 12.8742621,2.27250477 12.798111,2.18090845 C12.677686,2.02153085 12.5466352,1.86948095 12.4049587,1.72842262 C12.2349469,1.55255768 12.0064935,1.32906265 11.7160567,1.07442487 C11.4256198,0.819787091 11.2290437,0.629266739 11.0714286,0.49919996 C10.9138135,0.369133182 10.7420307,0.244562182 10.6216057,0.158461639 C10.5242031,0.0906803598 10.4179457,0.0412183454 10.3046045,0.00824366907 C10.2142857,-0.00274788969 10.122196,-0.00274788969 10.0318772,0.00824366907 L10,0.00824366907 L10,1.93909416 C10.001771,2.03435433 10.0106257,2.15526148 10.0301063,2.24868973 C10.0584416,2.37509266 10.0726092,2.42455467 10.122196,2.54912567 L10.1399055,2.59492383 Z" id="Shape"></path>
            <path d="M10.7272267,8.15792058 C10.5138956,8.35552971 10.2301065,8.46488622 9.93653165,8.45913061 L3.31348199,8.45913061 C3.02382143,8.46488622 2.74394669,8.35552971 2.5364871,8.15792058 C2.32511318,7.96414853 2.20964038,7.69363506 2.21551188,7.41161038 C2.21159755,7.12766717 2.32707034,6.85331664 2.5364871,6.65762605 C2.74003236,6.45426131 3.02186426,6.34298627 3.31348199,6.34874188 L9.96393197,6.34874188 C10.259464,6.34298627 10.5432531,6.45426131 10.754627,6.65762605 C10.9679581,6.85331664 11.0873452,7.12574864 11.0834309,7.41161038 C11.0873452,7.6955536 10.9679581,7.96606706 10.754627,8.15792058 L10.7272267,8.15792058 Z M10.7272267,4.230679 C10.4297375,4.24027168 10.1361626,4.16736734 9.881731,4.0177216 C9.65274258,3.8872612 9.45506882,3.70883743 9.3004527,3.49588002 C9.15366526,3.28675968 9.0421068,3.05461692 8.97164882,2.81096295 C8.90706234,2.58841286 8.87183336,2.35818864 8.86596186,2.12604588 L8.86596186,0.000308862414 L2.09808192,0.000308862414 C1.81429286,-0.00544674322 1.53637529,0.06937613 1.29368671,0.213266271 C1.0470838,0.353319341 0.822009709,0.529824581 0.630207443,0.735107848 C0.440362344,0.938472581 0.283789066,1.16869681 0.168316274,1.42002492 C0.0606721452,1.65984182 0.00195716597,1.91884407 0,2.1816834 L0,13.71208 C0.00195716597,13.9998603 0.0802438049,14.281885 0.230945585,14.5274575 C0.385561697,14.7826227 0.579321128,15.0147654 0.804395215,15.2123746 C1.0294693,15.4080651 1.28194371,15.5711406 1.55203262,15.6996825 C1.76927804,15.809039 2.00805229,15.8723507 2.25074087,15.8838619 L7.14561297,15.8838619 L10.5863107,12.4554395 C10.40038,12.5954925 10.1713916,12.6683969 9.93653165,12.6607227 L3.31348199,12.6607227 C3.02186426,12.6664783 2.74198953,12.5552033 2.5364871,12.3518386 C2.33685617,12.1714962 2.22138338,11.9182496 2.21551188,11.6534917 C2.20964038,11.3695485 2.32707034,11.095198 2.5364871,10.8995074 C2.7380752,10.6923056 3.0199071,10.5771935 3.31348199,10.5848676 L9.96393197,10.5848676 C10.2614212,10.579112 10.5471674,10.6923056 10.754627,10.8995074 C10.9679581,11.095198 11.0873452,11.36763 11.0834309,11.6534917 C11.0834309,11.8645306 11.0149301,12.0717324 10.8877143,12.242482 L13.3204716,9.83663889 L13.3204716,4.230679 L10.7272267,4.230679 Z M11.5864226,13.0636151 L10.9503436,13.6813835 L10.3631938,14.2511884 L9.92283148,14.6771032 L9.6918859,14.8958162 C9.57249877,15.0051728 9.47659764,15.1356331 9.4041825,15.2795233 C9.36699635,15.3639388 9.33372453,15.4521915 9.3063242,15.5404441 L9.17323692,15.9375809 L9.04797829,16.3481474 C9.01274931,16.4843634 8.99122048,16.5879643 8.97752032,16.6493574 C8.94816283,16.7452842 8.95990582,16.8508036 9.01274931,16.9371377 C9.06167846,16.9927752 9.15170809,17.0119606 9.3004527,16.9927752 C9.40613967,16.9735899 9.51182663,16.9486489 9.61555643,16.9179524 C9.76625821,16.8872558 9.91695999,16.8488851 10.0637474,16.8009217 C10.2183635,16.7606325 10.365151,16.7049949 10.5178099,16.6570316 L10.8877143,16.4920375 L11.0971311,16.3692513 L11.2928477,16.2253611 L11.8936976,15.6363708 L12.4808474,15.07424 L13.1169264,14.4641458 L14.8372752,12.8257168 L13.3498291,11.3983266 L11.5864226,13.0636151 Z M15.9998318,11.4942533 C15.990046,11.3772227 15.96656,11.2621106 15.9293739,11.1508355 C15.8550015,10.9839229 15.7473574,10.8323587 15.6142701,10.7057353 C15.5085832,10.5848676 15.3813674,10.4831853 15.2365371,10.4102809 C15.1093213,10.3431322 14.9684054,10.30668 14.8235751,10.3009244 C14.6552588,10.2836576 14.4888997,10.3412137 14.3695126,10.4582443 L14.1463957,10.6424237 C14.0720233,10.715328 13.9917795,10.7843953 13.9095786,10.8477069 L15.412682,12.2731786 C15.4576969,12.242482 15.5007545,12.2079484 15.5379407,12.1695777 L15.6631993,12.0391173 L15.8236869,11.8817974 C15.9391597,11.7858707 16.0037462,11.6438991 15.9998318,11.4942533 Z" id="Shape"></path>
        </g>
    </g>
</svg>