<?xml version="1.0" encoding="UTF-8"?>
<svg width="24px" height="24px" viewBox="0 0 24 24" version="1.1" xmlns="http://www.w3.org/2000/svg" xmlns:xlink="http://www.w3.org/1999/xlink">
    <!-- Generator: Sketch 51.2 (57519) - http://www.bohemiancoding.com/sketch -->
    <title>icon_service_ticket@2x</title>
    <desc>Created with Sketch.</desc>
    <defs></defs>
    <g id="icon_service_ticket" stroke="none" stroke-width="1" fill="none" fill-rule="evenodd">
        <g id="shenpimoxing-fapiao" transform="translate(4.000000, 5.000000)" fill="#FFFFFF" fill-rule="nonzero">
            <path d="M16.0727281,6.30000967 C16.6909169,5.85001055 17,5.10001934 17,4.35000615 L17,1.50000439 C17,0.674998682 16.3045461,0 15.4545393,0 L1.54546072,0 C0.695453928,0 1.98971123e-10,0.674998682 0,1.50000439 L0,4.35000615 C0,5.09999736 0.309105727,5.85001055 0.927271904,6.30000967 C1.31364274,6.60000176 1.54546072,6.97500835 1.54546072,7.5 C1.54546072,8.02499165 1.31364274,8.39999824 0.927271904,8.69999033 C0.309105727,9.14998945 0,9.90000264 0,10.6499938 L0,13.4999956 C0,14.3250013 0.695453928,15 1.54546072,15 L15.4545393,15 C16.3045461,15 17,14.3250013 17,13.4999956 L17,10.6499938 C17,9.90000264 16.6908943,9.14998945 16.0727281,8.69999033 C15.6863573,8.39999824 15.4545393,8.02499165 15.4545393,7.5 C15.4545393,6.97500835 15.6863573,6.60000176 16.0727281,6.30000967 Z M10.8181798,8.24999121 C11.2818157,8.24999121 11.5908988,8.5499833 11.5908988,8.99998242 C11.5908988,9.44998154 11.2818157,9.74999561 10.8181798,9.74999561 L9.27271904,9.74999561 L9.27271904,11.249978 C9.27271904,11.6999771 8.96363595,11.9999912 8.5,11.9999912 C8.03636405,11.9999912 7.72728096,11.6999771 7.72728096,11.249978 L7.72728096,9.74999561 L6.18182024,9.74999561 C5.71818429,9.74999561 5.4091012,9.44998154 5.4091012,8.99998242 C5.4091012,8.5499833 5.71818429,8.24999121 6.18182024,8.24999121 L7.72728096,8.24999121 L7.72728096,7.5 L6.18182024,7.5 C5.71818429,7.5 5.4091012,7.19998594 5.4091012,6.74998682 C5.4091012,6.2999877 5.71818429,5.99999561 6.18182024,5.99999561 L7.72728096,5.99999561 L7.72728096,5.92500308 L5.7954494,4.04999209 C5.48636631,3.75 5.48636631,3.30000088 5.7954494,3.00000879 C6.10455513,2.69999473 6.56819108,2.69999473 6.87727417,3.00000879 L8.5,4.57500571 L10.1227258,3.00000879 C10.4318089,2.7000167 10.8954449,2.7000167 11.2045506,3.00000879 C11.5136337,3.30000088 11.5136337,3.75 11.2045506,4.05001406 L9.27271904,5.92500308 L9.27271904,5.99999561 L10.8181798,5.99999561 C11.2818157,5.99999561 11.5908988,6.30000967 11.5908988,6.75000879 C11.5908988,7.20000791 11.2818157,7.5 10.8181798,7.5 L9.27271904,7.5 L9.27271904,8.24999121 L10.8181798,8.24999121 Z" id="Shape"></path>
        </g>
    </g>
</svg>