<?xml version="1.0" encoding="UTF-8"?>
<svg width="160px" height="124px" viewBox="0 0 160 124" version="1.1" xmlns="http://www.w3.org/2000/svg" xmlns:xlink="http://www.w3.org/1999/xlink">
    <!-- Generator: Sketch 51.2 (57519) - http://www.bohemiancoding.com/sketch -->
    <title>icon_send@2x</title>
    <desc>Created with Sketch.</desc>
    <defs></defs>
    <g id="icon_send" stroke="none" stroke-width="1" fill="none" fill-rule="evenodd">
        <rect id="Rectangle-9" fill="#0099FF" x="0" y="0" width="160" height="124"></rect>
        <g id="fasong" transform="translate(38.000000, 26.000000)" fill="#FFFFFF" fill-rule="nonzero">
            <path d="M79.8605162,0.376781367 L3.17560598,31.2327799 C-1.14751006,32.9735187 -1.0411121,35.5003975 3.39960166,36.8761426 L21.9240418,42.6037347 L29.4558955,65.985787 C30.4414763,69.0461181 33.0230262,69.691876 35.2237834,67.4120697 L44.9451946,57.3719378 L64.1304219,72.0334504 C66.6223735,73.9426478 69.1871236,72.9375115 69.8591106,69.7761053 L83.8588386,3.98741051 C84.5308255,0.831619561 82.7388603,-0.785582905 79.8605162,0.376781367 Z M68.190343,15.2516749 L35.4813784,45.6416046 C34.8359099,46.3055638 34.4147584,47.156075 34.2774018,48.0730236 L32.8326299,62.2347757 C32.6702331,63.8239018 32.1438433,63.8912852 31.6566527,62.3639273 L25.3287756,42.4689678 C25.0932955,41.6652999 25.3979847,40.8007721 26.0847609,40.3239284 L67.5687551,14.3756902 C70.2119037,12.7191807 70.4918983,13.1122508 68.190343,15.2516749 Z" id="Shape"></path>
        </g>
    </g>
</svg>