<?xml version="1.0" encoding="UTF-8"?>
<svg width="80px" height="80px" viewBox="0 0 80 80" version="1.1" xmlns="http://www.w3.org/2000/svg" xmlns:xlink="http://www.w3.org/1999/xlink">
    <!-- Generator: Sketch 51.2 (57519) - http://www.bohemiancoding.com/sketch -->
    <title>icon_dialog_face@2x</title>
    <desc>Created with Sketch.</desc>
    <defs></defs>
    <g id="icon_dialog_face" stroke="none" stroke-width="1" fill="none" fill-rule="evenodd">
        <rect id="Rectangle-2-Copy" x="0" y="0" width="80" height="80"></rect>
        <g id="biaoqingbao" transform="translate(3.000000, 3.000000)" fill="#0099FF" fill-rule="nonzero">
            <path d="M23.2676358,31.6741975 L23.3865193,31.6741975 C26.0229032,31.6412241 28.1382932,29.4671063 28.1219504,26.8073008 C28.1056076,24.1474954 25.963664,22 23.3270776,22 C20.6904911,22 18.5485475,24.1474954 18.5322047,26.8073008 C18.5158619,29.4671063 20.631252,31.6412241 23.2676358,31.6741975 Z M49.2634788,31.6741975 L49.3823622,31.6741975 C52.0187461,31.6412241 54.1341361,29.4671063 54.1177934,26.8073009 C54.1014506,24.1474954 51.959507,22 49.3229205,22 C46.6863341,22 44.5443904,24.1474954 44.5280477,26.8073009 C44.5117049,29.4671063 46.6270949,31.6412241 49.2634788,31.6741975 Z M53.7810491,37.790764 C52.9601003,37.4279811 52.0261902,37.4279811 51.2052415,37.790764 C50.2589074,38.2080328 49.5368246,39.0166187 49.223851,40.0095184 C48.7276981,41.4187336 48.0622779,42.7613197 47.2424605,44.0072743 C44.7111879,47.5444872 40.6081263,49.5879266 36.2853712,49.464211 C31.7465864,49.3675563 27.508957,47.1525148 24.8131204,43.4675773 C23.9206011,42.2142271 23.2502123,40.8142746 22.8317299,39.3299 C22.0812261,37.4706549 19.9797075,36.5761121 18.1358345,37.3310221 C16.313153,38.3491085 15.5240169,40.574767 16.2931414,42.5281047 L16.9271864,43.8673529 C17.6103611,45.4687784 18.453504,46.9958117 19.4435522,48.4247946 C23.4461126,53.7505711 29.6609351,56.9149122 36.2853712,56.9999808 C42.7046018,57.008936 48.7303663,53.8800662 52.4535174,48.6046936 C53.9739027,46.877478 55.0910677,44.8283416 55.7228117,42.6080597 C56.0923961,41.7820021 56.0923961,40.8355761 55.7228117,40.0095184 C55.4187505,39.0244597 54.7122834,38.2172153 53.7810491,37.790764 Z" id="Shape"></path>
            <path d="M37.5,0 C16.8608374,0.171644328 0.171644328,16.8608374 0,37.5 C0.171644328,58.1391626 16.8608374,74.8283557 37.5,75 C58.1391626,74.8283557 74.8283557,58.1391626 75,37.5 C74.8389244,16.8564097 58.1435903,0.16107565 37.5,0 Z M67.6578947,37.5 C67.5398917,54.1130582 54.1128896,67.5576349 37.5,67.6973684 C20.8871104,67.5576349 7.46010832,54.1130582 7.3421053,37.5 C7.48154361,20.902355 20.902355,7.48154361 37.5,7.3421053 C54.097645,7.48154361 67.5184564,20.902355 67.6578947,37.5 Z" id="Shape"></path>
        </g>
    </g>
</svg>