<?xml version="1.0" encoding="UTF-8"?>
<svg width="24px" height="24px" viewBox="0 0 24 24" version="1.1" xmlns="http://www.w3.org/2000/svg" xmlns:xlink="http://www.w3.org/1999/xlink">
    <!-- Generator: Sketch 51.2 (57519) - http://www.bohemiancoding.com/sketch -->
    <title>icon_service_tel@2x</title>
    <desc>Created with Sketch.</desc>
    <defs></defs>
    <g id="icon_service_tel" stroke="none" stroke-width="1" fill="none" fill-rule="evenodd">
        <g id="dianhua" transform="translate(4.000000, 4.000000)" fill="#FFFFFF" fill-rule="nonzero">
            <path d="M15.9939708,13.5377101 C12.5784092,13.4016568 9.20223896,12.0312889 6.5942008,9.42660626 C3.97795611,6.81372767 2.60582276,3.4304269 2.47615944,0.00942461815 C2.12163694,-0.0348336768 1.75070137,0.0766316586 1.47988558,0.347099017 L0.836492905,0.989663891 C0.130730535,1.69451822 -0.154857029,2.71573739 0.0814912994,3.68614149 C0.680568661,6.14493565 1.84753853,8.49390368 3.58075961,10.5265069 L5.49288324,12.4361703 C7.51169189,14.1524086 9.84070771,15.3129595 12.2813325,15.9161837 C13.2529867,16.1571455 14.2804454,15.8702862 14.9894904,15.1621534 L15.6525788,14.4999182 C15.915188,14.239286 16.0284383,13.8819413 15.9939708,13.5377101 Z" id="Shape"></path>
            <path d="M3.87143545,6.53726791 L1,1.14051046 L1.90203841,0.238375515 C2.21983842,-0.079458505 2.73987481,-0.079458505 3.05767482,0.238375515 L6.03664865,3.21766815 C6.35444867,3.53550217 6.35444867,4.0555942 6.03664865,4.37342822 L3.87143545,6.53726791 Z M9.46182655,12.1298625 L14.8596116,15 L15.76165,14.0978651 C16.07945,13.780031 16.07945,13.259939 15.76165,12.942105 L12.7842812,9.96281235 C12.4664812,9.64497833 11.9464448,9.64497833 11.6286448,9.96281235 L9.46182655,12.1298625 Z" id="Shape"></path>
        </g>
    </g>
</svg>