<?xml version="1.0" encoding="UTF-8"?>
<svg width="24px" height="24px" viewBox="0 0 24 24" version="1.1" xmlns="http://www.w3.org/2000/svg" xmlns:xlink="http://www.w3.org/1999/xlink">
    <!-- Generator: Sketch 51.2 (57519) - http://www.bohemiancoding.com/sketch -->
    <title>icon_service_clean_rent@2x</title>
    <desc>Created with Sketch.</desc>
    <defs></defs>
    <g id="icon_service_clean_rent" stroke="none" stroke-width="1" fill="none" fill-rule="evenodd">
        <g id="icon2" transform="translate(2.500000, 4.000000)" fill="#FFFFFF" fill-rule="nonzero">
            <path d="M14.7417425,6.8865692 L11.9284291,3.47080808 C12.0397918,3.18395988 12.1009926,2.8718428 12.1009926,2.54532591 C12.1009926,1.13958673 10.967995,0 9.57033656,0 C8.17272044,0 7.03970163,1.13958673 7.03970163,2.54532591 C7.03970163,2.84059708 7.08986346,3.12404207 7.18179158,3.38770591 L4.5561833,6.8865692 L0,6.8865692 L0,17 L19,17 L19,6.8865692 L14.7417425,6.8865692 Z M7.86724501,4.42796138 C8.31681937,4.83964364 8.91444731,5.09065179 9.57033654,5.09065179 C10.2051417,5.09065179 10.7853018,4.85551113 11.2295682,4.4671834 L13.2222322,6.88654794 L6.02223268,6.88654794 L7.86724501,4.42796138 Z M5.16762053,14.4462086 L4.45714963,13.3288278 C4.31522886,13.1053644 4.18529872,12.9533685 4.06735919,12.8728187 C3.94939852,12.7922689 3.80840825,12.7519621 3.64440949,12.7519621 L3.24632924,12.7519621 L3.24632924,14.4462086 L2.6934494,14.4462086 L2.6934494,10.4210599 L3.9982492,10.4210599 C4.41472776,10.4210599 4.74092771,10.5154777 4.97684905,10.7042922 C5.21272809,10.8931491 5.33068876,11.1573235 5.33068876,11.4968577 C5.33068876,12.0547079 5.01368796,12.4167458 4.37972867,12.5830352 L4.37972867,12.5960312 C4.49764704,12.6428041 4.59951447,12.7095284 4.68520408,12.7960975 C4.7708937,12.8827518 4.88191798,13.0308979 5.01831926,13.2404932 L5.81999927,14.4462086 L5.16762053,14.4462086 Z M8.69227181,14.4462086 L6.38950105,14.4462086 L6.38950105,10.4210599 L8.59550093,10.4210599 L8.59550093,10.8835989 L6.94238089,10.8835989 L6.94238089,12.1724803 L8.47388174,12.1724803 L8.47388174,12.6324456 L6.94238089,12.6324456 L6.94238089,13.9862858 L8.69227181,13.9862858 L8.69227181,14.4462086 Z M12.9992532,14.4462086 L12.3441041,14.4462086 L10.1905923,11.3149347 C10.1297721,11.2266214 10.0809003,11.1391588 10.0440613,11.0525045 L10.0274817,11.0525045 C10.0422004,11.1426046 10.049602,11.3305469 10.049602,11.6163742 L10.049602,14.4462086 L9.50226278,14.4462086 L9.50226278,10.4210599 L10.1961329,10.4210599 L12.2915737,13.4977335 C12.3910938,13.6432633 12.450053,13.735937 12.4684936,13.7757759 L12.4795537,13.7757759 C12.4611131,13.6614492 12.4518928,13.4657007 12.4518928,13.1885304 L12.4518928,10.4210599 L12.9992532,10.4210599 L12.9992532,14.4462086 Z M16.6925345,10.8835989 L15.4568235,10.8835989 L15.4568235,14.4462086 L14.9011734,14.4462086 L14.9011733,10.8835989 L13.671003,10.8835989 L13.671003,10.4210599 L16.6925345,10.4210599 L16.6925345,10.8835989 Z" id="Shape"></path>
            <path d="M6,11.9396959 C6,11.6447896 5.90443246,11.4144371 5.71324109,11.2486682 C5.52207786,11.0829592 5.24386884,11 4.8786984,11 L4,11 L4,13 L4.86764539,13 C5.20342557,13 5.47612217,12.9024959 5.68567891,12.7075178 C5.89523565,12.5125397 6,12.2565691 6,11.9396959 Z" id="Shape"></path>
        </g>
    </g>
</svg>