<?xml version="1.0" encoding="UTF-8"?>
<svg width="240px" height="240px" viewBox="0 0 240 240" version="1.1" xmlns="http://www.w3.org/2000/svg" xmlns:xlink="http://www.w3.org/1999/xlink">
    <!-- Generator: Sketch 51.2 (57519) - http://www.bohemiancoding.com/sketch -->
    <title>icon_dialog_yputonghongbao@2x</title>
    <desc>Created with Sketch.</desc>
    <defs>
        <linearGradient x1="-3.78641499%" y1="3.11400883%" x2="76.6707177%" y2="90.95457%" id="linearGradient-1">
            <stop stop-color="#FF0000" offset="0%"></stop>
            <stop stop-color="#F24100" offset="100%"></stop>
        </linearGradient>
    </defs>
    <g id="icon_dialog_yputonghongbao" stroke="none" stroke-width="1" fill="none" fill-rule="evenodd">
        <g id="hongbaoicon" transform="translate(93.000000, 63.000000)" fill="url(#linearGradient-1)" fill-rule="nonzero">
            <path d="M47.3769993,78.1078515 L7.0233082,78.1078515 C3.17686781,78.1078515 0.0587117913,74.8987217 0.0587117913,70.9400595 L0.0587117913,26.3211865 C7.69692808,29.6942651 17.0912469,31.684803 27.251364,31.684803 C37.365904,31.684803 46.7215079,29.7121845 54.3415957,26.3666176 L54.3415957,70.9400595 C54.3415957,74.8987217 51.2234397,78.1078515 47.3769993,78.1078515 Z M34.5325423,46.8455265 C34.5303163,44.8464984 33.7565186,42.9302696 32.3814022,41.5184533 C31.0062857,40.1066371 29.1425122,39.314902 27.2001538,39.3174475 L27.0372027,39.3174475 C22.9925396,39.3124379 19.7097323,42.6828585 19.7048141,46.8455265 L19.7048141,55.7118744 C19.7097323,59.8745425 22.9925396,63.2449631 27.0372027,63.2399535 L27.2001538,63.2399535 C29.1425122,63.242499 31.0062857,62.4507639 32.3814022,61.0389476 C33.7565186,59.6271314 34.5303163,57.7109025 34.5325423,55.7118744 L34.5325423,46.8455265 Z M37.1395546,55.3773072 C36.7206546,55.3773072 36.3795943,55.6706596 36.3340171,56.0464417 L36.3053394,56.0464417 C35.9936007,61.032524 31.9732273,64.9125087 27.1184734,64.9125087 C22.2637195,64.9125087 18.2433461,61.032524 17.9316074,56.0464417 L17.9040562,56.0464417 C17.8601499,55.6501918 17.5235628,55.3579628 17.1366519,55.380172 C16.749741,55.4023812 16.4468168,55.731319 16.4459975,56.1301362 C16.4470026,56.2009274 16.4578321,56.2712075 16.4781575,56.3388455 C16.8622007,61.7354551 20.9861955,66.0523958 26.2225498,66.5391406 L26.2225498,70.935316 L24.2672393,70.935316 C23.9164176,70.9316172 23.5906961,71.1221187 23.4142396,71.4342014 C23.2377831,71.7462841 23.2377831,72.1318568 23.4142396,72.4439395 C23.5906961,72.7560223 23.9164176,72.9465237 24.2672393,72.9428249 L30.1330682,72.9428249 C30.4838899,72.9465237 30.8096114,72.7560223 30.9860679,72.4439395 C31.1625244,72.1318568 31.1625244,71.7462841 30.9860679,71.4342014 C30.8096114,71.1221187 30.4838899,70.9316172 30.1330682,70.935316 L28.1777577,70.935316 L28.1777577,66.5391406 C33.4189811,66.0519353 37.5449961,61.7276652 37.9230717,56.3255639 C37.9427696,56.2623577 37.9532958,56.1965057 37.95431,56.1301362 C37.95431,55.7144042 37.5895905,55.3773072 37.1395546,55.3773072 Z M0.0587117913,23.244728 L0.0587117913,7.16779201 C0.0587117913,3.20912979 3.17686781,7.27194452e-16 7.0233082,0 L47.3769993,0 C51.2234397,2.42398151e-16 54.3415957,3.20912979 54.3415957,7.16779201 L54.3415957,23.2974323 C46.9989651,27.0201516 37.5554844,29.2604028 27.251364,29.2604028 C16.8990035,29.2604028 7.41598852,26.9987536 0.0587117913,23.244728 Z" id="Shape"></path>
        </g>
        <text id="语音红包" fill="url(#linearGradient-1)" fill-rule="nonzero" font-family="PingFangSC-Medium, PingFang SC" font-size="14" font-weight="400">
            <tspan x="92" y="172">语音红包</tspan>
        </text>
        <rect id="Rectangle-2" stroke="#979797" opacity="0.155570652" x="0.5" y="0.5" width="239" height="239"></rect>
    </g>
</svg>