<?xml version="1.0" encoding="UTF-8"?>
<svg width="40px" height="40px" viewBox="0 0 40 40" version="1.1" xmlns="http://www.w3.org/2000/svg" xmlns:xlink="http://www.w3.org/1999/xlink">
    <!-- Generator: Sketch 51.2 (57519) - http://www.bohemiancoding.com/sketch -->
    <title>icon_service_金额@2x</title>
    <desc>Created with Sketch.</desc>
    <defs>
        <linearGradient x1="50%" y1="97.9226879%" x2="50%" y2="-1.37043155e-14%" id="linearGradient-1">
            <stop stop-color="#ED0031" offset="0%"></stop>
            <stop stop-color="#D44200" offset="100%"></stop>
        </linearGradient>
    </defs>
    <g id="icon_service_金额" stroke="none" stroke-width="1" fill="none" fill-rule="evenodd">
        <rect id="Rectangle-2" fill-rule="nonzero" x="0" y="0" width="40" height="40" rx="4"></rect>
        <g id="xingzhuang" transform="translate(8.000000, 7.000000)" fill="url(#linearGradient-1)" fill-rule="nonzero">
            <path d="M7.73750001,6.36835188 L17.2763889,6.34277192 C17.7180555,6.29445425 19.3416667,4.53512236 19.7152778,2.67773399 C20.075,0.919823217 18.9930555,0.362748825 16.2805555,0.362748825 C13.5611111,0.362748825 14.1236111,2.82837147 13.575,2.82837147 C13.2583333,2.82837147 12.9694444,0.93545542 11.7305556,0.132529291 C10.8472222,-0.441598396 9.62222223,1.03493298 8.44861112,1.04488074 C7.08194446,1.0576707 5.29583335,0.895664379 5.29583333,2.77436934 C5.29583333,4.33332499 7.27083332,6.36835185 7.73750001,6.36835188 Z M7.34583332,6.64120464 C6.9722222,6.64120464 6.66805554,6.8771086 6.66805556,7.16275132 C6.66805556,7.45123629 6.97222223,7.68287691 7.34583332,7.68287691 L17.775,7.68287691 C18.1513889,7.68287691 18.4527778,7.45123629 18.4527778,7.16275132 C18.4527778,6.87710857 18.1486111,6.64120464 17.775,6.64120464 L7.34583332,6.64120464 Z M18.3444444,8.59522833 L6.88055556,8.59522833 C3.15972221,10.6430452 0,14.6363591 0,19.8887748 C0,25.6783694 5.90416666,27 12.6458333,27 C19.3847222,27 25,25.6144195 25,19.8205616 C24.9972222,14.9546873 22.2694444,10.7482072 18.3444444,8.59522833 Z M14.9916667,16.0063073 C15.4638889,16.0063073 15.8444444,16.3402678 15.8444444,16.7538102 C15.8444444,17.1659316 15.4638889,17.499892 14.9916667,17.499892 L13.2861111,17.499892 L13.2861111,18.2473949 L14.9916667,18.2473949 C15.4638889,18.2473949 15.8444444,18.5813553 15.8444444,18.9948978 C15.8444444,19.4084403 15.4638889,19.7424007 14.9916667,19.7424007 L13.2861111,19.7424007 L13.2861111,21.3127252 C13.2861111,21.7262677 12.9041667,22.0602281 12.4333333,22.0602281 C11.9625,22.0602281 11.5805556,21.7262677 11.5805556,21.3127252 L11.5805556,19.7424007 L9.875,19.7424007 C9.40416666,19.7424007 9.02222222,19.4084402 9.02222222,18.9948978 C9.02222222,18.5813553 9.40416666,18.2473949 9.875,18.2473949 L11.5805556,18.2473949 L11.5805556,17.499892 L9.875,17.499892 C9.40416666,17.499892 9.02222222,17.1659316 9.02222222,16.7538102 C9.02222222,16.3402677 9.40416666,16.0063073 9.875,16.0063073 L11.5805556,16.0063073 L11.5805556,15.5700271 L9.18888889,13.5421058 C9.02873937,13.417622 8.93298743,13.2250629 8.92892796,13.0193189 C8.92486848,12.8135749 9.01294683,12.6172185 9.16805555,12.4862225 C9.51555853,12.1890194 10.0189639,12.1813139 10.375,12.4677481 L12.5,14.2711343 L14.625,12.4677481 C14.9807743,12.1820835 15.4833017,12.1897844 15.8305555,12.4862225 C15.986316,12.6167043 16.0750111,12.8130535 16.0712187,13.0189915 C16.0674263,13.2249295 15.971565,13.4177204 15.8111111,13.5421058 L13.2861111,15.6808736 L13.2861111,16.0063073 L14.9916667,16.0063073 Z" id="Shape"></path>
        </g>
    </g>
</svg>