<?xml version="1.0" encoding="UTF-8"?>
<svg width="24px" height="24px" viewBox="0 0 24 24" version="1.1" xmlns="http://www.w3.org/2000/svg" xmlns:xlink="http://www.w3.org/1999/xlink">
    <!-- Generator: Sketch 51.2 (57519) - http://www.bohemiancoding.com/sketch -->
    <title>icon_service_clean@2x</title>
    <desc>Created with Sketch.</desc>
    <defs></defs>
    <g id="icon_service_clean" stroke="none" stroke-width="1" fill="none" fill-rule="evenodd">
        <g id="dasao" transform="translate(5.000000, 5.000000)" fill="#FFFFFF" fill-rule="nonzero">
            <path d="M13.8462838,15 L12.9239865,15 C12.9239865,15 12.9239865,13.2691176 10.9241976,11.25 C11.4622044,12.4764706 11.7696368,13.9897059 11.8464949,15 L9.30722128,15 C8.99978885,14.4235294 8.61549831,13.7735294 7.9222973,13.125 C8.15287162,13.7014706 8.38344595,14.3514706 8.53716216,15 L0.0768581081,15 C0,14.7117647 0,14.3514706 0,14.0617647 C0,11.6823529 1.38492399,9.59117647 3.46157095,8.43676471 L10.5384291,8.43676471 C12.615076,9.59117647 14,11.6102941 14,14.0617647 C14,14.3514706 13.9231419,14.6397059 13.8462838,15 Z M8.99978885,7.5 L5.00021115,7.5 C4.46220439,7.5 3.9995777,7.06764706 3.9995777,6.56176471 L3.9995777,5.62352941 C3.9995777,5.11911765 4.46072635,4.68529412 5.00021115,4.68529412 L6.00084459,4.68529412 L6.00084459,0.935294118 C5.99936655,0.432352941 6.46199324,0 7,0 C7.53800676,0 8.00063345,0.432352941 8.00063345,0.938235294 L8.00063345,4.68823529 L9.00126689,4.68823529 C9.53927365,4.68823529 10.0019003,5.12058824 10.0019003,5.62647059 L10.0019003,6.56470588 C10.0004223,7.06764706 9.53779561,7.5 8.99978885,7.5 Z" id="Shape"></path>
        </g>
    </g>
</svg>