<?xml version="1.0" encoding="UTF-8"?>
<svg width="40px" height="40px" viewBox="0 0 40 40" version="1.1" xmlns="http://www.w3.org/2000/svg" xmlns:xlink="http://www.w3.org/1999/xlink">
    <!-- Generator: Sketch 51.2 (57519) - http://www.bohemiancoding.com/sketch -->
    <title>icon_service_户号@2x</title>
    <desc>Created with Sketch.</desc>
    <defs>
        <linearGradient x1="50%" y1="91.6816303%" x2="50%" y2="9.17667691%" id="linearGradient-1">
            <stop stop-color="#F66602" offset="0%"></stop>
            <stop stop-color="#F9BB2A" offset="100%"></stop>
        </linearGradient>
    </defs>
    <g id="icon_service_户号" stroke="none" stroke-width="1" fill="none" fill-rule="evenodd">
        <rect id="Rectangle-2" fill-rule="nonzero" x="0" y="0" width="40" height="40" rx="4"></rect>
        <g id="huhao" transform="translate(7.000000, 8.000000)" fill="url(#linearGradient-1)" fill-rule="nonzero">
            <path d="M26.2908902,9.73948714 L22.715423,6.88234267 L22.715423,2.64704615 C22.715423,1.63864221 21.8559357,0.798305602 20.8245509,0.798305602 L19.4149918,0.798305602 C18.383607,0.798305602 17.5241197,1.63864221 17.5241197,2.64704615 L17.5241197,2.71427307 L14.6706218,0.428557493 C13.9490038,-0.142852498 12.9169165,-0.142852498 12.1952984,0.428557493 L0.746927515,9.4033525 C-0.112559789,10.0756218 -0.250077757,11.2857065 0.437512086,12.1260431 C1.12510193,12.9663797 2.36276365,13.1008336 3.22225095,12.4285643 L13.3985806,4.42855976 L23.7468078,12.7646989 C24.6062951,13.4369682 25.8439568,13.3361278 26.5315466,12.4957912 C27.253516,11.6554546 27.115998,10.4453699 26.2908902,9.73948714 Z M3.80670232,13.0336067 L3.80670232,23.1512595 C3.80670232,24.1596634 4.66618962,25 5.69757439,25 L12.7109908,25 C12.6766113,24.8991596 12.6766113,24.7647057 12.6766113,24.6302519 L12.6766113,17.1680628 C12.6766113,16.1596589 13.6392371,15.3193222 14.8425193,15.3193222 L16.6990119,15.3193222 C17.9022941,15.3193222 18.8649199,16.1596589 18.8649199,17.1680628 L18.8649199,24.6302519 C18.8649199,24.7647057 18.8649199,24.8655461 18.8305404,25 L21.0308279,25 C22.0622127,25 22.9217,24.1596634 22.9217,23.1512595 L22.9217,13.2352874 L13.3985806,5.84032527 L3.80670232,13.0336067 Z" id="Shape"></path>
        </g>
    </g>
</svg>