<?xml version="1.0" encoding="UTF-8"?>
<svg width="40px" height="40px" viewBox="0 0 40 40" version="1.1" xmlns="http://www.w3.org/2000/svg" xmlns:xlink="http://www.w3.org/1999/xlink">
    <!-- Generator: Sketch 51.2 (57519) - http://www.bohemiancoding.com/sketch -->
    <title>icon_service_单位@2x</title>
    <desc>Created with Sketch.</desc>
    <defs>
        <linearGradient x1="50%" y1="4.20939094%" x2="50%" y2="98.1135898%" id="linearGradient-1">
            <stop stop-color="#0099FF" offset="0%"></stop>
            <stop stop-color="#3642FF" offset="100%"></stop>
        </linearGradient>
    </defs>
    <g id="icon_service_单位" stroke="none" stroke-width="1" fill="none" fill-rule="evenodd">
        <rect id="Rectangle-2" fill-rule="nonzero" x="0" y="0" width="40" height="40" rx="4"></rect>
        <g id="danwei" transform="translate(11.000000, 8.000000)" fill="url(#linearGradient-1)" fill-rule="nonzero">
            <path d="M18.5004686,6.77304173 L12.0016066,6.77304173 L12.0016066,1.56215131 C12.0042844,1.14929703 11.846298,0.750390538 11.5651359,0.457487168 C11.2839738,0.164583798 10.9037354,0 10.5074307,0 L1.49685366,0 C0.669433659,0.0027895559 0,0.700178532 0,1.56215131 L0,25 L20,25 L20,8.33519304 C20,7.47600982 19.3278886,6.77304173 18.5004686,6.77304173 Z M2.8839202,5.21089043 C3.06332842,4.88730194 3.39268978,4.68924347 3.74882849,4.68924347 L8.24742268,4.68924347 C8.60356139,4.68924347 8.93560048,4.88730194 9.11233097,5.21089043 C9.29173919,5.53447891 9.29173919,5.93059585 9.11233097,6.25139478 C8.93292275,6.57498326 8.60356139,6.77304173 8.24742268,6.77304173 L3.74882849,6.77304173 C3.39268978,6.77304173 3.06065069,6.57498326 2.8839202,6.25139478 C2.70718972,5.92780629 2.70718972,5.53168936 2.8839202,5.21089043 Z M9.50060249,10.9378487 C9.50060249,11.5124972 9.05342081,11.978353 8.50180747,11.978353 L4.00321328,11.978353 C3.64707457,11.978353 3.31503548,11.7802946 3.13830499,11.4567061 C2.95889677,11.1331176 2.95889677,10.7370007 3.13830499,10.4162017 C3.31771321,10.0926133 3.64707457,9.89455479 4.00321328,9.89455479 L8.50180747,9.89455479 C9.05342081,9.89734434 9.50060249,10.3632002 9.50060249,10.9378487 Z M9.36671576,16.6675965 C9.18730754,16.991185 8.85794618,17.1892435 8.50180747,17.1892435 L4.00321328,17.1892435 C3.64707457,17.1892435 3.31503548,16.991185 3.13830499,16.6675965 C2.95889677,16.344008 2.95889677,15.9478911 3.13830499,15.6270922 C3.31771321,15.3035037 3.64707457,15.1054452 4.00321328,15.1054452 L8.50180747,15.1054452 C8.85794618,15.1054452 9.18998527,15.3035037 9.36671576,15.6270922 C9.54612398,15.9478911 9.54612398,16.3467976 9.36671576,16.6675965 Z" id="Shape"></path>
        </g>
    </g>
</svg>