<?xml version="1.0" encoding="UTF-8"?>
<svg width="240px" height="240px" viewBox="0 0 240 240" version="1.1" xmlns="http://www.w3.org/2000/svg" xmlns:xlink="http://www.w3.org/1999/xlink">
    <!-- Generator: Sketch 51.2 (57519) - http://www.bohemiancoding.com/sketch -->
    <title>icon_dialog_xiangji@2x</title>
    <desc>Created with Sketch.</desc>
    <defs></defs>
    <g id="icon_dialog_xiangji" stroke="none" stroke-width="1" fill="none" fill-rule="evenodd">
        <g id="xiangji" transform="translate(86.000000, 90.000000)" fill="#696969" fill-rule="nonzero">
            <path d="M22.5,35.1923077 C22.5,43.6384615 29.53125,50.2076923 37.5,50.2076923 C45.46875,50.2076923 52.5,43.1692308 52.5,35.1923077 C52.5,27.2153846 45.9375,20.1769231 37.5,20.1769231 C29.0625,20.1769231 22.5,26.7461538 22.5,35.1923077 Z M70.3125,9.38461538 L53.90625,9.38461538 C52.96875,4.69230769 51.5625,0 46.875,0 L28.125,0 C23.4375,0 22.5,4.69230769 21.09375,9.38461538 L4.6875,9.38461538 C1.875,9.38461538 0,11.2615385 0,14.0769231 L0,56.3076923 C0,59.1230769 1.875,61 4.6875,61 L70.3125,61 C73.125,61 75,59.1230769 75,56.3076923 L75,14.0769231 C75,11.2615385 73.125,9.38461538 70.3125,9.38461538 Z M37.5,55.8384615 C25.78125,55.8384615 16.875,46.4538462 16.875,35.1923077 C16.875,23.9307692 26.25,14.5461538 37.5,14.5461538 C48.75,14.5461538 58.125,23.9307692 58.125,35.1923077 C58.125,46.4538462 49.21875,55.8384615 37.5,55.8384615 Z M70.3125,23.4615385 L60.9375,23.4615385 L60.9375,18.7692308 L70.3125,18.7692308 L70.3125,23.4615385 Z" id="Shape"></path>
        </g>
        <rect id="Rectangle-2" stroke="#979797" opacity="0.155570652" x="0.5" y="0.5" width="239" height="239"></rect>
    </g>
</svg>