<?xml version="1.0" encoding="UTF-8"?>
<svg width="24px" height="24px" viewBox="0 0 24 24" version="1.1" xmlns="http://www.w3.org/2000/svg" xmlns:xlink="http://www.w3.org/1999/xlink">
    <!-- Generator: Sketch 51.2 (57519) - http://www.bohemiancoding.com/sketch -->
    <title>icon_service_ticket_default@2x</title>
    <desc>Created with Sketch.</desc>
    <defs></defs>
    <g id="icon_service_ticket_default" stroke="none" stroke-width="1" fill="none" fill-rule="evenodd">
        <g id="shenpimoxing-fapiao" transform="translate(4.000000, 6.000000)" fill="#8F8E93" fill-rule="nonzero">
            <path d="M15.1272735,5.46000838 C15.7090983,5.07000914 16,4.42001676 16,3.77000533 L16,1.30000381 C16,0.584998857 15.3454551,0 14.5454487,0 L1.45455127,0 C0.654544874,0 1.87266939e-10,0.584998857 0,1.30000381 L0,3.77000533 C0,4.41999771 0.290923037,5.07000914 0.872726498,5.46000838 C1.23636964,5.72000152 1.45455127,6.04500724 1.45455127,6.5 C1.45455127,6.95499276 1.23636964,7.27999848 0.872726498,7.53999162 C0.290923037,7.92999086 0,8.58000229 0,9.22999467 L0,11.6999962 C0,12.4150011 0.654544873,13 1.45455127,13 L14.5454487,13 C15.3454551,13 16,12.4150011 16,11.6999962 L16,9.22999467 C16,8.58000229 15.709077,7.92999086 15.1272735,7.53999162 C14.7636304,7.27999848 14.5454487,6.95499276 14.5454487,6.5 C14.5454487,6.04500724 14.7636304,5.72000152 15.1272735,5.46000838 Z M9.64706399,7.22926588 C10.0705944,7.22926588 10.3529412,7.48291792 10.3529412,7.86340527 C10.3529412,8.24389262 10.0705944,8.49756324 9.64706399,8.49756324 L8.23528895,8.49756324 L8.23528895,9.76584203 C8.23528895,10.1463294 7.95294221,10.4 7.52941176,10.4 C7.10588132,10.4 6.82353458,10.1463294 6.82353458,9.76584203 L6.82353458,8.49756324 L5.41175954,8.49756324 C4.98822909,8.49756324 4.70588235,8.24389262 4.70588235,7.86340527 C4.70588235,7.48291792 4.98822909,7.22926588 5.41175954,7.22926588 L6.82353458,7.22926588 L6.82353458,6.59512648 L5.41175954,6.59512648 C4.98822909,6.59512648 4.70588235,6.34145586 4.70588235,5.96096851 C4.70588235,5.58048116 4.98822909,5.32682912 5.41175954,5.32682912 L6.82353458,5.32682912 L6.82353458,5.26342075 L5.0588106,3.6780444 C4.77646387,3.42439236 4.77646387,3.04390501 5.0588106,2.79025297 C5.34117802,2.53658234 5.76470847,2.53658234 6.0470552,2.79025297 L7.52941176,4.1219587 L9.01176832,2.79025297 C9.29411506,2.53660092 9.71764551,2.53660092 10.0000129,2.79025297 C10.2823597,3.04390501 10.2823597,3.42439236 10.0000129,3.67806298 L8.23528895,5.26342075 L8.23528895,5.32682912 L9.64706399,5.32682912 C10.0705944,5.32682912 10.3529412,5.58049974 10.3529412,5.96098709 C10.3529412,6.34147444 10.0705944,6.59512648 9.64706399,6.59512648 L8.23528895,6.59512648 L8.23528895,7.22926588 L9.64706399,7.22926588 Z" id="Shape"></path>
        </g>
    </g>
</svg>