<?xml version="1.0" encoding="UTF-8"?>
<svg width="310px" height="310px" viewBox="0 0 310 310" version="1.1" xmlns="http://www.w3.org/2000/svg" xmlns:xlink="http://www.w3.org/1999/xlink">
    <!-- Generator: Sketch 51.2 (57519) - http://www.bohemiancoding.com/sketch -->
    <title>im_zhuang_white@2x</title>
    <desc>Created with Sketch.</desc>
    <defs></defs>
    <g id="im_zhuang_white" stroke="none" stroke-width="1" fill="none" fill-rule="evenodd">
        <path d="M155,10 C152.238576,10 150,7.76142375 150,5 C150,2.23857625 152.238576,0 155,0 C157.761424,0 160,2.23857625 160,5 C160,7.76142375 157.761424,10 155,10 Z M180.178986,12.2028758 C177.459514,11.7233596 175.643672,9.13006768 176.123188,6.41059616 C176.602704,3.69112464 179.195996,1.87528208 181.915468,2.35479828 C184.634939,2.83431448 186.450782,5.42760642 185.971265,8.14707794 C185.491749,10.8665495 182.898457,12.682392 180.178986,12.2028758 Z M204.592921,18.74457 C201.998031,17.8001074 200.660096,14.9308957 201.604558,12.3360062 C202.549021,9.74111665 205.418233,8.40318123 208.013122,9.34764378 C210.608012,10.2921063 211.945947,13.1613181 211.001485,15.7562076 C210.057022,18.3510971 207.18781,19.6890325 204.592921,18.74457 Z M227.5,29.4263165 C225.108537,28.0456046 224.289161,24.9876525 225.669873,22.5961894 C227.050585,20.2047263 230.108537,19.3853505 232.5,20.7660624 C234.891463,22.1467743 235.710839,25.2047263 234.330127,27.5961894 C232.949415,29.9876525 229.891463,30.8070283 227.5,29.4263165 Z M248.204203,43.9235557 C246.08883,42.1485468 245.81291,38.9947688 247.587919,36.8793955 C249.362928,34.7640222 252.516706,34.4881023 254.63208,36.2631113 C256.747453,38.0381203 257.023373,41.1918983 255.248364,43.3072716 C253.473355,45.4226449 250.319577,45.6985647 248.204203,43.9235557 Z M266.076444,61.7957966 C264.301435,59.6804233 264.577355,56.5266453 266.692728,54.7516363 C268.808102,52.9766274 271.96188,53.2525472 273.736889,55.3679205 C275.511898,57.4832938 275.235978,60.6370718 273.120605,62.4120808 C271.005231,64.1870897 267.851453,63.9111699 266.076444,61.7957966 Z M280.573684,82.5 C279.192972,80.1085369 280.012347,77.0505849 282.403811,75.669873 C284.795274,74.2891611 287.853226,75.1085369 289.233938,77.5 C290.614649,79.8914631 289.795274,82.9494151 287.403811,84.330127 C285.012347,85.7108389 281.954395,84.8914631 280.573684,82.5 Z M291.25543,105.407079 C290.310967,102.81219 291.648903,99.9429779 294.243792,98.9985154 C296.838682,98.0540529 299.707894,99.3919883 300.652356,101.986878 C301.596819,104.581767 300.258883,107.450979 297.663994,108.395442 C295.069104,109.339904 292.199893,108.001969 291.25543,105.407079 Z M297.797124,129.821014 C297.317608,127.101543 299.133451,124.508251 301.852922,124.028735 C304.572394,123.549218 307.165686,125.365061 307.645202,128.084532 C308.124718,130.804004 306.308875,133.397296 303.589404,133.876812 C300.869932,134.356328 298.27664,132.540486 297.797124,129.821014 Z M300,155 C300,152.238576 302.238576,150 305,150 C307.761424,150 310,152.238576 310,155 C310,157.761424 307.761424,160 305,160 C302.238576,160 300,157.761424 300,155 Z M297.797124,180.178986 C298.27664,177.459514 300.869932,175.643672 303.589404,176.123188 C306.308875,176.602704 308.124718,179.195996 307.645202,181.915468 C307.165686,184.634939 304.572394,186.450782 301.852922,185.971265 C299.133451,185.491749 297.317608,182.898457 297.797124,180.178986 Z M291.25543,204.592921 C292.199893,201.998031 295.069104,200.660096 297.663994,201.604558 C300.258883,202.549021 301.596819,205.418233 300.652356,208.013122 C299.707894,210.608012 296.838682,211.945947 294.243792,211.001485 C291.648903,210.057022 290.310967,207.18781 291.25543,204.592921 Z M280.573684,227.5 C281.954395,225.108537 285.012347,224.289161 287.403811,225.669873 C289.795274,227.050585 290.614649,230.108537 289.233938,232.5 C287.853226,234.891463 284.795274,235.710839 282.403811,234.330127 C280.012347,232.949415 279.192972,229.891463 280.573684,227.5 Z M266.076444,248.204203 C267.851453,246.08883 271.005231,245.81291 273.120605,247.587919 C275.235978,249.362928 275.511898,252.516706 273.736889,254.63208 C271.96188,256.747453 268.808102,257.023373 266.692728,255.248364 C264.577355,253.473355 264.301435,250.319577 266.076444,248.204203 Z M248.204203,266.076444 C250.319577,264.301435 253.473355,264.577355 255.248364,266.692728 C257.023373,268.808102 256.747453,271.96188 254.63208,273.736889 C252.516706,275.511898 249.362928,275.235978 247.587919,273.120605 C245.81291,271.005231 246.08883,267.851453 248.204203,266.076444 Z M227.5,280.573684 C229.891463,279.192972 232.949415,280.012347 234.330127,282.403811 C235.710839,284.795274 234.891463,287.853226 232.5,289.233938 C230.108537,290.614649 227.050585,289.795274 225.669873,287.403811 C224.289161,285.012347 225.108537,281.954395 227.5,280.573684 Z M204.592921,291.25543 C207.18781,290.310967 210.057022,291.648903 211.001485,294.243792 C211.945947,296.838682 210.608012,299.707894 208.013122,300.652356 C205.418233,301.596819 202.549021,300.258883 201.604558,297.663994 C200.660096,295.069104 201.998031,292.199893 204.592921,291.25543 Z M180.178986,297.797124 C182.898457,297.317608 185.491749,299.133451 185.971265,301.852922 C186.450782,304.572394 184.634939,307.165686 181.915468,307.645202 C179.195996,308.124718 176.602704,306.308875 176.123188,303.589404 C175.643672,300.869932 177.459514,298.27664 180.178986,297.797124 Z M155,300 C157.761424,300 160,302.238576 160,305 C160,307.761424 157.761424,310 155,310 C152.238576,310 150,307.761424 150,305 C150,302.238576 152.238576,300 155,300 Z M129.821014,297.797124 C132.540486,298.27664 134.356328,300.869932 133.876812,303.589404 C133.397296,306.308875 130.804004,308.124718 128.084532,307.645202 C125.365061,307.165686 123.549218,304.572394 124.028735,301.852922 C124.508251,299.133451 127.101543,297.317608 129.821014,297.797124 Z M105.407079,291.25543 C108.001969,292.199893 109.339904,295.069104 108.395442,297.663994 C107.450979,300.258883 104.581767,301.596819 101.986878,300.652356 C99.3919883,299.707894 98.0540529,296.838682 98.9985154,294.243792 C99.9429779,291.648903 102.81219,290.310967 105.407079,291.25543 Z M82.5,280.573684 C84.8914631,281.954395 85.7108389,285.012347 84.330127,287.403811 C82.9494151,289.795274 79.8914631,290.614649 77.5,289.233938 C75.1085369,287.853226 74.2891611,284.795274 75.669873,282.403811 C77.0505849,280.012347 80.1085369,279.192972 82.5,280.573684 Z M61.7957966,266.076444 C63.9111699,267.851453 64.1870897,271.005231 62.4120808,273.120605 C60.6370718,275.235978 57.4832938,275.511898 55.3679205,273.736889 C53.2525472,271.96188 52.9766274,268.808102 54.7516363,266.692728 C56.5266453,264.577355 59.6804233,264.301435 61.7957966,266.076444 Z M43.9235557,248.204203 C45.6985647,250.319577 45.4226449,253.473355 43.3072716,255.248364 C41.1918983,257.023373 38.0381203,256.747453 36.2631113,254.63208 C34.4881023,252.516706 34.7640222,249.362928 36.8793955,247.587919 C38.9947688,245.81291 42.1485468,246.08883 43.9235557,248.204203 Z M29.4263165,227.5 C30.8070283,229.891463 29.9876525,232.949415 27.5961894,234.330127 C25.2047263,235.710839 22.1467743,234.891463 20.7660624,232.5 C19.3853505,230.108537 20.2047263,227.050585 22.5961894,225.669873 C24.9876525,224.289161 28.0456046,225.108537 29.4263165,227.5 Z M18.74457,204.592921 C19.6890325,207.18781 18.3510971,210.057022 15.7562076,211.001485 C13.1613181,211.945947 10.2921063,210.608012 9.34764378,208.013122 C8.40318123,205.418233 9.74111665,202.549021 12.3360062,201.604558 C14.9308957,200.660096 17.8001074,201.998031 18.74457,204.592921 Z M12.2028758,180.178986 C12.682392,182.898457 10.8665495,185.491749 8.14707794,185.971265 C5.42760642,186.450782 2.83431448,184.634939 2.35479828,181.915468 C1.87528208,179.195996 3.69112464,176.602704 6.41059616,176.123188 C9.13006768,175.643672 11.7233596,177.459514 12.2028758,180.178986 Z M10,155 C10,157.761424 7.76142375,160 5,160 C2.23857625,160 4.76958634e-16,157.761424 -3.03066797e-17,155 C-5.37571993e-16,152.238576 2.23857625,150 5,150 C7.76142375,150 10,152.238576 10,155 Z M12.2028758,129.821014 C11.7233596,132.540486 9.13006768,134.356328 6.41059616,133.876812 C3.69112464,133.397296 1.87528208,130.804004 2.35479828,128.084532 C2.83431448,125.365061 5.42760642,123.549218 8.14707794,124.028735 C10.8665495,124.508251 12.682392,127.101543 12.2028758,129.821014 Z M18.74457,105.407079 C17.8001074,108.001969 14.9308957,109.339904 12.3360062,108.395442 C9.74111665,107.450979 8.40318123,104.581767 9.34764378,101.986878 C10.2921063,99.3919883 13.1613181,98.0540529 15.7562076,98.9985154 C18.3510971,99.9429779 19.6890325,102.81219 18.74457,105.407079 Z M29.4263165,82.5 C28.0456046,84.8914631 24.9876525,85.7108389 22.5961894,84.330127 C20.2047263,82.9494151 19.3853505,79.8914631 20.7660624,77.5 C22.1467743,75.1085369 25.2047263,74.2891611 27.5961894,75.669873 C29.9876525,77.0505849 30.8070283,80.1085369 29.4263165,82.5 Z M43.9235557,61.7957966 C42.1485468,63.9111699 38.9947688,64.1870897 36.8793955,62.4120808 C34.7640222,60.6370718 34.4881023,57.4832938 36.2631113,55.3679205 C38.0381203,53.2525472 41.1918983,52.9766274 43.3072716,54.7516363 C45.4226449,56.5266453 45.6985647,59.6804233 43.9235557,61.7957966 Z M61.7957966,43.9235557 C59.6804233,45.6985647 56.5266453,45.4226449 54.7516363,43.3072716 C52.9766274,41.1918983 53.2525472,38.0381203 55.3679205,36.2631113 C57.4832938,34.4881023 60.6370718,34.7640222 62.4120808,36.8793955 C64.1870897,38.9947688 63.9111699,42.1485468 61.7957966,43.9235557 Z M82.5,29.4263165 C80.1085369,30.8070283 77.0505849,29.9876525 75.669873,27.5961894 C74.2891611,25.2047263 75.1085369,22.1467743 77.5,20.7660624 C79.8914631,19.3853505 82.9494151,20.2047263 84.330127,22.5961894 C85.7108389,24.9876525 84.8914631,28.0456046 82.5,29.4263165 Z M105.407079,18.74457 C102.81219,19.6890325 99.9429779,18.3510971 98.9985154,15.7562076 C98.0540529,13.1613181 99.3919883,10.2921063 101.986878,9.34764378 C104.581767,8.40318123 107.450979,9.74111665 108.395442,12.3360062 C109.339904,14.9308957 108.001969,17.8001074 105.407079,18.74457 Z M129.821014,12.2028758 C127.101543,12.682392 124.508251,10.8665495 124.028735,8.14707794 C123.549218,5.42760642 125.365061,2.83431448 128.084532,2.35479828 C130.804004,1.87528208 133.397296,3.69112464 133.876812,6.41059616 C134.356328,9.13006768 132.540486,11.7233596 129.821014,12.2028758 Z" id="Oval-4" fill="#FFFFFF" fill-rule="nonzero" transform="translate(155.000000, 155.000000) scale(-1, -1) translate(-155.000000, -155.000000) "></path>
    </g>
</svg>