<?xml version="1.0" encoding="UTF-8"?>
<svg width="260px" height="260px" viewBox="0 0 260 260" version="1.1" xmlns="http://www.w3.org/2000/svg" xmlns:xlink="http://www.w3.org/1999/xlink">
    <!-- Generator: Sketch 51.2 (57519) - http://www.bohemiancoding.com/sketch -->
    <title>img_quesheng@2x</title>
    <desc>Created with Sketch.</desc>
    <defs></defs>
    <g id="img_quesheng" stroke="none" stroke-width="1" fill="none" fill-rule="evenodd">
        <rect id="Rectangle-2" fill-rule="nonzero" x="0" y="0" width="260" height="260"></rect>
        <g id="undraw_character_drawing_k22e" transform="translate(49.000000, 42.000000)" fill-rule="nonzero">
            <path d="M96.7071214,39.2990173 C96.5859378,40.0709383 96.816018,40.8566294 97.3344478,41.4412473 L97.3888659,41.5209438 C98.7116587,43.4612141 99.7378364,45.5878286 100.43357,47.8306806 L100.469892,47.9485604 C100.593777,48.5338389 100.868881,49.0764323 101.267789,49.522269 C101.372232,49.6507949 101.476545,49.7793207 101.571542,49.9146342 C102.411641,51.1464106 102.436866,52.7603155 101.635671,54.0177444 L101.59682,54.0761544 C101.526218,54.165522 101.473501,54.2676592 101.441553,54.3769781 C101.410152,54.5633798 101.556907,54.7272988 101.799053,54.9794266 C101.97102,55.1419421 102.11807,55.3289382 102.235455,55.5343756 C102.557968,56.1652961 102.245967,56.9135651 101.771113,57.3264185 C101.401231,57.6215098 100.97262,57.8342468 100.513928,57.9504097 C100.836041,58.7334043 100.518852,59.6514452 100.234923,60.473427 C100.124493,60.7931448 100.020182,61.095034 99.9512655,61.3828193 C99.8479595,61.865633 99.7797921,62.3553008 99.7472993,62.8479725 C99.7172306,63.1795326 99.6859656,63.5221337 99.6338092,63.8602144 C99.4666995,64.94297 99.0800565,65.7491149 98.4846599,66.2562999 C98.3677994,66.365253 98.2246812,66.4420382 98.0692806,66.4791574 C97.716167,66.5488755 97.3953864,66.3433153 97.1660083,65.9101046 C97.1573597,65.9311259 97.1487555,65.951793 97.1401958,65.9721059 C96.6219697,67.2028156 96.0388104,68.4256722 95.4748177,69.6082146 L93.9129486,72.8832149 C93.2176343,74.3410355 92.431844,75.9887294 91.1610872,77.2421806 C91.36451,80.2648402 91.7876161,83.2686903 92.4270537,86.2299352 C93.2663301,89.9759426 94.1898263,94.4046264 94.6761198,98.8503405 C94.8074403,100.444166 94.8138906,102.045822 94.6954118,103.640653 C94.605014,104.979961 94.5921539,106.323377 94.656896,107.66417 C96.173459,105.154925 97.5406756,102.627518 97.622135,99.743054 C100.41215,105.312952 100.777403,111.308394 101.046062,117.532197 C101.242012,122.072074 101.501491,126.630207 102.432007,131.078011 C103.443614,135.913445 105.251755,140.822629 104.247897,145.659681 C104.026204,146.666167 103.721179,147.652469 103.335976,148.608388 C101.795097,152.574095 105.497697,156.642529 109.579655,155.443057 C109.607595,155.434859 109.635513,155.426482 109.663408,155.417926 C111.16587,154.957044 112.44687,154.035311 113.685836,153.030437 C114.197888,154.617999 114.957989,156.11451 115.937926,157.464426 C116.41219,158.19321 117.034019,158.814432 117.763264,159.287985 C117.980521,159.415099 118.211138,159.517858 118.45093,159.594397 L120.226741,159.590108 C120.236087,159.586481 120.245902,159.584718 120.255216,159.580961 C121.494868,159.080828 122.02637,157.601884 122.112748,156.267862 C122.27244,153.800644 121.401866,151.440464 120.329332,149.262811 C120.302121,149.207578 120.271919,149.141435 120.240387,149.070918 C121.873734,148.758487 123.64479,148.714279 124.502056,146.951907 C124.718044,146.494209 124.836902,145.996741 124.851143,145.490841 C124.917204,143.795675 124.146147,142.31314 123.597885,140.774489 C122.401903,137.4181 122.266127,133.790624 122.153441,130.229271 C122.041514,126.690987 121.940422,123.152376 121.850164,119.613439 C121.791155,117.299827 121.735309,114.972427 121.283507,112.702603 C121.085762,111.708939 120.812511,110.728965 120.682132,109.724241 C120.194969,105.970549 121.724541,102.247594 121.819504,98.4636022 C121.926343,94.2070828 121.645542,89.928165 121.278324,85.6861636 C120.923581,81.5876938 121.110152,77.4706268 121.453805,73.3653721 C122.65065,72.3686483 123.542878,71.02583 124.402114,69.7117835 C125.063163,68.7007397 125.72423,67.6896913 126.385314,66.6786384 C126.618448,66.322046 126.850808,65.9649087 127.082394,65.6072264 C127.745953,65.5011727 128.373909,65.2358277 128.912456,64.8339268 C128.914617,64.8320821 128.916347,64.8298532 128.918476,64.8279894 C128.99784,65.1510833 129.07022,65.4762073 129.141467,65.7998162 C129.219201,66.1529789 129.403908,66.5922033 129.764937,66.5709876 C129.877076,66.5573085 129.983846,66.5151461 130.075075,66.4485164 C130.7821,65.9938366 131.182114,65.1857434 131.420239,64.3795958 C131.658364,63.5734482 131.769625,62.7295668 132.073046,61.9456403 C132.506621,60.8253799 133.518961,59.5651519 132.968901,58.4972495 C133.514364,58.4609165 134.045084,58.3046295 134.523184,58.0395424 C134.978411,57.7402146 135.296467,57.1577065 135.115619,56.6437693 C134.937266,56.1369849 134.320981,55.7322326 134.480442,55.2191592 C134.548232,55.0578413 134.648568,54.91224 134.775178,54.7914554 C135.661513,53.7356636 135.83769,52.2549011 135.223823,51.0206191 C135.049928,50.6852497 134.820117,50.379554 134.668007,50.0337402 C134.507637,49.6117678 134.400071,49.1715811 134.347758,48.7232033 C133.961681,46.4343644 133.23746,44.2156425 132.198844,42.1398014 C131.961626,41.735046 131.794545,41.2930979 131.704665,40.8326406 C131.68324,40.3435844 131.731307,39.8539619 131.847428,39.3784086 C132.152143,37.4790964 131.690463,35.5202408 130.880923,33.7752942 C130.822447,33.649248 130.75865,33.5260602 130.696815,33.4018259 C130.738066,33.0646421 130.743507,32.7240387 130.713047,32.3857094 C130.64145,31.1656268 130.419405,29.9590616 130.051957,28.7934245 C129.677974,27.6201223 128.923067,26.6052144 127.906901,25.9095795 C126.908,25.2808688 125.698746,25.105748 124.529447,24.9447092 C123.270201,24.7712959 122.010911,24.5978772 120.751575,24.4244531 C120.991655,24.1725735 121.130511,23.8410643 121.141607,23.4932729 C121.343413,19.362004 124.062649,12.7600241 121.674836,7.11758195 C119.193232,1.25347578 112.868729,0.142847671 112.868729,0.142847671 C112.868729,0.142847671 106.779454,-1.48511277 101.689247,6.24981723 C96.944734,13.4593984 90.8278241,20.2132561 98.5791496,23.0961038 L100.62941,18.7962129 L100.872467,23.7460847 C101.999729,23.9814658 103.139028,24.1549832 104.285252,24.2658585 C104.490981,24.2868816 104.696298,24.3082917 104.901205,24.3300887 C104.575119,24.5162597 104.236726,24.6799956 103.888378,24.8201589 C103.34008,25.0035415 102.744683,25.0351661 102.215081,25.2671219 C101.581166,25.5447626 101.103319,26.0804904 100.646593,26.6004277 C99.8253228,27.5353809 99.0040204,28.4703305 98.1826863,29.4052765 C97.611979,30.0016766 97.1202406,30.6689117 96.7195413,31.3906041 C96.2737554,32.2820669 96.1163597,33.2851614 95.9533127,34.2684299 C95.9130639,34.5109799 95.8684254,34.7527615 95.8268469,34.9950799 C96.4218626,36.2428767 96.7268212,37.6091366 96.7188791,38.9915177 C96.7163014,39.0937214 96.7117781,39.196304 96.7071214,39.2990173 Z M126.316808,46.5166667 C126.323593,46.4737094 126.333174,46.4313979 126.34089,46.3886559 C126.67591,46.8584363 126.962729,47.3607864 127.196998,47.8880905 C128.21831,50.1778877 128.490091,52.7318187 127.97354,55.1852702 C127.441276,53.4626184 126.932028,51.7344515 126.559157,49.9711967 C126.319004,48.8353037 126.135793,47.66347 126.316808,46.5166667 Z" id="Shape" fill="#F2F2F2"></path>
            <path d="M22.0840799,163.266038 C24.3569218,162.662846 26.7065,162.399237 29.0565008,162.483774 C29.6024693,159.550999 29.5962029,156.54208 29.0380236,153.611605 C26.7118947,154.575566 24.5518806,155.89944 22.6371814,157.534684 C22.6940122,159.460775 22.5081846,161.38636 22.0840799,163.266038 Z" id="Shape" fill="#F2F2F2"></path>
            <path d="M31.8935329,162.979683 L31.8676032,163.060066 C31.8437879,163.134043 29.4107126,170.506579 23.2799278,174.19471 C21.4305134,175.278286 19.4030077,176.024059 17.292255,176.397143 C19.3332323,176.624358 25.2527347,176.952359 30.2240266,173.961474 C36.3381652,170.282988 38.6929065,162.976528 38.6929065,162.976528 C36.4378744,162.653619 34.1482643,162.654681 31.8935329,162.979683 Z" id="Shape" fill="#F2F2F2"></path>
            <path d="M12.8036136,176.805416 C11.7882263,176.809098 10.7736859,176.746342 9.76649289,176.617551 L9.49334276,176.72133 L9.45955459,176.57258 C9.43334424,176.568321 9.41977174,176.565926 9.41977174,176.565926 L9.111095,176.511377 L9.20795533,176.21308 C9.20795533,176.21308 9.24614141,176.095197 9.32291141,175.886844 C8.9986703,173.999668 8.25212882,167.81367 11.1394344,162.458961 C14.5353882,156.161464 21.784853,153.383924 21.8577646,153.356518 L22.1502067,153.246883 L22.2192599,153.551568 C22.8268778,156.765958 22.7809047,160.069799 22.0840827,163.266038 C25.2063942,162.449098 28.459728,162.259526 31.6557922,162.708296 L31.9635343,162.762581 L31.8676195,163.060077 C31.8438043,163.134054 29.4107289,170.50659 23.2799442,174.194721 C19.6899863,176.354644 15.5952577,176.805416 12.8036136,176.805416 Z M9.83381854,176.076837 C11.2366925,176.266566 17.6963806,176.917977 22.9989274,173.727981 C28.2537157,170.566463 30.7167263,164.609039 31.2406745,163.197652 C30.0870019,163.044911 25.9910771,162.641782 21.7853843,163.920109 L21.3198433,164.061409 L21.4425161,163.59068 C22.5641227,159.284933 21.959279,155.145765 21.7498604,153.989566 C20.3642729,154.580314 14.5271373,157.324848 11.6192073,162.71761 C8.77687275,167.988761 9.56359491,174.113826 9.87240246,175.865296 L9.88530736,175.938474 L9.85923052,176.008192 C9.8503148,176.032137 9.84184414,176.055018 9.83381854,176.076837 Z" id="Shape" fill="#3F3D56"></path>
            <path d="M56.8299421,176.332559 C55.6788123,176.363906 54.5336717,176.156423 53.4667166,175.723192 C52.9397821,175.520822 52.4775154,175.179479 52.1290374,174.735433 C51.5985713,174.001265 51.5272564,172.956829 51.9168231,171.631123 C52.4657856,169.763907 53.9174889,167.49169 55.5994995,165.833626 C54.4438233,165.630514 53.3206523,165.273143 52.2600919,164.771094 C50.5182081,163.870083 49.0627799,162.271627 47.8107864,159.884455 C43.4285368,151.527354 44.98588,141.17238 46.2373421,132.85201 C47.8884856,121.873307 49.4343871,110.690495 50.9293311,99.8758443 L50.9369144,99.8204943 C51.4527481,96.0885907 51.9860099,92.2296246 52.01049,88.4067163 C51.9887818,87.4190287 51.8894427,86.4345772 51.7133911,85.4624641 C51.4711081,83.8890225 51.220577,82.2619585 51.6384849,80.6790699 C51.9039137,79.5055803 52.0499472,78.308249 52.074355,77.105363 C52.1070735,76.227405 52.1845646,75.351688 52.3065261,74.481627 C52.6273956,72.4727361 53.4143846,70.56694 54.6044243,68.9169685 C54.1043898,68.6067409 53.7796736,68.0791199 53.7280272,67.4929388 C53.7037178,66.8412376 53.8205877,66.1919838 54.0706284,65.5896674 L57.9003242,54.2372231 C58.2399989,53.2305727 58.5912487,52.1897253 58.8351285,51.1407633 C59.1123625,49.8466653 59.3022536,48.5353878 59.4035164,47.2158067 C59.6621648,44.4731254 59.8355281,41.6865358 59.9189495,38.9334783 L59.9214781,38.8489915 C59.9510155,37.8682844 59.9814821,36.854315 60.3082519,35.8991533 C60.6158348,35.1079227 61.024448,34.3597904 61.5239258,33.6733684 L63.5907265,30.5644015 C63.9693856,29.994951 64.3984681,29.3496623 65.0522747,28.9515777 C65.3553598,28.7801438 65.6755872,28.6409665 66.0077034,28.5363292 C66.2342126,28.4617404 66.4561281,28.3738641 66.6722949,28.2731575 C66.7162005,28.2516039 66.7630325,28.2257914 66.8122624,28.196521 C65.7539967,28.227411 64.6948451,28.2045409 63.6388991,28.1279991 L63.4302762,28.1117672 L62.6865305,24.0956697 L61.4837451,27.8392683 L61.2405302,27.7844525 C59.1191889,27.3056087 57.7837822,26.4261516 57.1576411,25.0959222 C55.8340658,22.2836563 58.0425533,17.9256225 60.3806321,13.3118667 C60.8807652,12.325173 61.3976616,11.3049501 61.8855546,10.2897817 C65.9350479,1.86389453 72.3641277,2.58275969 72.4286577,2.59127485 C72.4705687,2.5918062 79.0072883,2.91471485 82.2878882,8.45795601 C84.5364366,12.257316 84.2695264,16.9296153 84.0550505,20.6838709 C83.9394697,22.0773836 83.916135,23.477013 83.9851989,24.8736042 C84.0082912,25.1193301 83.9785783,25.3671533 83.8980527,25.6004559 L87.2657988,25.6099002 C88.4104249,25.6130937 89.7079206,25.6168186 90.8541435,26.1391728 C92.2093843,26.7570522 93.0381483,27.9455839 93.4947736,28.8339539 C94.0261328,29.959538 94.415239,31.1469179 94.6531084,32.368679 C94.7271645,32.6916186 94.768969,33.021114 94.7779067,33.3523154 L94.7978635,33.3817193 C94.8560064,33.4666039 94.9140158,33.5514776 94.9693657,33.6382369 C96.158693,35.5001286 96.7636811,37.4286839 96.7188328,39.2154052 C96.7163041,39.3175872 96.7117809,39.420167 96.7071159,39.5228803 C96.5859323,40.2948013 96.8160125,41.0804924 97.3344424,41.6651103 L97.3888604,41.7448068 C98.7116533,43.6850771 99.737831,45.8116916 100.433564,48.0545435 L100.469887,48.1724261 C100.593771,48.7577046 100.868875,49.300298 101.267783,49.7461347 C101.372227,49.8746606 101.47654,50.0031864 101.571536,50.1384972 C102.411636,51.3702744 102.436861,52.9841803 101.635666,54.2416101 L101.596815,54.3000174 C101.526213,54.3893854 101.473496,54.4915224 101.441547,54.6008411 C101.410146,54.7872455 101.556901,54.9511617 101.799048,55.2032896 C101.971014,55.3658051 102.118065,55.5528012 102.235449,55.7582386 C102.557963,56.3891591 102.245962,57.1374309 101.771107,57.5502814 C101.401225,57.8453728 100.972614,58.0581098 100.513923,58.1742727 C100.836036,58.95727 100.518847,59.875311 100.234917,60.69729 C100.124487,61.0170078 100.020177,61.318897 99.95126,61.6066823 C99.847954,62.0894959 99.7797866,62.5791638 99.7472939,63.0718355 C99.7172251,63.4033928 99.6859602,63.7459967 99.6338038,64.0840746 C99.466694,65.1668302 99.0800511,65.9729779 98.4846544,66.4801628 C98.3677926,66.5891141 98.2246749,66.665899 98.0692752,66.7030204 C97.7161615,66.7727384 97.395381,66.5671756 97.1660029,66.1339676 C97.1573542,66.1549889 97.14875,66.175656 97.1401904,66.1959689 C96.6219643,67.4266758 96.038805,68.6495324 95.4748122,69.8320776 L93.9129431,73.1070779 C93.2176288,74.5649013 92.4318386,76.2125924 91.1610818,77.4660436 C91.3645044,80.4887032 91.7876105,83.4925534 92.4270483,86.4537982 C93.2663247,90.1998056 94.1898208,94.6284894 94.6761144,99.0742035 C94.8074349,100.668029 94.8138852,102.269685 94.6954063,103.864516 C94.5910962,106.022845 94.4831948,108.25488 95.0462583,110.344823 C95.2150984,110.972016 95.4482013,111.597615 95.673721,112.202459 C95.7969252,112.533485 95.9202602,112.864513 96.0348158,113.198466 C96.7866789,115.389247 97.1601499,117.709642 97.5212447,119.953648 L97.5313566,120.016448 C98.0898969,123.487972 98.6682632,127.01325 99.2504879,130.49489 C99.7982541,133.770566 100.419063,137.483178 102.064751,140.672372 C102.22095,140.975193 102.386463,141.27402 102.551976,141.573119 C103.182099,142.710957 103.833644,143.887647 103.966292,145.278278 C104.024015,145.819109 103.968416,146.366034 103.803041,146.884186 C103.227734,148.627931 101.753548,149.083494 100.328055,149.524151 C100.22747,149.555286 100.126974,149.586508 100.026567,149.617818 C101.188354,151.361566 102.508869,153.679552 102.693276,156.331492 C102.815282,158.086415 102.241439,159.502327 101.158152,160.11888 C100.299037,160.559342 99.285088,160.580242 98.408552,160.175556 L98.6206327,159.673693 C99.3410338,160.012272 100.176919,160.001779 100.888593,159.645221 C102.217504,158.888968 102.189816,156.946445 102.149636,156.369278 C101.969752,153.783328 100.634735,151.499402 99.4917082,149.798498 C99.4557837,149.745012 99.4150717,149.680615 99.3723596,149.611695 L99.1911569,149.319253 L99.5175261,149.209886 C99.732002,149.13804 99.9495379,149.070717 100.167074,149.003661 C101.520187,148.585352 102.79826,148.190194 103.285488,146.713346 C103.427145,146.266801 103.474224,145.795643 103.423725,145.329897 C103.301853,144.052359 102.706056,142.976254 102.075269,141.837086 C101.907094,141.533467 101.739052,141.229847 101.580458,140.922236 C99.8956539,137.65747 99.2673929,133.899888 98.712978,130.584826 C98.1306198,127.102124 97.5519864,123.575517 96.9933235,120.103193 L96.9832116,120.040127 C96.625711,117.818734 96.2560956,115.522035 95.5194017,113.375137 C95.406443,113.045975 95.284702,112.71947 95.1629638,112.3927 C94.9331851,111.77615 94.6955589,111.138575 94.519934,110.486368 C93.9347828,108.313936 94.0446816,106.038526 94.1509889,103.838153 C94.2676044,102.271891 94.2620471,100.698925 94.1343673,99.1335263 C93.6510003,94.7144203 92.731229,90.3042301 91.8952797,86.5729914 C91.2416454,83.5442547 90.8114031,80.4715904 90.6080266,77.3798075 L90.5983125,77.2511481 L90.691715,77.1621381 C91.9450382,75.9674891 92.7292317,74.3231305 93.4209573,72.8723591 L94.9809627,69.6014706 C95.5442933,68.4205195 96.1246542,67.2035213 96.6378256,65.9843895 C96.7427554,65.7593835 96.8172097,65.5213889 96.8592199,65.276699 L96.9993209,64.1833001 L97.4518236,65.3940502 C97.4856118,65.4830603 97.51928,65.5719368 97.5518774,65.6609468 C97.6517951,65.9339771 97.8203708,66.1991325 97.9648615,66.1681318 C98.0271438,66.1463217 98.0839378,66.1112276 98.1313064,66.0652822 C98.6242541,65.6452462 98.9486287,64.9507276 99.0952503,64.0008876 C99.144878,63.6797065 99.1752111,63.3456205 99.204615,63.0224421 C99.2395279,62.5036122 99.311919,61.9879866 99.4212217,61.4796006 C99.4963949,61.1660028 99.6100185,60.8372384 99.7197838,60.5193844 C100.028992,59.6246272 100.3209,58.7793644 99.8896865,58.1620136 L99.6697582,57.8472195 L100.039502,57.7435743 C100.53553,57.6428237 101.004111,57.4366426 101.413503,57.1389977 C101.720847,56.871834 101.943307,56.383941 101.750118,56.0062138 C101.655641,55.8491665 101.539851,55.7059734 101.406053,55.5807226 C101.133966,55.2974605 100.825559,54.9764102 100.904324,54.50994 C100.945916,54.3234232 101.027741,54.1482401 101.144078,53.996635 L101.180133,53.942484 C101.850597,52.8695657 101.829245,51.503121 101.125584,50.4516754 C101.037904,50.3268771 100.941311,50.2084632 100.844982,50.0900493 C100.401949,49.5898115 100.093608,48.9849882 99.9490283,48.3325984 L99.9131039,48.2159148 C99.233397,46.0247727 98.2309002,43.9471763 96.9386548,42.0516007 L96.8847681,41.9728334 C96.299426,41.290239 96.0363395,40.388657 96.1627095,39.4983811 C96.1670992,39.3992592 96.1716252,39.3002843 96.1741538,39.2018136 C96.2160648,37.5240592 95.6407585,35.7015497 94.5101054,33.9314583 C94.4578155,33.8496337 94.4029997,33.7694058 94.3480503,33.6893088 L94.2364213,33.5250002 L94.234958,33.443974 C94.231311,33.1234173 94.1935341,32.8041606 94.1222663,32.4916053 C93.8936088,31.3138555 93.5200051,30.1689486 93.0099815,29.0830136 C92.5930027,28.2715525 91.8411423,27.1879904 90.6281306,26.6351696 C89.5888718,26.1613804 88.3539169,26.1579198 87.2642402,26.1548598 L82.9231031,26.1427533 L83.2297826,25.7134037 C83.3964046,25.4843323 83.4720736,25.2015703 83.4421303,24.9198967 C83.3703573,23.4976007 83.3933815,22.0721037 83.51105,20.6528675 C83.7212669,16.9724527 83.9828419,12.3919592 81.8189166,8.73549587 C78.6922545,3.45236914 72.4458488,3.13637616 72.3830491,3.13371398 C72.2989629,3.12413612 66.2477411,2.47099441 62.3767992,10.5258085 C61.886511,11.5461649 61.3681514,12.5689166 60.8668221,13.5581389 C58.5906111,18.0498867 56.440667,22.2924358 57.6507495,24.8637484 C58.1773599,25.9826955 59.3129368,26.7467986 61.1181516,27.1954401 L62.8289013,21.8710782 L63.8897055,27.5999227 C64.8537801,27.6663137 65.9338762,27.6806819 67.1029824,27.6430299 L67.7071585,27.6192147 L68.787786,27.4836369 L67.7175102,28.2406881 C67.4625528,28.4343367 67.1934882,28.6086727 66.9125615,28.7622413 C66.6772488,28.8725166 66.4356066,28.9687473 66.1889061,29.0504271 C65.8926176,29.1428771 65.6066818,29.2657134 65.3356594,29.416977 C64.7852392,29.7521339 64.3918059,30.3439337 64.0446814,30.8661517 L61.9776246,33.9751186 C61.5053778,34.6234037 61.1176958,35.3292433 60.823952,36.0755712 C60.5236733,36.9528974 60.4945174,37.9250894 60.4661789,38.8653515 L60.4636529,38.9499691 C60.379831,41.714471 60.2058029,44.5127556 59.946089,47.2668922 C59.8427452,48.6108544 59.6489396,49.9463235 59.3659897,51.264221 C59.1161207,52.3388592 58.7606174,53.392478 58.4168173,54.4115047 L54.5871214,65.763949 C54.3659719,66.2931712 54.2579729,66.8628023 54.2700631,67.4362455 C54.3186281,67.9007211 54.6171902,68.4233397 55.0937724,68.52326 L55.5166041,68.6118722 L55.2544978,68.9552718 C53.9991885,70.5973853 53.1712034,72.5254655 52.8448398,74.5665007 C52.7260668,75.4182572 52.6505306,76.275485 52.6185217,77.1348868 C52.5929716,78.3748719 52.4411315,79.6090261 52.1653542,80.8182254 C51.7764524,82.2913488 52.0074245,83.7913502 52.2519691,85.3795605 C52.4329819,86.3801641 52.5344611,87.3935326 52.555455,88.4101606 C52.5307079,92.2688597 51.9949201,96.1457881 51.4768249,99.8949891 L51.4691081,99.9504698 C49.973897,110.766592 48.4278647,121.951259 46.7761871,132.932903 C45.536698,141.174783 43.99399,151.432099 48.2934831,159.631136 C49.4917262,161.916394 50.8711937,163.439279 52.5104868,164.286803 C53.5627434,164.779159 54.6764015,165.127854 55.8215532,165.323522 L56.7467796,165.511654 L56.3505588,165.872485 C54.5758133,167.488505 53.0042328,169.8645 52.4397033,171.784938 C52.1000286,172.940338 52.1440568,173.825648 52.5707687,174.416124 C52.8629012,174.780191 53.2475292,175.059035 53.6843914,175.223468 C54.6955679,175.664125 58.5889925,176.07179 58.3174392,176.177166 C58.0486448,176.268881 57.766695,176.316157 57.482686,176.317133 C57.2595606,176.327504 57.0419793,176.332646 56.8299421,176.332559 Z M90.2119121,69.2552999 L90.1838461,68.6750697 C90.177579,68.5437509 90.1714726,68.4124294 90.1633552,68.2812441 L90.1500498,68.0649044 L90.4009814,67.9906631 C90.4454211,67.9777582 90.490125,67.9649841 90.5334992,67.9486213 C90.8723699,67.8046571 91.1935371,67.6221526 91.4906554,67.4047135 L91.6533755,67.2958802 C91.9564635,67.0952411 92.2846965,66.8985967 92.6863671,66.6767937 L93.6370055,66.1520443 L93.0468024,67.0634339 C92.6368919,67.7391179 92.0412774,68.2826347 91.3309981,68.6291587 C91.104413,68.7373354 90.872509,68.8627957 90.60122,69.0240498 L90.2119121,69.2552999 Z M94.9142801,56.459136 L94.4726878,55.5058355 C93.6254303,53.6766719 92.9427539,52.1261136 92.3647854,50.5046411 C91.97575,49.4133703 91.6197099,48.2354819 91.6471165,47.0158188 C91.6476614,46.9857501 91.6495116,46.9555478 91.6513754,46.925212 L91.6834388,46.2409389 L92.1237014,46.7040848 C92.5309698,47.1383345 92.8936175,47.6123712 93.2061899,48.1190653 C94.5555577,50.3006836 95.1804801,52.8531348 94.9915814,55.4113703 L94.9142801,56.459136 Z M92.2123108,47.6436794 C92.3194183,48.5609959 92.5431522,49.4608935 92.8780959,50.3215637 C93.3333915,51.5987021 93.8558765,52.834469 94.4750884,54.2030153 C94.4214124,52.1520616 93.8240182,50.1521535 92.7439895,48.4077825 C92.579841,48.1442265 92.4023852,47.8891956 92.2123108,47.6436794 Z" id="Shape" fill="#3F3D56"></path>
            <polygon id="Shape" fill="#3F3D56" points="58.8568156 176.488429 0 176.760914 0 176.215943 58.8568156 175.943458"></polygon>
            <polygon id="Shape" fill="#3F3D56" points="170 160.666667 96 161 96 160.333333 170 160"></polygon>
            <polygon id="Shape" fill="#3F3D56" points="73.2925395 14.3828618 72.7017915 10.4849602 71.777249 14.0681413 69.2112553 14.166781 69.2112553 12.3209659 68.4071513 14.1972994 63.9997023 14.3776846 63.9773585 13.8332591 68.0414761 13.667043 69.7562258 9.66586953 69.7562258 13.6005566 71.3508096 13.5392475 72.8410314 7.76501238 73.7595792 13.8283543 80.6349273 13.6880244 80.5420098 11.8781773 81.0864353 11.8501114 81.2079638 14.2212781"></polygon>
            <path d="M69.1834482,140.652691 C69.0115482,139.63486 68.812108,138.626613 68.5903132,137.656416 C68.3896769,136.777757 68.1652362,135.887125 67.9480845,135.026028 C67.5927093,133.615972 67.2250939,132.157748 66.9487503,130.701123 C66.5249887,128.464626 66.3053081,126.194251 66.2924178,123.917998 C66.2554547,122.277414 66.406744,120.638003 66.7433209,119.03189 C67.1902349,117.043331 68.0393562,115.116776 68.8606704,113.253819 C70.2056576,110.202463 71.4761555,107.320346 71.1424619,104.17958 L71.0280399,103.101745 L71.6386058,103.997301 C75.0558434,109.009275 76.2485114,114.55105 77.4524657,121.274836 C78.2611392,125.7908 79.1122578,130.198456 80.6250306,134.470946 C80.9831988,135.482389 81.3871364,136.512724 81.7776432,137.508998 C81.97683,138.016715 82.1759922,138.524962 82.370909,139.034011 L81.861863,139.228795 C81.667611,138.721078 81.4688357,138.21416 81.2703247,137.707782 C80.8780958,136.707516 80.4725615,135.672922 80.1111997,134.652966 C78.5848545,130.341633 77.7288148,125.91002 76.9160158,121.370639 C75.7913492,115.09044 74.6787892,109.854412 71.7398613,105.149251 C71.7487743,108.053189 70.5361631,110.803865 69.3593402,113.473624 C68.5486693,115.3129 67.7101913,117.214708 67.2749887,119.151375 C66.9476902,120.717266 66.8008625,122.315498 66.8373774,123.914812 C66.8500588,126.158024 67.0665327,128.395445 67.4841293,130.599481 C67.7575465,132.040407 68.1230337,133.49038 68.4765452,134.89272 C68.6943481,135.756744 68.9196062,136.650305 69.1217031,137.535083 C69.345626,138.515393 69.5471942,139.533763 69.720691,140.562223 L69.1834482,140.652691 Z" id="Shape" fill="#3F3D56"></path>
        </g>
    </g>
</svg>